<svg id="Layer_1" data-name="Layer 1" xmlns="http://www.w3.org/2000/svg" viewBox="0 0 296.86 400"><defs><style>.cls-1{fill:#fff;}</style></defs><title>avatar-cycle</title><path class="cls-1" d="M291.75,412.4c-8.27,0-16.55.25-24.8-.06-13.25-.49-17.15-3.71-19.47-16.54-1-5.36-3.66-8-8.71-9.27-10.54-2.58-19.07-7.3-20-19.79-.24-3.38-2.55-3.19-4.7-1.78-4.47,2.93-8.89,6-13.2,9.12-7.72,5.67-16,9-25.86,7.65-4.52-.6-8.61-1.87-11.35-5.71s-6.28-5.49-10.71-3.55-5.73.25-5.77-3.95c-.05-5.48-1.53-9.76-7.67-11.66-3.63-1.12-4.8-4.06-1-7.07,4.74-3.76,2.05-5.64-2-6.69a20.56,20.56,0,0,0-13.51,1.32c-8.46,3.55-12.65,1.63-15.44-7-1.17-3.6-2.29-5-6.69-3.69-8,2.37-14.53-1.66-16.37-9.92-1.7-7.6-4.59-13.67-10.88-19-9.22-7.8-8.78-22.7-.41-33.11,9-11.17,9.11-13.38-.63-23.8-10-10.65-8.65-23.54-8.39-36.46C64.76,187.1,74.68,167,91.5,149.83c2.23-2.27,3.8-4.41,1.25-7.52s-2.26-6.3,1.07-8.83c3.8-2.88,4-7.64,6.08-11.43a4,4,0,0,0-1.28-5.22c-5.4-4.15-3.5-8.92-.21-12.7,7-8.08,8.78-16.24,3.54-26-2.73-5.09-.85-10.33,3.59-13.71,17.93-13.65,32.17-31.92,52.76-42.26,3.11-1.56,5.19-4.32,7.45-6.88,3.29-3.72,7.11-3.73,9.75.31,2.85,4.37,6.85,5,11.29,5.23,12.91.68,25.74-.75,38.54-2a217.42,217.42,0,0,1,23.3-.75c4.7,0,8.37,2.22,11.55,5.44,3.53,3.57,7.71,6.16,12.68,6.66,22.18,2.26,36.47,16.79,50.35,32,20.44,22.41,28.88,50.29,35.55,78.87,2.88,12.35-1.35,16.14-13.58,13a97.42,97.42,0,0,1-20.42-7.75c-6-3.09-11.88-3.31-17.07,1-5,4.12-5.79,10-3.95,16a129.13,129.13,0,0,0,23.51,44.11c3.68,4.52,7.66,9,10.41,14,4.45,8.18,8.53,16.17,17.65,20.48,4.27,2,4.92,7.16,5.15,11.53.82,15.8.82,31.6-2.23,47.23-.75,3.86-1.49,8.14-6.2,8.88s-5.93-3.59-7.77-6.55c-9-14.4-12.72-29.67-8.4-46.64,2.1-8.26.21-10.09-8.2-10.2-5.11-.07-10.15,0-15-2a10.38,10.38,0,0,0-6.45-.4c-11.85,3.48-24.05,6.08-34.51,13.25-2.83,1.94-4.63,4.18-4.2,7.82.48,4,3.65,4.9,6.71,5.64a111.94,111.94,0,0,0,23.81,3c5.48.13,9.33,1.87,11.3,7.26,2.6,7.12,8.47,11.71,13.38,17.08,2.95,3.22,9,5.75,6.59,11S320.63,319,315.44,318c-16.48-3.09-32.25-.24-48.22,2.5-2.09.36-5.17.37-6-1.74-3.26-8.48-6.35-3.35-9.82-.31-2.6,2.28-5.91,3.16-9.28,4a14,14,0,0,0-10.47,16c.92,5.29,5,4.1,8,3.37,8.25-2,16.77-3.74,24.45-7.19,22.13-10,43.28-5,64.41,2.83,4.16,1.54,7.37,4.62,6.7,9.33-.76,5.3-5.57,5.8-9.67,5.63-6.78-.27-13.53-1.3-20.3-1.93-5.25-.49-9.74.51-11.63,6.33-1,3.2-3.58,5-6.26,6.84-5.75,3.9-5.53,8.53.91,11.21,13.37,5.56,25.39,13.25,36.72,22.11,3.33,2.61,8.37,5,7.07,10.08-1.34,5.26-7.16,4.67-11.19,4.89-9.69.54-19.43.18-29.15.18ZM161.48,161c-6.32,1.43-11.65,5.23-14.11,10-4.39,8.57-2.51,13.09,6.37,17a78.17,78.17,0,0,0,32.62,6.37c15.52-.11,31-1.09,46.54-1.31,21.15-.29,41.16-18.78,42.73-39.9.37-5-1.28-8.32-6.8-9.34-14.35-2.64-28.7-5.06-43.37-4.35-7.8.38-9.88,3-8.68,10.6,1.4,8.86.37,10.47-8.76,12.59-12.06,2.8-24.17,5.34-36.22,8.18-12.58,3-12.73,2.9-10-9.3C161.86,161.47,161.6,161.23,161.48,161Z" transform="translate(-64.07 -12.5)"/></svg>