<svg xmlns="http://www.w3.org/2000/svg" viewBox="0 0 528.08 284.32"><defs><style>.a{fill:none;stroke:#e9e9e9;stroke-linecap:round;stroke-linejoin:round;stroke-width:2.16px;}</style></defs><title>signature</title><path class="a" d="M305.5,63.42A46.21,46.21,0,0,0,309.6,61l-0.68,1.73a44,44,0,0,1,3.89-2.25l-3.64,3.08,3.52-2c0,0.07-10.45,6.19-10.27,6.5l14.8-8.54-13.07,8.23s18-10.42,18-10.42L306,68c0.55,1,16.8-9.7,16.8-9.7s-20,12.07-20,12.07L327,56.5s-24.11,13.8-23.82,14.3l27.5-15.88L303.16,71.76c0.22,0.37,30.75-19.28,31.41-18.13,0.07,0.12-28.18,17.05-28.18,17.05,0.52,0.9,30.83-17.8,30.83-17.8,0.52,0.89-32,19.06-31.8,19.47C305.54,72.56,335.53,55,335.53,55S298.67,75.6,299.17,76.45c0.19,0.32,3.89-2.25,3.89-2.25s-3.71,3.28-3.7,3.31c0.11,0.2.87-.5,0.87-0.5"/><path class="a" d="M324.25,62.38c0.35,0.61,17.21-9.93,17.21-9.93s-10.8,7.15-10.72,7.28,13.95-9.42,14.54-8.39c0.16,0.27-6.63,4.71-6.62,4.72s10.07-6.53,10.38-6l-11.3,6.87s7.14-4.9,7.48-4.32L344.63,54l3.17-1.83-1.63,1.72c0.31,0.54,5-3.75,5.34-3.09,0.07,0.12-4.71,3.06-4.7,3.08,0.5,0.86,7.78-4.57,7.81-4.51s-6.92,4.27-6.92,4.27c0.2,0.34,7.5-4.33,7.5-4.33l-3.85,2.93c0.18,0.32.74-.43,0.74-0.43s3.58-.73,3.59-0.7c0.21,0.37,2.25-1.46,2.32-1.34l-1.73,2.16s2.27-2.28,2.69-1.55l0.32,0.36s6.82-4.37,7-4c0,0-4.67,3.29-4.62,3.38,0.17,0.29,3.93-2.75,4.14-2.39,0.06,0.11-2.41,2.3-2.38,2.36s6-4.12,6.3-3.64c0,0-1.78,1.77-1.76,1.8,0.32,0.56,2.41-1.44,2.43-1.4s-0.23,1.23-.23,1.24c0.15,0.26.52-.44,0.58-0.33s-1.19,1.66-1.15,1.73l2.85-1.65s0.09,1.34.09,1.34,7-4.08,7-4l-3.35,2.56c0.26,0.45-.15-0.76.22-0.13L375.7,48.6s6-4.26,6.38-3.68c0,0-3.67,2.82-3.67,2.82,0.15,0.25.57-.58,0.68-0.39l-0.47.79,5.82-3.36a43.85,43.85,0,0,0-3.7,3.12s5.57-3.3,5.6-3.23-4.48,3.1-4.47,3.11,5.4-3.31,5.49-3.17-4.84,3.07-4.83,3.09c0.22,0.38,5.42-3.13,5.42-3.13s-3.55,2.89-3.53,2.91c0.15,0.26,5.23-3,5.23-3s-3,1.88-2.93,2l1.87-1.08c0.05,0.09-2.9,1.93-2.86,2s5.09-2.94,5.09-2.94-2.34,2.56-2.33,2.58c0.34,0.58.2-.32,0.29-0.17s1.79,0,1.79,0c0.18,0.31,4.4-2.54,4.4-2.54a31.72,31.72,0,0,0-2.82,2.41l4.21-2.43c0.06,0.1-3,2.36-3,2.36,0.25,0.44,4.05-2.47,4.11-2.37s-3,2.26-3,2.3c0.16,0.28,4-2.32,4-2.32S397,46,397,46c0.19,0.34,2.58-1.49,2.58-1.49l-1.35,1.79,3.71-2.14a33.46,33.46,0,0,0-2.94,2.1c0.3,0.52,3.44-2.46,3.65-2.11,0,0.07-1.73,1.91-1.69,2,0.19,0.33,3.21-2.49,3.49-2,0,0-1.35,1.92-1.34,1.93l3.29-1.9c0,0.06-1.94,1.85-1.91,1.89l3.19-1.84S406.86,46,406.88,46s2.84-2,3-1.74A27.8,27.8,0,0,0,407.45,46s2.77-2.06,3-1.71c0,0-2.46,1.68-2.45,1.71,0.23,0.4,2.86-1.81,2.93-1.69S408.85,46,408.85,46s2.7-1.94,2.87-1.66c0,0,1,.8,1,0.8s0.36-.81.62-0.36L412.59,46c0.15,0.26,2.31-2,2.6-1.5,0,0-.45,1.51-0.42,1.55,0.2,0.34,2.56-1.48,2.56-1.48s-0.44,1.51-.42,1.56,2.17-1.88,2.44-1.41c0,0.05-.84,1.42-0.81,1.48s2.32-1.37,2.34-1.35a21.84,21.84,0,0,0-1.75,1.37l2.3-1.33c0,0.05-1.63,1.32-1.61,1.35a14.82,14.82,0,0,1,2.25-1.3l0.6,0.79a1.59,1.59,0,0,1,.67-0.39l-1.16,1,2.1-1.21s-1.07,1.23-1.05,1.26a9.8,9.8,0,0,1,2-1.17L424,46.4s1.84-1.39,2-1.14c0,0,0,1.27,0,1.31a9,9,0,0,1,2-1.14l-1,1.23c0.1,0.17,2-1.18,2-1.15s-0.49,1.28-.49,1.28c0.21,0.36,1.78-1.48,2-1.14,0,0-.08,1.28-0.05,1.32l1.87-1.08s-0.66,1.16-.65,1.19,1.67-1.26,1.8-1l-0.82,1.13c0,0.08,1.64-1.19,1.74-1,0,0,.24,1.17.25,1.19l1.63-.94s-0.51,1-.5,1l1.57-.91s-1,1-1,1a10.74,10.74,0,0,0,1.58-.91s-0.22,1.1-.21,1.1,1.45-1.17,1.6-.92c0,0-.25,1.11-0.24,1.11s1.39-1.33,1.62-.93c0,0-.13.37-0.13,0.37,0.19,0.33.34-.23,0.35-0.2s-0.45.94-.43,1l1.64-.95-1,1a6.15,6.15,0,0,1,1.64-.94s-0.15,1.15-.15,1.15a5.89,5.89,0,0,1,1.56-.9s-1,1-1,1,1.32-1.25,1.53-.88l-0.36,1c0,0.09,1.4-1,1.47-.85s-0.38,1-.38,1c0.25,0.43,1.29-1,1.42-.82l0,1,1.35-.78s-0.36,1-.35,1,1.23-1,1.37-.79c0,0-1,.85-0.95.87l1.37-.79s0.12,1.07.13,1.08,1.24-1.07,1.4-.81L451,49.82c0.14,0.25,1.34-1,1.42-.82l-0.94.91,1.43-.82s0.36,1.13.39,1.17c0.19,0.32,1.23-1.23,1.46-.84,0,0-1.09.91-1.09,0.91s1.35-1,1.46-.84c0,0-.89.95-0.89,0.95l1.43-.83s0.06,1.09.07,1.11,1.22-1,1.37-.79l-1,.86c0.21,0.36,1.35-.78,1.35-0.78s-0.11,1-.11,1,1.12-1,1.29-.75c0,0-.18,1-0.17,1l1.27-.73-0.51.92a4.2,4.2,0,0,0,1.28-.74s0.29,1.1.29,1.11a5.94,5.94,0,0,1,1.3-.75s-0.76.85-.75,0.88,1.12-1.07,1.3-.75c0,0,.24,1.09.26,1.12a4.75,4.75,0,0,0,1.32-.76s-0.17,1-.16,1l1.33-.77-0.44,1s1.25-1,1.36-.78c0,0-.13,1.11-0.12,1.13s1.31-1,1.42-.82a11.69,11.69,0,0,0-.6,1s1.28-1.06,1.42-.82c0,0-.83,1-0.82,1,0.12,0.21,1.24-1.1,1.41-.81,0,0-.77,1-0.77,1s1.21-1.15,1.4-.81c0,0-1,.92-1,0.93s1.39-.83,1.4-0.81,0,1.19.06,1.21c0.23,0.4,1.39-.8,1.39-0.8s-0.05,1.17,0,1.19l1.39-.8s0.14,1.31.14,1.31c0.16,0.27,1.43-.93,1.47-0.85v1.34c0.21,0.37,1.48-.86,1.48-0.86s-0.8,1.06-.78,1.09a7.85,7.85,0,0,1,1.46-.84L476,56.1s1.31-1.07,1.44-.83l-1,1c0.15,0.26,1.27-1.1,1.43-.83,0,0-.47,1.14-0.47,1.14,0.19,0.34,1.28-1,1.41-.81L478.69,57c0.1,0.18,1.21-1.19,1.42-.82l-0.65,1.12s1.25-1.2,1.45-.84c0,0-.68,1.12-0.66,1.15a7.69,7.69,0,0,0,1.48-.86s-0.12,1.36-.1,1.4c0.2,0.35,1.35-1.17,1.51-.87,0,0-.35,1.3-0.32,1.34s1.44-.91,1.47-0.85-1,1-1,1,1.31-1.08,1.45-.84c0,0-.53,1.18-0.51,1.21l1.42-.82s-1,1-1,1c0.12,0.21,1.44-.83,1.44-0.83L485.94,60c0.17,0.29,1.26-1.23,1.48-.86,0,0-.19,1.43-0.16,1.46s1.36-1.18,1.53-.88c0,0-.79,1.2-0.77,1.23s1.35-1.25,1.55-.9c0,0-1.15,1.08-1.14,1.09a6,6,0,0,1,1.57-.91s-1,1.13-1,1.16a6.16,6.16,0,0,0,1.57-.91s-1.31,1-1.3,1,1.43-1.13,1.56-.9L490.3,62c0.25,0.44,1.35-1.17,1.52-.88,0,0-.73,1.28-0.71,1.32,0.18,0.3,1.36-1.23,1.55-.9l-1,1.22s1.46-1.1,1.57-.91c0,0-.53,1.45-0.51,1.49,0.25,0.44,1.62-.93,1.62-0.93s-0.86,1.33-.85,1.36,1.43-1.34,1.65-1c0,0-1,1.3-1,1.33s1.53-1.22,1.68-1c0,0-1.25,1.18-1.23,1.21s1.43-1.44,1.7-1l-1.31,1.19s1.52-1.32,1.71-1l-0.83,1.47c0.18,0.31,1.74-1,1.74-1s-1.19,1.31-1.18,1.33l1.74-1c0,0.06-1.09,1.42-1.08,1.43l1.78-1c0,0.05-1.27,1.36-1.27,1.36s1.81-1,1.81-1-0.86,1.65-.85,1.66,1.73-1.3,1.86-1.07L498.86,67c0.17,0.29,1.72-1.35,1.87-1.08l-1.18,1.53c0.18,0.32,1.86-1.19,1.91-1.1s-1.32,1.48-1.31,1.5,1.95-1.12,1.95-1.12l-0.91,1.8,2-1.16s-1.09,1.73-1.05,1.8a18.67,18.67,0,0,1,2.08-1.2s-1.75,1.42-1.72,1.48,2-1.51,2.13-1.23l-1.88,1.42,2.15-1.24s-1.39,1.79-1.35,1.85,2.19-1.3,2.21-1.28l-1.32,2c0.15,0.27,2.28-1.32,2.28-1.32l-2,1.52,2.3-1.33s-1.69,1.75-1.64,1.84a13.59,13.59,0,0,0,2.35-1.36c0,0.06-1.9,1.7-1.89,1.71s2.39-1.38,2.39-1.38-1.36,2.15-1.35,2.18a14.34,14.34,0,0,0,2.46-1.42S507.19,73,507.23,73a13.58,13.58,0,0,0,2.45-1.42,25.35,25.35,0,0,1-1.78,2c0.28,0.48,2.49-1.44,2.49-1.44s-1.93,1.94-1.92,2c0.24,0.42,2.29-1.92,2.55-1.47,0,0-1.65,2.29-1.64,2.3,0.19,0.32,2.5-1.76,2.63-1.52,0,0-2.32,1.78-2.28,1.84s2.53-1.79,2.67-1.54A27.31,27.31,0,0,0,510,75.5l2.69-1.56s-0.77,1.2-.77,1.2,0.25-.3.32-0.18-0.86,1.78-.83,1.84,2.5-2.05,2.76-1.59L512,77.39c0.17,0.29,2.73-1.63,2.75-1.59s-2.19,2.09-2.16,2.13,2.71-1.65,2.75-1.59-2.06,2.33-2.06,2.33c0.24,0.41,2.78-1.68,2.81-1.62s-2,2.5-2,2.54c0.17,0.3,2.91-1.68,2.91-1.68s-2.2,2.42-2.15,2.51l2.94-1.7c0,0.06-2.27,2.46-2.27,2.46a28,28,0,0,0,2.94-1.7s-2.35,2.5-2.35,2.5l3-1.74a33.72,33.72,0,0,1-2.56,2.37l3.08-1.78-2.42,2.68s3-2.18,3.17-1.83L518,84.51a32.84,32.84,0,0,0,3.29-1.9s0.11,0.74.11,0.74l0.19-.11s-2.33,2-2.33,2c0.26,0.45.47-.27,0.47-0.27S519,86.4,519,86.43s3.21-2.51,3.49-2c0,0-3,3-3,3.07,0.31,0.53,3.64-2.1,3.64-2.1s-3.52,2.41-3.52,2.41l3.71-2.14c0,0.06-2,2-2,2l1.32-.76s-2.6,2-2.6,2c0.29,0.5,3.84-2.53,4-2.29,0,0.06-2.41,1.93-2.39,2,0.31,0.54,2.33-2.07,2.64-1.53,0,0-3.85,2.88-3.83,2.92s4-2.72,4.15-2.4c0.09,0.16-4,3.32-3.89,3.49s4.25-2.8,4.4-2.54-4.4,2.89-4.3,3.06L525.39,89c0,0.06-4.33,3.72-4.33,3.72,0.1,0.18,4.83-2.79,4.83-2.79s-3.64,3-3.64,3c0.16,0.28,1.48-.86,1.48-0.86s-2.54,2.87-2.54,2.87,5.42-3.69,5.66-3.27c0,0-5.73,3.4-5.66,3.52s5.43-3.9,5.76-3.33c0.12,0.21-5.81,4.05-5.76,4.14s5.8-3.35,5.8-3.35-5.36,4.46-5.36,4.46,1.48-.87,1.48-0.86l1.34-.11s1.34-1.54,1.67-1c0.06,0.11-5.5,4.14-5.5,4.15L527,95.64c0.13,0.22-6.91,5.1-6.91,5.1,0.27,0.48,6.91-4,6.91-4s-7.56,4.95-7.39,5.25c0,0,7.39-4.27,7.39-4.27l-3.6,2.76s0.34-.76.58-0.34c0,0.05-5.49,3.38-5.36,3.59S527,98.91,527,98.91s-5,3.86-5,3.86a1,1,0,0,0,.62-0.36,20.37,20.37,0,0,1-1.49,1.44s1.17-1.41,1.49-.86c0,0-7.41,5.36-7.35,5.47s5.75-3.9,6-3.47c0,0-3.72,2.77-3.72,2.77,0.31,0.54,7.89-4.56,7.89-4.56,0.09,0.16-10.23,6.27-10.15,6.4s6.57-3.79,6.57-3.79"/><path class="a" d="M185.5,164.78c2.31,4,112.53-65.89,112.93-65.2,1.58,2.74-90.63,50.69-89.56,52.55,1.56,2.7,97.59-56.34,97.59-56.34,1.42,2.46-78.35,44.22-77.56,45.6l77-44.45s-41.37,24.28-41,24.94c0.56,1,39.79-23,39.79-23l-9.39,6.81s16.88-9.85,16.93-9.77L295.1,107.17c0.43,0.74,18.26-11.25,18.56-10.72,0,0-31.45,18.77-31.14,19.32,0.5,0.86,23.13-15.16,23.91-13.81,0.44,0.75-35.39,21.48-35.34,21.57L313,99.34c0.7,1.21-44.29,26-44.29,26,0.72,1.26,42.05-24.67,42.22-24.38,0.86,1.49-57.26,31.54-56.25,33.29,0.68,1.18,51.15-30.95,51.76-29.88L250.27,138c0.57,1,54.39-33.23,55.18-31.86,0.88,1.52-56.91,33.45-56.91,33.45,1.41,2.45,53.55-30.92,53.55-30.92,0.84,1.45-61.18,34.29-60.13,36.12,0.48,0.84,54-31.17,54-31.17,0.65,1.13-56.45,32.36-55.76,33.55,0.94,1.62,47.8-30.82,49.2-28.4,0,0-45.42,26.06-45,26.78l32.53-18.78c0.83,1.43-35.92,20.48-35.55,21.11l34.08-19.68c0.81,1.4-36.44,21.6-36.44,21.6,0.33,0.57,34.49-20.31,34.66-20,0,0-29,16.23-28.32,17.36l12.81-7.4c0.17,0.29-10.47,6.94-10.47,6.94l8.7-5c0.31,0.53-13.48,7.82-13.21,8.29,0.06,0.11,9.32-5.38,9.32-5.38s-11.68,7.16-11.43,7.6,6.88-4,6.88-4l-5.42,4.34,6.07-3.5s-4.36,3.36-4.25,3.55c0,0,2.72-2.15,3-1.72a24,24,0,0,0-1.88,1.94l6.66-3.85s-5.46,3.75-5.35,3.95c0,0,7.46-4.83,7.68-4.44l-5.35,4.31c0.37,0.64,8.63-5.08,8.68-5s-2.08,2.22-2,2.3l0.83-.48s-1.35,1.84-1.35,1.84,3.4-2.09,3.45-2,0.58,0.1.58,0.1c0.25,0.43,1.24-1.29,1.49-.86,0,0.07,2.3,0,2.31,0,0.39,0.67,1.27-1.73,1.7-1,0,0,2,.19,2,0.19s1.85-1.36,2-1.14c0,0,1.29.26,1.29,0.27s4.65-3.41,5-2.86c0,0-.45,1.58-0.45,1.58s1.61-1.43,1.83-1.05c0,0.07-1.52,1.66-1.49,1.72s3.52-3.12,4-2.3c0,0,1.67.36,1.69,0.39l3.73-2.15,0.65,0.88c0,0.08,4.41-2.94,4.58-2.65,0,0,.87-0.08.87-0.08s5.13-3,5.14-3l-4.12,2.81c0.15,0.26-.13-1.2.42-0.24,0,0,1.57.27,1.58,0.28s4.83-3.38,5.08-2.93c0,0-.71,1.58-0.7,1.6L315.2,129s-20.56,12.2-20.39,12.49c0,0,23.39-15.17,24.11-13.92,0,0-16.17,10.1-15.89,10.58,0.49,0.84,19.3-12.72,20-11.54,0.21,0.37-19.7,12.4-19.58,12.61,0.8,1.38,27-15.6,27-15.6s-23.51,14.19-23.51,14.19c0.85,1.48,18.65-10.77,18.65-10.77l-15.34,9.83c0.19,0.33,25.82-14.91,25.82-14.91l-22.47,14s25.64-16.26,26.27-15.17c0.35,0.6-23.91,13.1-23.44,13.91,0,0,19.39-12.07,19.77-11.41,0,0-19.27,11.19-19,11.7,0.38,0.67,21.6-13,21.81-12.59,0.13,0.22-20,11.83-20,11.86,0.74,1.29,17.57-11.45,18.14-10.47,0,0-8.49,5.45-8.42,5.57s17.59-11.51,18.18-10.49c0.25,0.43-19.38,12.32-19.38,12.32s20.06-13,20.67-11.93c0,0-12,6.93-11.75,7.33L349.65,119c0.19,0.33-13.73,7.92-13.43,8.43,0.18,0.32,9.68-7.33,10.44-6,0,0-13.57,7.74-13.37,8.08,0,0,21.93-14.13,22.57-13,0.25,0.43-16.39,9.7-16.16,10.09,0,0,11.52-7.22,11.77-6.8s-10.61,7.06-10.61,7.06l17.55-10.13-14.93,9.75c0.79,1.36,20.09-13,20.71-12,0.23,0.4-16.23,10.34-16.23,10.34s15.3-9.06,15.4-8.89l-18.74,11.76s25.14-14.56,25.16-14.53c0.33,0.56-15.45,9.67-15.45,9.67,0.27,0.47,18-10.37,18-10.37s-15.64,9.84-15.53,10c0,0,12.62-8.95,13.34-7.7,0,0-12.24,7.62-12.1,7.85L374.69,113s-16.26,9.82-16.06,10.16L377,112.53c0.2,0.35-19.89,11.62-19.69,12,0.05,0.09,20.77-13,21.19-12.24,0,0-20.71,11.67-20.47,12.09l21.07-12.17c0.34,0.6-19.42,10.84-19.09,11.41,0,0,18-10.46,18-10.39s-20,12.16-20,12.22c0.16,0.28,22.47-13,22.47-13,0.33,0.57-14.61,9-14.37,9.4,0,0,16.84-11.06,17.42-10.06,0.41,0.7-21.73,12.88-21.43,13.4S383.31,113,383.31,113s-15.88,10.23-15.76,10.44,13.49-8.74,13.9-8l-13.64,9.17c0.23,0.4,15.44-8.91,15.44-8.91s-9.39,5.72-9.19,6.07c0,0,11.28-8.1,12-6.91,0,0-15.32,9.33-15.2,9.54,0.62,1.08,15.26-8.81,15.26-8.81s-9.2,6.16-9.2,6.16c0.12,0.2,9.65-5.72,9.71-5.61s-5.52,3.76-5.52,3.76c0.55,1,5.23-4.31,5.79-3.34,0.09,0.16-8.93,6.26-8.93,6.26s5.34-3.82,5.66-3.27c0.1,0.17-6,4.09-5.91,4.27,0,0,5.8-4.2,6.17-3.56,0,0.09-3.31,3.25-3.31,3.25s5.63-3.62,5.79-3.34-3.58,3.1-3.58,3.1,5.49-3.17,5.49-3.17-3,2.9-3,2.9l5.16-3s-3.84,2.74-3.78,2.83,5-2.88,5-2.88-3.9,2.76-3.9,2.76l4.84-2.79c0.05,0.09-3.7,2.51-3.62,2.66,0.31,0.53,4.7-2.71,4.7-2.71s-4,2.64-4,2.64,4.66-2.69,4.66-2.69-2.66,2.37-2.61,2.46c0.22,0.39,4.47-2.73,4.54-2.62l-3.45,2.5,4.47-2.58c0,0.06-3.6,2.49-3.6,2.49s4.35-2.68,4.42-2.55-2,2.19-2,2.28,3.93-3,4.25-2.46c0,0.06-1.6,2.1-1.56,2.16,0.13,0.23,4-2.39,4.07-2.35s-1.67,2.07-1.66,2.08c0.28,0.49,3.91-2.26,3.91-2.26l-2.69,2.12,3.82-2.21s-1.92,1.91-1.87,2l3.47-2c0,0.06-1.42,1.85-1.42,1.85,0.14,0.24,3.21-1.85,3.21-1.85s-0.63,1.66-.63,1.67a26.43,26.43,0,0,1,2.9-1.67s-1.61,1.53-1.58,1.58a17.77,17.77,0,0,1,2.74-1.58s-1.76,1.48-1.74,1.51a21.73,21.73,0,0,0,2.62-1.52s-1.12,1.35-1.09,1.41l2.35-1.36s-1.67,1.32-1.67,1.32c0.22,0.39,2-1.6,2.22-1.28,0,0-.81,1.24-0.78,1.28,0.16,0.28,2-1.29,2.07-1.2s-0.4,1.2-.4,1.2c0.12,0.2,1.89-1.09,1.89-1.09s-0.53,1.06-.51,1.09a7,7,0,0,0,1.74-1l0.3,1a8.41,8.41,0,0,1,1.52-.88s-0.35.86-.34,0.88,1.16-1.2,1.39-.8l0.69,0.9c0.11,0.19,1-.83,1.12-0.65l0.41,0.76,1-.57s0.81,0.7.81,0.7l0.82-.48s0.13,0.55.13,0.55,0.72-.46.74-0.43,1.31,0.56,1.32.58a2.52,2.52,0,0,1,.56-0.32s1.19,0.49,1.19.51c0.12,0.21.23-.49,0.39-0.22l0.61,0.4c0.1,0.16.33-.25,0.35-0.2l0.71,0.54c0.1,0.17.41-.24,0.41-0.24s0.88,0.86.88,0.86l0.64-.37s-0.15.66-.14,0.67,0.58-.73.75-0.43l-0.55.63c0.22,0.38.87-.5,0.87-0.5s-0.44.92-.42,0.94l1.06-.61s-0.52,1.26-.52,1.26a7,7,0,0,0,1.36-.78s-0.86,1.76-.82,1.83l1.83-1.06s-1.75,1.28-1.72,1.32c0.12,0.21,1.95-1.13,1.95-1.13L437.25,126s2.48-1.5,2.51-1.45l-2.48,2s2.5-2,2.75-1.59c0,0.08-2.85,2.07-2.85,2.07a22.79,22.79,0,0,0,3.07-1.77s-3.58,3-3.57,3c0.3,0.52,4-2.34,4-2.34s-4.92,3.21-4.86,3.32,5-2.91,5-2.91c0.21,0.37-11.48,7.73-11.48,7.73s5.44-3.38,5.54-3.2c0,0-32.52,18.93-32.3,19.3,0,0,32.19-18.66,32.22-18.6S407,148,407.26,148.41L439.08,130s-34.15,19.69-34,20c0.88,1.52,30.82-20.42,32-18.45,0.18,0.31-36.33,20.34-35.69,21.44,0,0,38.06-22.37,38.23-22.07,0,0-37.47,22.48-37.3,22.78l32.17-18.57c0.08,0.14-34.63,20.82-34.63,20.82,1,1.74,40.24-23.23,40.24-23.23,0.72,1.24-33.12,18-32.44,19.15,0,0,25.72-15.33,25.93-15l-28.31,16.75c0.82,1.42,28.06-16.81,28.33-16.35,0,0-31.24,18.76-31,19.09,0,0,30-19.23,30.82-17.8,0.26,0.45-29.41,17.28-29,18.07l31.21-18c0.26,0.45-25.14,15-24.75,15.67,0.76,1.32,21.72-12.54,21.72-12.54,0.29,0.5-26.34,15.84-26.3,15.9,0.38,0.65,23.86-13.78,23.86-13.78s-17.2,10.27-17.13,10.4,9.79-6.12,10-5.77c0,0-13.45,8.69-13.35,8.86,0,0,5.43-3.94,5.78-3.34,0,0-4,3.15-4,3.15,0.36,0.63,6.83-4.44,7-4.07l-7.12,5.28c0.46,0.79,11.11-7.43,11.55-6.67,0.08,0.13-8.2,6-8.13,6.07s12.34-7.86,12.66-7.31c0.12,0.2-11.41,7.17-11.36,7.25,0.15,0.26,9.17-5.29,9.17-5.29s-5,3.93-4.93,4.14,8.59-5.31,8.74-5c0,0-1.84,1.86-1.81,1.93s8.49-6.29,9.09-5.25c0.08,0.14-6.86,5-6.71,5.22s11.29-8.26,12-7c0,0-10,6-10,6L443,146c0.14,0.24-9.82,6.22-9.7,6.41,0,0,13.49-9.47,14.22-8.21,0,0-13.49,8.38-13.49,8.38s14.75-10.13,15.45-8.92c0.29,0.5-15.17,8.8-14.92,9.25,0.86,1.5,17-9.84,17-9.84,0.15,0.26-11.44,6.94-11.38,7,0.69,1.19,20.55-11.87,20.55-11.87s-20.39,12.86-20.32,13,22.07-12.94,22.16-12.79l-21.1,12.71c0.39,0.68,23.82-13.75,23.82-13.75S448.83,147.92,448.9,148c0.46,0.79,29.95-17.38,30-17.31s-32,18.89-31.72,19.39c0,0,78.68-46.29,79.06-45.64,1.38,2.39-70.11,41.88-70.11,41.88,1.66,2.87,63.57-38.53,64.36-37.16,1,1.71-61.72,35.92-61.72,35.92,0.24,0.42,57-36.89,58.75-33.92,0.6,1-56.4,32.23-56,33,0.76,1.32,62.61-37.78,63.32-36.56,0,0-65.19,35.53-63.92,37.73,0.69,1.19,61-36.94,61.75-35.65,0.86,1.5-56.85,33.16-56.85,33.16,0.22,0.38,50.31-29.11,50.34-29.07,0.79,1.36-48.39,28.42-48.39,28.42,1.37,2.36,50.29-32.66,51.86-29.94,0.31,0.54-50.91,28.56-50.1,30,1.14,2,47.57-27.47,47.57-27.47,0.34,0.59-41,22.47-40.1,24.05,0.73,1.27,38.44-23,38.78-22.39,0,0-37.18,21.86-37.12,22l33.75-19.49c0.57,1-24.9,14.16-24.51,14.83,0,0,27.36-16.06,27.47-15.86l-30.06,17.88s32.93-20,33.36-19.26c0.22,0.39-27.64,16.59-27.64,16.59,0.26,0.44,22.8-13.16,22.8-13.16,0.25,0.43-16.76,9.5-16.54,9.88l11.24-6.49-11.1,6.78s13.25-9.43,14-8.09c0.17,0.29-15.1,8.9-15,9.14,0.35,0.61,14.75-8.62,14.79-8.54s-7.74,5.17-7.65,5.32c0.4,0.69,7.52-4.34,7.52-4.34"/><path class="a" d="M247,49.78c0.13,0.22,0,0,0,0l0.4,0.79,0.15-.09s0.08,0.73.08,0.73,0.21-.42.34-0.2c0,0-.22.56-0.21,0.57s0.36-.43.45-0.26-0.32.66-.32,0.66,0.4-.63.57-0.33c0,0-.34,1.1-0.34,1.1,0.18,0.3.65-.63,0.76-0.44,0,0-.5,1.63-0.48,1.66s0.74-.94,1-0.56c0,0-.89.89-0.89,0.91l1-.59s-1,1-1,1.06,1-.88,1.13-0.65c0,0-1,1.69-1,1.69,0.1,0.17,1.19-.91,1.29-0.74s-1.21,1.24-1.21,1.24c0.2,0.35,1.31-.76,1.31-0.76s-1.37,1.27-1.36,1.28c0.2,0.34,1.45-.84,1.45-0.84l-1.55,1.33c0.22,0.37,1.58-1,1.62-.94s-1.94,2.39-1.92,2.44c0.19,0.34,2.15-1.24,2.15-1.24s-2.28,1.82-2.27,1.84,2.12-1.66,2.31-1.33L248,60.79s2.3-2,2.58-1.49c0,0-2.68,1.9-2.67,1.92,0.2,0.34,2.67-1.54,2.67-1.54l-2.94,2.91c0.11,0.2,3-1.7,3-1.7s-3.47,3.1-3.39,3.24a33.2,33.2,0,0,0,3.29-1.9s-3.82,3.34-3.77,3.43,3.34-2.5,3.59-2.07a41.13,41.13,0,0,0-3.73,2.51c0.15,0.26,3.37-2.66,3.68-2.12,0.07,0.13-3.8,2.53-3.8,2.53a36,36,0,0,1,3.76-2.17s-4,2.81-4,2.86c0.31,0.53,3.75-2.5,3.89-2.25,0,0-3.48,3.27-3.47,3.28a2.67,2.67,0,0,0,.83-0.48,22.22,22.22,0,0,0-1.9,1.47c0.06,0.11,4.12-2.38,4.12-2.38,0.11,0.19-4.56,3.36-4.56,3.36s4.35-2.51,4.35-2.51c0.09,0.15-5.15,4.31-5.15,4.31s4.56-3.1,4.76-2.75c0.09,0.15-5.29,3.94-5.29,3.94l5-2.91C248.9,70.34,243,75,243,75s5.4-3.16,5.42-3.13-5.94,4.1-5.94,4.1c0.19,0.33,5.64-3.26,5.64-3.26s-5.9,3.71-5.9,3.71L248,73.13c0.05,0.09-6.24,3.88-6.15,4l5.94-3.43c0,0.07-6.63,4.66-6.63,4.66,0.23,0.4,6.17-3.77,6.26-3.61s-6.85,4.15-6.7,4.4c0,0.09,6.46-3.73,6.46-3.73s-7.61,5.24-7.45,5.5c0,0,6.81-4.18,6.92-4,0,0-7.57,5-7.52,5.08s6.81-4.68,7.14-4.12c0.14,0.24-6.86,4.65-6.85,4.65s4.61-3,4.73-2.73c0,0-.3,1.2-0.29,1.22,0.17,0.29.61-1.26,1-.58,0,0.06-8.06,5.18-8.06,5.18s8-4.76,8-4.65l-8.41,5.2c0.1,0.18,8.05-5,8.2-4.73,0,0-5.75,3.57-5.68,3.7s1.29-1.14,1.47-.85c0,0-5,3.68-4.83,3.89l4.58-2.65-1.71,1.6s0.16-.33.26-0.15c0,0-.66.68-0.66,0.69,0.21,0.37.22-.55,0.4-0.23a22.2,22.2,0,0,0-1.6,1.85s0.44-1.17.83-.48l-1.62,1.55c0.39,0.68,1.12-.64,1.12-0.64s-0.82,1.69-.78,1.76a8.53,8.53,0,0,0,.94-0.54c0.19,0.34-8.38,6.13-8.38,6.13s3.52-2.95,3.92-2.26l-0.24.61,1.44-.83s-0.72,1.12-.72,1.13c0.17,0.3.13-.38,0.27-0.15,0,0-4.26,3.12-4.2,3.23,0.21,0.36,2.77-2.28,3.07-1.77,0,0.07-5.24,4.3-5.24,4.3,0.15,0.26,3.66-2.12,3.66-2.12s-5.79,4.28-5.69,4.45c0.35,0.6,3.87-3.09,4.24-2.45,0,0-6.78,4.77-6.69,4.93,0.44,0.76,5.47-4.24,5.94-3.43,0.06,0.11-5.13,3.65-5,3.86s5.61-3.24,5.61-3.24L222.65,108a35.58,35.58,0,0,0,3.94-2.28c0.09,0.15-5.74,3.57-5.71,3.61,0.17,0.29,6.07-3.76,6.18-3.57,0,0-5.23,3.18-5.17,3.28l1.31-.76s-10.69,7.32-10.62,7.44,7.38-4.94,7.68-4.43c0.06,0.11-9.22,6.24-9.22,6.25,0.16,0.28,11.39-7.3,11.7-6.76,0.13,0.22-11.94,7.93-11.81,8.15,0,0.07,8.15-5.32,8.41-4.86,0,0.07-6.07,4-6.05,4s6.63-5.07,7.17-4.14c0,0.08-8.84,6-8.69,6.26,0,0.08,3.17-1.83,3.17-1.83s-5.44,3.68-5.44,3.68,4.95-3.62,5.28-3c0.17,0.29-8.55,5.91-8.41,6.15,0,0,4.07-3.2,4.44-2.56,0.2,0.35-9.51,6.84-9.51,6.84l9.52-5.5c0.15,0.26-6.85,4.65-6.85,4.65,0.61,1.05,2-2,2.41-1.39,0,0-12.15,7.31-12.05,7.47,0,0,14.71-8.7,14.8-8.55,0,0-15,9.52-14.82,9.75,0,0,10.65-7.08,11.06-6.38,0.14,0.24-9.22,6.13-9.06,6.42l6.81-3.93c0.32,0.55-17.9,11-17.64,11.43l13.84-8-17.73,11.24s16.76-10.1,16.94-9.78l-13.23,8.41c0.27,0.48,11.51-7.17,11.74-6.78,0.35,0.61-16.75,10.13-16.42,10.71,0.43,0.75,11.45-7.88,12-6.93l-20.17,12.9c0.8,1.38,21.9-12.64,21.9-12.64,0.37,0.65-20.34,11.56-19.93,12.26,0.7,1.21,15-10.52,15.83-9.14,0.22,0.37-20.29,12.42-20.22,12.54,0.19,0.32,18.14-10.48,18.14-10.48,0.23,0.4-21.93,12.54-21.69,13,0,0,15.61-10,16.06-9.27,0.18,0.32-15.78,9.77-15.69,9.93,0.72,1.26,12.54-7.24,12.54-7.24"/><path class="a" d="M223.71,47.18c0.31,0.54.68-.69,0.8-0.46,0,0,1.28-.18,1.3-0.15s2.49-1.89,2.69-1.55c0,0-.45,1-0.43,1a17.05,17.05,0,0,0,1.73-1l0.68,0.65a4.08,4.08,0,0,1,1.07-.62l0.27,0.43a1.21,1.21,0,0,1,.69-0.4l0.76,0.31c0.12,0.21.45-.29,0.47-0.27"/><path class="a" d="M192.31,211.73c0,0.07.13-.07,0.13-0.07l-0.28,1.25c0.17,0.29.22-.53,0.4-0.23,0,0-.79,1.47-0.79,1.47,0.18,0.3.8-.46,0.8-0.46s-1.06,1.17-1,1.21,0.89-.87,1-0.6l-1.49,1.82s1.33-1.13,1.49-.86c0,0-1.74,1.24-1.72,1.29,0.12,0.2,1.72-1,1.72-1s-2.17,1.82-2.16,1.84l2.08-1.2s-2.9,2.73-2.9,2.73,2.58-1.74,2.69-1.55-3.17,2.14-3.14,2.18l3.07-1.77-4.45,3.68s4.1-2.68,4.24-2.45-6.9,5.06-6.79,5.26l6.23-3.6c0,0.05-5.3,4-5.21,4.11,0.32,0.56.35-.2,0.35-0.2l0.2,0.16c0.07,0.12.25-.22,0.28-0.16s-6.46,4.55-6.4,4.67a6.85,6.85,0,0,1,1.46-.85l-0.88.91c0.47,0.81,1.81-1,1.81-1"/><path class="a" d="M144,174.83l0.86-.49s7.68-3.29,7.68-3.29l24.32-14s-23.72,14.16-23.52,14.52c0,0,22.46-14.48,23.11-13.34,0.19,0.33-26.65,16.65-26.65,16.65,0.94,1.62,22.5-13.71,22.81-13.17s-24.13,14.56-24.13,14.56l28.71-16.57-24.69,14.71s22.74-14.91,23.51-13.57c0,0-23,13.87-22.93,14,0.45,0.78,30.49-19.43,31.28-18.06,0.17,0.29-36.51,20.46-35.85,21.61l59.82-34.54-59.24,34.87c0.17,0.29,70-40.44,70-40.44s-67.84,38.1-67.2,39.2c0,0,72.62-42,72.67-42l-72,42.87,104.31-60.22L149.81,180.81c1.25,2.16,123.42-71.26,123.42-71.26,1.33,2.31-115.11,67.3-115.11,67.3s123-74.32,124.42-71.83l-131,76,135-78L156.38,179.52c0.45,0.77,137.24-80.45,137.77-79.54,1.14,2-136.46,76.2-135.06,78.61,0,0,137-85.61,139.85-80.74,1.28,2.22-143,77.82-140.82,81.57,1.39,2.4,138.63-80,138.63-80,1.23,2.13-134.54,78-134.54,78l133.53-77.09c3.17,5.49-142,75.8-139.19,80.69,0.23,0.41,4.63-3.45,5-2.87,0.05,0.09-3.83,2.83-3.76,3a15.72,15.72,0,0,0,2.54-1.47l-0.45,1.63c0.12,0.21.21-.49,0.37-0.21,0,0,0,.24,0,0.24s-0.08-.17,0,0"/><path class="a" d="M238.24,11.19c0.11,0.2.31-.18,0.31-0.18s-0.33.74-.32,0.76l0.48-.27S238,12.94,238,13a2.78,2.78,0,0,0,1-.56s-1.17,1.39-1.17,1.39a5.19,5.19,0,0,1,1.28-.74l-1.39,1.2c0.13,0.23,1.16-1.26,1.42-.82,0,0.06-1.55,1.36-1.55,1.36s1.39-1.24,1.58-.91A30,30,0,0,0,237,16.35L239.28,15s-2.48,1.6-2.44,1.67c0.26,0.45,2.46-1.42,2.46-1.42l-1.15,2c0.14,0.23.71-.41,0.71-0.41s-4,3.42-3.94,3.52a37.28,37.28,0,0,0,4-2.32s-4.76,3.35-4.67,3.49c0.32,0.55,4.43-2.56,4.43-2.56s-5.82,4.63-5.76,4.74l5.23-3c0.1,0.18-5.74,3.79-5.74,3.79,0.25,0.44,5.44-3.41,5.56-3.21,0,0-3.08,2.11-3,2.21l0.76-.44-0.18.76c0.08,0.13,1.16-1.18,1.38-.8l-4.28,3.26c0.15,0.26,1-.57,1-0.57s-4.46,3.35-4.46,3.35c0.09,0.16,7-4.49,7.17-4.14,0.07,0.12-7.8,4.93-7.8,4.93,0.26,0.44,7.41-4.28,7.41-4.28,0.1,0.18-8.26,5.35-8.26,5.35,0.35,0.61,7.68-4.43,7.68-4.43,0.2,0.34-8.56,5.76-8.44,5.95l7-4.07-4.65,3c0.12,0.2.27-.16,0.27-0.16s-5.88,4-5.78,4.13c0.25,0.43,2.86-1.94,3-1.72s-4.09,3-4.09,3,7.66-5,7.91-4.57"/><path class="a" d="M151.58,21.84S173.26,7.08,174.23,8.76c0.23,0.4-11.63,8-11.63,8,0.3,0.51,11.77-7.64,12.14-7C174.8,9.84,164,16.49,164,16.49c0.5,0.87,18.28-10.76,18.37-10.6,0,0-10.05,6-9.88,6.29s4.35-2.51,4.35-2.51-1,1.88-1,1.89c0.58,1,11-7.63,11.52-6.65,0.08,0.13-3.2,2.53-3.18,2.56,0.23,0.4,3.54-2,3.54-2a25.52,25.52,0,0,1-2.11,2c0.44,0.76,7.19-4.15,7.19-4.15s-7.35,4.51-7.31,4.58c0.22,0.38,8.36-5.26,8.55-4.94l0.61,0.52c0.44,0.76,0-.26.09-0.05,0,0-1.81,1.27-1.78,1.31,0.17,0.29,0,0,0,0s0.81,0.91.81,0.91,6.22-4.37,6.56-3.79c0,0.06-4.25,3.14-4.23,3.19,0.12,0.2,5.69-3.65,5.85-3.38C202.07,1.7,199.87,4,199.87,4s4.66-2.69,4.66-2.69-1,1.82-1,1.86A37.24,37.24,0,0,1,207,1.24s-1.27,1.51-1.26,1.54c0.23,0.39,2.51-2,2.77-1.6l0.65,0.94a8.36,8.36,0,0,1,1.78-1l1.34,0.6c0.23,0.4.68-.87,0.89-0.51,0,0,1.25.23,1.27,0.26,0.23,0.4.17-.44,0.32-0.18"/><path class="a" d="M175.59,62.57l5.85-3.38L163.82,70.39c0.87,1.51,27-15.6,27-15.6s-22.21,13-22.08,13.24c1.09,1.88,27.88-16.09,27.88-16.09L166,70s36.57-23.06,37.41-21.6c0.74,1.28-45.21,25.79-44.86,26.4,1.65,2.86,66.58-38.44,66.58-38.44,1.29,2.24-69.57,40.43-69.12,41.19,0.82,1.42,66.24-42.29,68-39.25L151.38,80.82C152.3,82.41,221,40.64,221,40.64c0.3,0.51-77.79,42.53-76.22,45.26,0,0,71.67-42.1,72-41.56,1.31,2.27-67.84,38.9-67.45,39.57,0,0,66-42.6,68-39.24,0,0-75.7,44.58-75.7,44.58,0.83,1.43,80.72-46.61,80.72-46.61C222.72,43.39,141,89.86,141,89.86c1.69,2.92,77.34-46.9,78.31-45.21C220.74,47.16,144,88.89,144,88.89l75.82-43.78s-79.56,46-79.27,46.49c0,0,79.1-47.11,79.73-46,1.08,1.87-80.81,44.67-79.73,46.55,0,0,75.29-46.42,76.57-44.21,1.13,2-84.42,47.65-83.59,49.08,0,0,83-51.49,84.55-48.81,1.1,1.91-90.66,53.13-90.66,53.13,1.78,3.08,90.5-52.25,90.5-52.25,0.55,1-93.67,52.31-92.53,54.29L198.94,60.9s-71.37,39.54-70.39,41.24c1.78,3.08,72.89-43.62,73.56-42.47,1.07,1.85-79.15,43.56-77.86,45.79,0.21,0.37,69.59-41.54,70.18-40.52l-80.29,47c0.8,1.39,76.16-44,76.16-44,1.64,2.84-80.39,45.28-79.47,46.88,0,0,73.35-45,74.48-43,0,0-81.12,44.13-79.72,46.55,0,0,79.66-51.19,81.91-47.29,1.19,2.06-85.26,49.59-85.26,49.59l81.31-46.95"/><path class="a" d="M58.37,144.39s0-.13,0,0L58.66,145l1-.57L58.77,146l4-2.28s-2.34,1.86-2.31,1.92c0.18,0.31,5-3.24,5.13-3L64,144.26c2.89,5,111.45-65.53,112-64.64"/><path class="a" d="M46.89,137.74a4.3,4.3,0,0,0,1-.6s-0.1.83-.1,0.83a0.58,0.58,0,0,1,.37-0.21s0.07,0.36.08,0.37-0.09-.39.1-0.06"/><path class="a" d="M76.72,95.88c0.69,1.2,44.29-25.74,44.36-25.61C121.76,71.44,88,89.61,88.14,89.82s37.81-25,39.18-22.62L88.34,90s36.34-21.84,36.71-21.19c0.16,0.28-23.53,14.64-23.53,14.64s34.66-20.89,35-20.23c0.18,0.32-17.34,10.62-17.08,11.07C120,75.17,140.68,61.78,140.81,62s-10.58,7.11-10.47,7.3c0.27,0.46,11.6-7.1,11.78-6.8s-4.4,3.79-4.34,3.9l14.91-8.61c0.43,0.75-21.68,12.73-21.46,13.11L148.9,60.7C149,60.8,96.17,91.23,96.68,92.13c0,0,61.21-37,61.91-35.74,1,1.67-75.2,42.75-74.52,43.93s68.51-40,68.72-39.68c1.17,2-76.9,42.7-76,44.26C79,108.67,157,58.59,157,58.59S78.25,102,79.52,104.24l80.57-46.52s-81,44.59-79.66,47l80.35-46.39s-76.61,43-75.53,44.86c0.67,1.16,69.09-39.89,69.09-39.89"/><path class="a" d="M41.23,282.9c0.21,0.36.19-.3,0.27-0.16S43,283.2,43,283.2c0.13,0.23,1.2-.69,1.2-0.69l0.37,0.69,1.63-.94L47,283.2a15.7,15.7,0,0,0,2.29-1.32s-0.37,1.32-.37,1.32,2.77-1.71,2.82-1.63-2,1.63-2,1.63,2.89-2.19,3.11-1.8c0,0-.78,1.8-0.78,1.8,0.13,0.23,3.91-2.76,4.12-2.38,0,0-2.1,2.3-2.05,2.38L59.72,280s-4,3.17-4,3.21c0.14,0.25,6.65-3.89,6.68-3.85s-5.38,3.55-5.29,3.71l7.22-4.17s-6.3,3.71-6.19,3.9,4.55-2.62,4.55-2.62l1.66,0c0.07,0.13,2.55-2.33,2.92-1.69,0,0-3.73,3.44-3.72,3.45l8.32-4.8s-4.12,2.53-4,2.7c0.19,0.33.91-.58,0.93-0.54a9.28,9.28,0,0,0,.91-0.19s-0.24-.77.16-0.09c0,0,2.12-.82,2.12-0.82a1.84,1.84,0,0,0,.86-0.49l-0.09.86S73.57,277,74,277.8c0,0,1.12.65,1.14,0.69l1.29-.74s-2.85,2.09-2.82,2.14,6-4.25,6.31-3.65c0,0-3.32,3-3.32,3s10.2-5.89,10.2-5.89-7,4.84-7,5L90.79,272s-4.62,3.88-4.59,3.92S91,273.19,91,273.19l-0.82,1.69c0.22,0.38,5.21-3.76,5.54-3.2,0,0.07-3.59,2.19-3.52,2.33s3.87-3.54,4.44-2.56c0,0.05-2.7,1.79-2.67,1.84,0.34,0.58,8.38-4.84,8.38-4.84s-7,5.18-7,5.18c0.58,1,9.08-5.24,9.08-5.24s-3.9,3.46-3.84,3.56c0.61,1.06,12.25-7.07,12.25-7.07s-6.11,4.53-6,4.75c0.68,1.17,9.6-6.18,9.87-5.7,0.07,0.12-7.64,5.22-7.64,5.22,0.67,1.16,16.76-9.82,16.82-9.71s-12.7,8.18-12.61,8.33c0,0,21.34-14.44,22.26-12.85,0.33,0.57-22.94,12.89-22.51,13.63,0.53,0.92,24.41-15.41,25-14.42l-18.7,11.46c0.56,1,25.89-17.47,27-15.58,0.11,0.19-22.41,13.67-22.32,13.81l57.64-33.28c0.51,0.88-50.76,29-50.09,30.15,0.34,0.59,48.53-30.19,49.47-28.56,0.81,1.41-52.82,28.67-51.9,30.26s53.88-31.1,53.88-31.1c1,1.73-50.78,28-49.74,29.79l49.12-28.36s-44.61,24.42-43.59,26.18c0,0,39.39-25.12,40.42-23.34,0,0-28.22,16.15-27.67,17.11,1,1.7,21.31-14.31,22.18-12.81l-24.75,14.63s27.06-17.49,27.87-16.09c0.27,0.48-12.32,8.46-12.32,8.46l2.81-1.62"/><path class="a" d="M14.49,172l1.19-.68s-1,.78-0.94.81c0.11,0.2,2-1.2,2-1.18l1.85-.36s10.68-6.49,10.82-6.25-8.19,5.43-8.05,5.67c3,5.24,151.1-87.24,151.1-87.24,2.86,5-149.77,86.73-149.77,86.73,1.14,2,147.31-85,147.31-85,1.28,2.21-151.56,85.07-150,87.76,0,0,137.2-80,137.54-79.41,2.42,4.2-128,75.23-128,75.23S152,95.66,152.78,96.94c2.31,4-125.07,72.81-124.8,73.28l99.68-57.55S39,162.35,40.15,164.4l73.92-42.68L39.31,165.47c0.69,1.2,75.05-43.33,75.05-43.33C114.87,123,42.83,163,43.14,163.56s71.46-44.7,73-42.12c0.9,1.56-50,28.47-49.57,29.18l43.36-25s-35.39,20-34.82,21c0.7,1.21,29.65-17.12,29.65-17.12,0.33,0.57-31,18.79-31,18.79,0.21,0.36,29-16.72,29-16.72S79.28,146,79.28,146s21.24-13.38,21.72-12.54c0.32,0.55-24.72,13.44-24.16,14.4l26.74-15.44c0.38,0.67-27.86,15.41-27.39,16.21C76.81,149.71,97,134.41,98,136.05,98,136.19,73,150,73.53,150.88c0,0,29.71-18.49,30.29-17.49,0,0-27.05,15.55-26.7,16.16l18.83-10.87-19.3,11.84s23.09-15.28,23.93-13.82c0.41,0.72-24.29,14.39-24.29,14.39s22.84-13.21,22.85-13.19c0.22,0.38-19.67,11.1-19.44,11.5,0,0,13-7.49,13-7.49,0.32,0.55-16.62,9.65-16.42,10,0.77,1.33,20.51-11.84,20.51-11.84l-14.62,9.37c0.55,1,14.07-9.06,14.47-8.36,0.13,0.23-16.7,10.38-16.7,10.38s13.35-8.05,13.5-7.79L81.74,151c0.15,0.26,7.27-5,7.63-4.4,0.06,0.11-10.83,6.83-10.69,7.07,0.5,0.86,9.48-6.7,10-5.78,0,0-5.34,4.11-5.31,4.16,0.27,0.46,2.11-1.53,2.24-1.29,0,0.05-1.21,1.62-1.2,1.64a2.6,2.6,0,0,1,.72-0.42c0.06,0.1-5.31,3.67-5.31,3.67l2.71-1.56s-1.32,1.17-1.32,1.18,2.75-2,2.91-1.68c0,0-9.14,6.52-9.12,6.57l5.75-3.32s-3.44,2.56-3.36,2.7c0.5,0.87,3.08-2,3.18-1.83l-2.64,2.75,2.93-1.69s-3.72,2.71-3.71,2.72l5.1-2.94-9.12,5.83s5.71-3.75,5.91-3.41c0,0-1.48,1.57-1.48,1.57,0.21,0.36,6.26-4.61,6.69-3.86,0,0-8.63,5.19-8.48,5.45l5.07-2.93s-9.62,5.83-9.4,6.21c0.48,0.84,14-9,14.42-8.33,0,0-9.85,5.83-9.79,5.92l9.5-5.48S70.85,168.29,71,168.64c0.36,0.63,16.56-9.56,16.56-9.56S72,169.28,72.07,169.34c0.36,0.62.37-1.23,0.81-.47,0,0.05-3.21,2.68-3.13,2.81,0.39,0.68,1.94-2.11,2.37-1.37,0,0-4.45,3.27-4.45,3.27,0.12,0.22,1.59-.92,1.59-0.92s-6.92,4.57-6.8,4.79c0,0,8.25-4.95,8.33-4.81s-5.63,4.2-5.5,4.43c0.34,0.59,1.38-1,1.46-.84L63,179c0.06,0.1,7-4.06,7-4.06s-6.38,4.37-6.28,4.53c0,0,1.06-1.17,1.3-.75,0,0-2.69,2.76-2.66,2.8s1.16-.69,1.17-0.67l-3.43,3.28s4.45-3.55,4.87-2.81c0,0-5.54,3.5-5.41,3.71,0,0,1.89-1.11,1.9-1.09a19.36,19.36,0,0,1-1.66,1.51c0.14,0.24.88-.76,1-0.57s-2.13,2.34-2.13,2.34l0.91-.53-1.48,2.1c0.22,0.38,1.65-1.5,1.89-1.09,0.08,0.14-7.1,5.07-7,5.29s0.89-1.49,1.31-.76l-2,1.56c0.06,0.1,4.29-2.48,4.3-2.48s-4.15,2.62-4.13,2.65c0.35,0.61,6-4.49,6.44-3.72L51,195.69c0.34,0.59,2.23-1.43,2.29-1.32s-0.4,1-.4,1c0.2,0.35,4-2.31,4-2.31s-4.1,3.35-4.1,3.35,0.45-.29.46-0.27-1.36,1.63-1.34,1.68c0.17,0.29,0-.92.42-0.24,0.08,0.14-5.27,4.12-5.26,4.13s2-1.55,2.14-1.23c0,0,1.39-.53,1.39-0.53s-0.06-.93.36-0.21a20.66,20.66,0,0,1-1.27,1.71s0.09-.53.29-0.17c0,0-.85,1.08-0.84,1.11s0-.47.2-0.12l-0.65.89s0-.36.13-0.08c0,0-.62.89-0.61,0.9l0.05,0,1.3-.42c0.13,0.22.72-.42,0.72-0.42l-7.14,4.61c0.16,0.27,8.38-5.52,8.68-5,0,0-9.15,5.32-9,5.57l8.66-5c0.15,0.26-8.2,5.79-8.2,5.79,0.41,0.71,3.44-2,3.44-2s-1.58,1.44-1.55,1.49c0.23,0.4,2.17-2.17,2.56-1.48,0.14,0.23-7.51,5.29-7.39,5.49l8.58-5s-9,5.59-9,5.68,8.45-5,8.51-4.91-8.93,5.71-8.93,5.71S47.81,209,48,209.29s-8.18,5.45-8.18,5.45,2.69-1.61,2.72-1.57-0.79,1-.79,1,0.35-1.09.74-.43c0,0-4.57,3.51-4.55,3.55,0.36,0.63,8.13-4.69,8.13-4.69s-7.23,4.46-7.2,4.5c0.34,0.59.1-.48,0.28-0.16l-2.36,2.56c0.24,0.42,7.94-4.58,7.94-4.58s-8.39,5.45-8.39,5.45l7.93-4.58c0.18,0.31-8.25,4.81-8.15,5,0,0,7.7-5,7.92-4.57L40.66,219c0.06,0.11,1.84-2,2.24-1.3,0.07,0.13-8.28,5.83-8.24,5.91,0.3,0.51,7.41-5,7.71-4.45,0.11,0.19-8.09,5.27-8.09,5.27l7.63-4.4-4.19,3.58,2.5-1.45c0.06,0.1-7.17,4.29-7,4.56s7.32-4.39,7.39-4.27c0.2,0.34-8.42,5.91-8.28,6.17,0,0,6.82-4.8,7.19-4.15,0.1,0.17-7.64,4.8-7.56,4.94s7.11-4.11,7.11-4.11-7.72,5.27-7.68,5.33,6.83-4.31,7-4c0,0-7.37,4.84-7.35,4.87s6.59-4.59,6.93-4l-7.56,5.6c0.33,0.56,6.76-3.9,6.76-3.9s-7.34,4.83-7.21,5c0.22,0.38,6.63-3.83,6.63-3.83l-7.1,5.46c0.18,0.32,2.91-1.68,2.91-1.68s-3.7,3.2-3.69,3.21c0.11,0.19,6.16-3.85,6.28-3.63s-6.83,5-6.83,5c0.34,0.59,6.11-3.59,6.13-3.54s-6.31,4-6.31,4,5.75-4.1,6.09-3.51c0.08,0.14-6.68,5-6.68,5s5.86-3.52,5.92-3.42-6.23,4-6.16,4.15c0.26,0.46,5.77-3.33,5.77-3.33s-6.12,4.33-6.1,4.35,5.55-3.21,5.55-3.21l-5.68,3.6c0.23,0.39,5.49-3.17,5.49-3.17s-6.12,4.4-6,4.65c0,0,5.14-3.26,5.27-3s-5.47,3.26-5.39,3.41,5.21-3,5.21-3c0.1,0.17-5.52,3.61-5.44,3.73s4.79-3.47,5.1-2.94l-5.44,4s4.84-3,4.95-2.86S24.9,247.93,25,248.1l4.78-2.76s-5,3.39-5,3.44,4.57-2.94,4.7-2.72c0,0-5.28,4.22-5.22,4.32s4.26-3.11,4.54-2.62c0.08,0.14-4.75,2.9-4.67,3s4.33-2.93,4.51-2.61-4.75,4-4.75,4c0.26,0.44,1.89-1.55,2.09-1.21,0,0-2.33,1.58-2.31,1.62A41,41,0,0,0,28,250.14l-4.49,3.2,4.22-2.44s-4.67,3.58-4.56,3.77,4.06-2.44,4.1-2.37-4.4,3.74-4.4,3.74c0.15,0.26,4-2.32,4-2.32s-4.21,2.91-4.15,3,3.63-2.82,3.94-2.28l-4.22,3.79c0.26,0.45,3.57-2.58,3.79-2.19l-3.88,2.69a40.79,40.79,0,0,1,3.76-2.17c0.07,0.11-4,3.63-4,3.63l3.71-2.14s-3.76,2.4-3.73,2.45c0.14,0.24,3.4-2.61,3.68-2.12,0,0.08-3.83,3-3.76,3.12s3.36-2.45,3.58-2.07c0,0-3.68,3.19-3.68,3.19s3.33-2.27,3.48-2c0,0-3.51,3.23-3.51,3.23,0.3,0.52,3.13-2.45,3.41-2l-3.39,2.29,3.37-1.95s-3.4,2.14-3.36,2.2c0.25,0.43,3.11-2.34,3.35-1.93,0,0-3.36,2.31-3.33,2.37s3.06-2.32,3.3-1.91L22,265.57a25.81,25.81,0,0,0,3.23-1.87L22,265.85s3-2.21,3.21-1.85c0,0-3.19,2.83-3.11,3s2.84-2.12,3-1.76l-2.88,2.53s2.71-2,2.88-1.66c0,0-2.62,2.88-2.62,2.88s2.68-1.55,2.68-1.55-2.5,2.33-2.5,2.33c0.09,0.16,2.43-1.67,2.54-1.47s-2.42,1.76-2.41,1.79l2.42-1.4c0.06,0.1-2.35,1.61-2.3,1.7s2.09-1.72,2.31-1.34c0,0.06-2.17,1.69-2.13,1.77,0.24,0.42,2.07-1.38,2.15-1.24s-1.85,2-1.82,2,1.94-1.14,1.95-1.13-1.79,1.51-1.78,1.53l1.86-1.07L24.3,273s1.23-1.26,1.47-.85l-1,1.48a6.27,6.27,0,0,1,1.17-.67S25,274,25,274a4.64,4.64,0,0,0,1-.57s-0.54,1.21-.52,1.24,0.62-.81.81-0.47c0,0,0,1.27.06,1.31a0.93,0.93,0,0,1,.35-0.2s0,0.55,0,.56,0.16-.09.16-0.09"/><path class="a" d="M111.85,36.44c0.52,0.89,11.26-7,11.5-6.64,0,0-21.54,12.28-21.35,12.61,0.57,1,24-13.89,24-13.88L97,46.72s43.18-24.93,43.18-24.93S84.83,54.37,84.92,54.51l60.15-34.73C145.49,20.52,87,51.36,88,53.14c0.7,1.21,54.63-33.42,55.44-32,0.55,1-60.37,33.94-59.68,35.12s62.09-35.84,62.09-35.84S75.23,59.22,76.6,61.6c1.93,3.35,75.55-44.88,76.09-43.93L80.09,60c1.31,2.26,75.73-43.72,75.73-43.72S68,65.65,69,67.45L162.13,13.7c1.73,3-92,49-90,52.34,0.88,1.53,95.13-57,96-55.44,0,0-96.89,55.86-96.66,56.25,0.6,1,94.77-60.09,97.1-56.06,1.18,2-98.48,56.32-97.84,57.43,1,1.66,22.51-14.2,23-13.3L65,72s27-16.84,27.56-15.91c0,0-26.2,14.72-25.82,15.37l17-9.82S57.37,77.1,57.64,77.58C58.33,78.77,80,64.64,80,64.64S63.48,74,63.7,74.44c0,0,19.48-12.18,19.89-11.48,0,0-27.08,15.27-26.69,15.93S72.27,69,72.7,69.76c0.24,0.42-11.56,7.07-11.48,7.22,0.39,0.67,15.14-8.74,15.14-8.74l-15.9,9.68C60.55,78,75,67.92,75.68,69.13,76,69.76,54.35,81.86,54.46,82S65.6,75.61,65.6,75.61s-9.26,5.74-9.12,6c0.3,0.52,13.58-7.84,13.58-7.84C70.25,74.08,50,85.11,50.23,85.5s12.33-8,12.72-7.35L52.39,84.95,65,77.69c0.22,0.38-10.64,6.69-10.52,6.9l8.91-5.15S53.7,86,53.83,86.2l4.84-2.79s-9,6.39-9,6.52c0.2,0.35.73-1.2,1.07-.62,0.1,0.18-5,3.06-5,3.14s6.61-4.07,6.72-3.88a9.08,9.08,0,0,0-.74.7C51.95,89.53,56,86,56.38,86.63c0.24,0.42-12.3,7.46-12.19,7.64,0.45,0.77,10.6-6.93,11-6.32l-10.2,6.34,8.54-4.93c0.09,0.16-7.28,4.65-7.25,4.71l4-2.3c0.09,0.15-5.08,4.32-5.08,4.32,0.39,0.67,5.55-3.63,5.73-3.31,0,0-2.34,1.93-2.33,1.94s0.56-1,.86-0.5c0,0-8.1,5-8,5.15C41.59,99.75,49,95,49,95c0.1,0.17-8,4.69-7.86,4.91s7.34-4.24,7.34-4.24-7.64,4.54-7.54,4.71C41.28,101,48,96.28,48,96.28s-4.37,3.38-4.34,3.43c0.3,0.52.06-.82,0.4-0.23,0,0-4.1,3.45-4.07,3.49s5.32-3.85,5.65-3.26l-5.92,4s5.09-3.58,5.37-3.1c0,0-5.92,4.46-5.89,4.52l5.07-2.92c0,0.08-5.62,4.41-5.61,4.42,0.25,0.44,4.69-3.17,4.89-2.82,0,0.07-5.45,4-5.38,4.16,0.27,0.47,4.81-2.78,4.81-2.78s-5.73,4.54-5.73,4.54,5.1-3.4,5.3-3.06c0,0.08-6.52,4.88-6.52,4.88C36.24,112,42.12,108,42.12,108s-6.54,4-6.51,4l6.41-3.7s-4.32,3.4-4.28,3.48,3.15-2.79,3.57-2.06c0.11,0.2-13.92,8.3-13.74,8.6,0,0,24.43-14.84,24.75-14.29s-29.27,18-29.24,18.07l46-26.56c0.65,1.12-53.44,32.1-53.44,32.1S90.81,81,92.22,83.46c0.54,0.93-82,44.06-80.43,46.83,0.52,0.9,78.89-46.93,79.49-45.89C92.8,87,7.73,130.55,9.12,133c0.4,0.69,98.89-62.57,101.26-58.46L4,136.89S118.05,67,119.82,70C122.36,74.41,7.57,135.7,7.57,135.7l32-18.5c0.43,0.74-34.49,20.5-34.49,20.5,0.52,0.91,26.81-15.48,26.81-15.48L5.78,137.61s31.36-18.27,31.43-18.15S1,141,1.08,141.08c0.27,0.46,30.05-19.16,30.83-17.8L9.29,137.2c1,1.74,28.07-16.21,28.07-16.21S1.67,141.74,2.07,142.45C2.16,142.6,36,122.85,36,122.85c0.53,0.92-29.78,17.87-29.78,17.87,0.42,0.73,26.29-16.22,26.74-15.44,0.17,0.29-27.8,15.54-27.46,16.13,0,0,24.77-15.24,25.18-14.54C30.94,127.29,3.2,143,3.25,143.1c0.94,1.63,27.83-17.94,28.64-16.54,0,0.05-26.62,15.82-26.62,15.82l33.05-19.08S12.2,138.72,12.43,139.12c0,0,26-15.72,26.29-15.18C39.35,125,7.43,141.46,7.79,142.07c0.64,1.1,24.22-14.69,24.53-14.16S13.39,140,13.39,140c0.63,1.09,21.26-13.45,21.77-12.57L15.08,140s22.16-12.92,22.22-12.83c0.29,0.5-22.88,13-22.55,13.58l20.2-11.66c0.23,0.4-14.16,8.32-13.9,8.77l12-6.92c0.12,0.2-13.5,8.6-13.5,8.6S39.1,127.12,39.58,128c0.22,0.39-12,7.88-12,7.88,0.63,1.1,12.54-8,12.87-7.43,0,0.07-7.09,5.09-7.09,5.09s8.08-6,8.64-5A39.4,39.4,0,0,1,38.77,131s0.22-.93.57-0.33c0,0,1.66.06,1.69,0.11s3.19-2.46,3.46-2c0,0.08-3.5,2.29-3.5,2.29s3.47-2.5,3.69-2.13l-3.86,3.45c0,0.08,4.46-2.75,4.54-2.62l-4.91,3.61s5.17-3.07,5.21-3-6.21,4.72-6.21,4.72c0.09,0.16,6.32-4.14,6.53-3.77,0,0.06-6.45,4.75-6.38,4.87s0.9-.63,1-0.55,1.13,0.12,1.13.12c0.28,0.48,3.77-2.36,3.85-2.22s-11.47,6.94-11.47,6.94c0.52,0.9,5.38-3.1,5.38-3.1,0.13,0.22-7.66,5-7.49,5.26,0,0,8.28-5,8.39-4.84s-5.74,3.59-5.61,3.82c0.51,0.88,6.45-3.72,6.45-3.72,0.21,0.36-10.18,7.17-10.18,7.17s12.54-8.08,12.91-7.45c0,0-12.91,7.39-12.69,7.77,0,0,9.18-6.86,9.86-5.69,0,0-14.91,8.61-14.78,8.83,0,0,18.87-12.14,19.41-11.2,0.38,0.66-18.33,10.67-18,11.24,0.21,0.37,2.44-1.84,2.62-1.51s-9,6.42-9,6.42,2.42-1.4,2.42-1.4-4.26,3.74-4.22,3.81c0.32,0.56,1-.6,1-0.6s-3.63,3.26-3.63,3.26l8.18-4.72s-10,6.55-9.79,6.88,7.11-4.15,7.13-4.12-7.85,5.09-7.85,5.09c0.38,0.66,6.85-4,6.87-4,0.16,0.28-8.16,5.76-8.16,5.76s6.31-3.64,6.31-3.64-5.44,4-5.4,4.11,0.86-.71,1-0.55-3.13,2.88-3.09,2.94c0.25,0.43,3.57-2.83,3.9-2.25,0,0-3.6,2.34-3.56,2.41s1.91-1.81,2.21-1.28c0,0-3.16,2.17-3.16,2.17s3.83-2.67,4-2.32c0.1,0.17-4,3.18-4,3.26a23.33,23.33,0,0,1,2.77-1.6s-2.72,2-2.71,2,2.21-1.31,2.23-1.29l-2.11,1.64c0.15,0.27,1.58-1.16,1.69-1L12,169.59l0.78-.45"/></svg>