<svg xmlns="http://www.w3.org/2000/svg" viewBox="0 0 277.88 26.64"><defs><style>.a{fill:#e9e9e9;}.b{fill:#536a6f;}</style></defs><title>header-spotlight</title><path class="a" d="M64.89,9.29H62.3V5.11H74.39V9.29H71.8V26.71h2.59v4.17H62.3V26.71h2.59V9.29Z" transform="translate(-62.3 -4.68)"/><path class="a" d="M90.88,21.17h5.76v9.72H75.94V26.71h2.38V9.29H75.94V5.11H88.76V9.29H85.23V26.71h5.65V21.17Z" transform="translate(-62.3 -4.68)"/><path class="a" d="M112.88,21.17h5.76v9.72H97.94V26.71h2.38V9.29H97.94V5.11h12.81V9.29h-3.53V26.71h5.65V21.17Z" transform="translate(-62.3 -4.68)"/><path class="a" d="M134.55,5.11h10.22V9.29h-2V22c0,6.73-4.25,9.32-10.58,9.32-8.21,0-10.4-5-10.4-8.78V9.29h-1.87V5.11h11.34V9.29h-2.56V21.78c0,2.77.83,5.36,4.14,5.36,3,0,4.18-2.59,4.18-5.36V9.29h-2.48V5.11Z" transform="translate(-62.3 -4.68)"/><path class="a" d="M166.66,5.11h12.13V9.29h-2.16V26.71h2.16v4.17H168.21V26.71h2.38V9.65h-0.07L165,30.89h-6.26l-5.51-21.6h-0.07V26.71h2.38v4.17h-9.65V26.71H148V9.29h-2.16V5.11H158.2l4.14,18.57h0.07Z" transform="translate(-62.3 -4.68)"/><path class="a" d="M182.9,9.29H180.3V5.11H192.4V9.29h-2.59V26.71h2.59v4.17H180.3V26.71h2.59V9.29Z" transform="translate(-62.3 -4.68)"/><path class="a" d="M213.39,9.29h-2.77V5.11H220.8V9.29h-2.09v21.6h-8.6l-8.39-19.94h-0.07V26.71h2.84v4.17H193.95V26.71h2.38V9.29h-2.38V5.11h11.48l7.88,19.4h0.07V9.29Z" transform="translate(-62.3 -4.68)"/><path class="a" d="M239.09,23.51h-8.46l-1.08,3.2h2.77v4.17H222V26.71h1.55l8-21.6h8l7.88,21.6h1.48v4.17H237.47V26.71h2.66Zm-4.18-13.07h-0.07l-2.7,9.11h5.43Z" transform="translate(-62.3 -4.68)"/><path class="a" d="M265,9.29h-2.88V26.71H265v4.17H252.38V26.71h2.88V9.29h-2.88v5h-5.54V5.11h23.76v9.14H265v-5Z" transform="translate(-62.3 -4.68)"/><path class="a" d="M274.27,9.29h-2.59V5.11h12.09V9.29h-2.59V26.71h2.59v4.17H271.67V26.71h2.59V9.29Z" transform="translate(-62.3 -4.68)"/><path class="a" d="M298.74,31.32C290.36,31.32,286,25.74,286,18s4.36-13.32,12.74-13.32S311.49,10.26,311.49,18,307.13,31.32,298.74,31.32Zm0-22.46c-4.82,0-5.54,5.69-5.54,9.14s0.72,9.14,5.54,9.14,5.54-5.69,5.54-9.14S303.57,8.86,298.74,8.86Z" transform="translate(-62.3 -4.68)"/><path class="a" d="M332.76,9.29H330V5.11h10.19V9.29h-2.09v21.6h-8.6L321.1,10.95H321V26.71h2.84v4.17H313.33V26.71h2.38V9.29h-2.38V5.11h11.48l7.88,19.4h0.07V9.29Z" transform="translate(-62.3 -4.68)"/><path d="M163.49,15.17h1V17.6h-1V16.84h-0.61v1.58h0.83v1h-3v-1h0.59V14.06h-0.59V13h5.5v2.13h-1.28V14.06h-2v1.79h0.61V15.17Z" transform="translate(-62.3 -4.68)"/><path d="M169.34,15h1v2.36h-1V16.67h-0.61v1.75h2V17.34h1.33v2.12h-5.55v-1h0.59V14.06h-0.59V13h5.55v2h-1.33v-1h-2v1.62h0.61V15Z" transform="translate(-62.3 -4.68)"/><path d="M176.81,17.61h-2.12l-0.27.8h0.69v1h-2.59v-1h0.39l2-5.4h2l2,5.4h0.37v1H176.4v-1h0.67Zm-1-3.27h0l-0.68,2.28h1.36Z" transform="translate(-62.3 -4.68)"/><path d="M183.29,14.06h-0.72v4.36h0.72v1h-3.17v-1h0.72V14.06h-0.72V15.3h-1.39V13h5.94V15.3h-1.39V14.06Z" transform="translate(-62.3 -4.68)"/><path d="M188.51,13h2.56v1h-0.5v3.18c0,1.68-1.06,2.33-2.65,2.33-2.05,0-2.6-1.25-2.6-2.2V14.06h-0.47V13h2.84v1H187v3.12a1.09,1.09,0,0,0,1,1.34,1.14,1.14,0,0,0,1-1.34V14.06h-0.62V13Z" transform="translate(-62.3 -4.68)"/><path d="M194.85,17.51a0.7,0.7,0,0,0-.74-0.68H193.7v1.58h0.63v1h-2.9v-1H192V14.06h-0.59V13h3.5c1.27,0,2,.5,2,1.69a1.47,1.47,0,0,1-1.47,1.62v0a1,1,0,0,1,1.16.92l0.31,1.13h0.53v1h-2Zm-0.66-1.67a0.91,0.91,0,0,0,1-1,0.75,0.75,0,0,0-.87-0.84H193.7v1.79h0.5Z" transform="translate(-62.3 -4.68)"/><path d="M200.67,15h1v2.36h-1V16.67h-0.61v1.75h2V17.34h1.33v2.12h-5.56v-1h0.59V14.06h-0.59V13h5.56v2h-1.33v-1h-2v1.62h0.61V15Z" transform="translate(-62.3 -4.68)"/><path d="M204.52,14.06h-0.59V13h3.44c2,0,3,1.29,3,3.24a2.88,2.88,0,0,1-3.23,3.21h-3.23v-1h0.59V14.06Zm2.21,4.36c0.66,0,1.86,0,1.86-2.29,0-1.31-.43-2.07-1.81-2.07h-0.53v4.36h0.48Z" transform="translate(-62.3 -4.68)"/><path d="M220,14.06h-0.65V13h2.38v1h-0.34l-1.25,5.4h-2l-0.74-5h0l-0.86,5h-2l-1.21-5.4H213V13h2.63v1H215l0.66,4h0L216.62,13h1.8l0.86,5.06h0Z" transform="translate(-62.3 -4.68)"/><path d="M225.22,19.57A3,3,0,0,1,222,16.24a3.19,3.19,0,1,1,6.37,0A3,3,0,0,1,225.22,19.57Zm0-5.62c-1.21,0-1.39,1.42-1.39,2.29s0.18,2.29,1.39,2.29,1.39-1.42,1.39-2.29S226.43,13.95,225.22,13.95Z" transform="translate(-62.3 -4.68)"/><path d="M232.36,17.51a0.7,0.7,0,0,0-.74-0.68h-0.41v1.58h0.63v1h-2.9v-1h0.59V14.06h-0.59V13h3.5c1.27,0,2,.5,2,1.69a1.47,1.47,0,0,1-1.47,1.62v0a1,1,0,0,1,1.16.92l0.31,1.13h0.53v1h-2Zm-0.66-1.67a0.91,0.91,0,0,0,1-1,0.75,0.75,0,0,0-.87-0.84h-0.65v1.79h0.5Z" transform="translate(-62.3 -4.68)"/><path d="M239.22,14.06h-0.43V13h2.71v1H241L239.27,16l2,2.42h0.38v1h-2.82v-1h0.49l-1.68-2.21h0v2.21h0.59v1h-2.81v-1H236V14.06h-0.59V13h2.81v1h-0.59v1.87Z" transform="translate(-62.3 -4.68)"/><path class="b" d="M169.37,23.91a1,1,0,0,0-.48-0.15,0.38,0.38,0,0,0-.25.08,0.19,0.19,0,0,0-.05.12,0.14,0.14,0,0,0,.09.12,1.69,1.69,0,0,0,.26.09l0.23,0.07a1.15,1.15,0,0,1,.45.24,0.65,0.65,0,0,1,.21.52,1,1,0,0,1-.28.71,1.18,1.18,0,0,1-.89.31,1.62,1.62,0,0,1-1.12-.39l0.37-.59a1.46,1.46,0,0,0,.3.2,0.83,0.83,0,0,0,.37.08,0.49,0.49,0,0,0,.27-0.06,0.23,0.23,0,0,0,.09-0.18,0.18,0.18,0,0,0-.1-0.16,1.16,1.16,0,0,0-.27-0.1l-0.22-.07a1.09,1.09,0,0,1-.44-0.25,0.67,0.67,0,0,1-.2-0.49,0.84,0.84,0,0,1,.26-0.63,1.2,1.2,0,0,1,.82-0.27,1.72,1.72,0,0,1,.9.23Z" transform="translate(-62.3 -4.68)"/><path class="b" d="M173.14,24.72h-2a0.74,0.74,0,0,0,.17.46,0.59,0.59,0,0,0,.45.17,0.73,0.73,0,0,0,.35-0.08,0.53,0.53,0,0,0,.19-0.23l0.83,0.08a1.21,1.21,0,0,1-.52.68,1.61,1.61,0,0,1-.86.2,1.41,1.41,0,0,1-1.09-.39,1.47,1.47,0,0,1-.41-1,1.55,1.55,0,0,1,.42-1.07,1.61,1.61,0,0,1,2.12,0,1.55,1.55,0,0,1,.38,1.11v0.09Zm-0.81-.53a0.69,0.69,0,0,0-.18-0.32,0.65,0.65,0,0,0-.86,0,0.62,0.62,0,0,0-.15.29h1.19Z" transform="translate(-62.3 -4.68)"/><path class="b" d="M176.47,24.72h-2a0.74,0.74,0,0,0,.17.46,0.59,0.59,0,0,0,.45.17,0.73,0.73,0,0,0,.35-0.08,0.54,0.54,0,0,0,.19-0.23l0.83,0.08a1.22,1.22,0,0,1-.53.68,1.61,1.61,0,0,1-.86.2,1.41,1.41,0,0,1-1.09-.39,1.46,1.46,0,0,1-.41-1,1.55,1.55,0,0,1,.41-1.07,1.61,1.61,0,0,1,2.13,0,1.55,1.55,0,0,1,.38,1.11v0.09Zm-0.81-.53a0.69,0.69,0,0,0-.18-0.32,0.65,0.65,0,0,0-.86,0,0.61,0.61,0,0,0-.15.29h1.19Z" transform="translate(-62.3 -4.68)"/><path class="b" d="M177.52,21.54a0.51,0.51,0,1,1-.51.51A0.51,0.51,0,0,1,177.52,21.54ZM178,23.21v2.72h-0.88V23.21H178Z" transform="translate(-62.3 -4.68)"/><path class="b" d="M178.7,23.21h0.88v0.32a1,1,0,0,1,.84-0.4,1,1,0,0,1,1.06,1.07v1.72H180.6v-1.4a0.76,0.76,0,0,0-.15-0.54,0.46,0.46,0,0,0-.34-0.12,0.48,0.48,0,0,0-.37.15,0.7,0.7,0,0,0-.17.52v1.4H178.7V23.21Z" transform="translate(-62.3 -4.68)"/><path class="b" d="M184.23,23.21h0.88v2.56a1.59,1.59,0,0,1-.34,1.16,1.56,1.56,0,0,1-1.15.4,1.7,1.7,0,0,1-1.14-.35,1.22,1.22,0,0,1-.41-0.72h1a0.45,0.45,0,0,0,.2.27,0.73,0.73,0,0,0,.38.09,0.61,0.61,0,0,0,.44-0.15,0.81,0.81,0,0,0,.18-0.57V25.6a0.86,0.86,0,0,1-.81.41,1.34,1.34,0,0,1-1-.38,1.42,1.42,0,0,1-.4-1,1.55,1.55,0,0,1,.4-1.09,1.34,1.34,0,0,1,1-.39,0.9,0.9,0,0,1,.81.41V23.21Zm-1.09.85a0.75,0.75,0,0,0-.21.51,0.72,0.72,0,0,0,.19.49,0.65,0.65,0,0,0,.49.2,0.68,0.68,0,0,0,.48-0.18,0.72,0.72,0,0,0,.21-0.52,0.69,0.69,0,0,0-.21-0.5,0.73,0.73,0,0,0-.48-0.17A0.72,0.72,0,0,0,183.14,24.06Z" transform="translate(-62.3 -4.68)"/><path class="b" d="M188.12,23.92v2h-0.88v-2h-0.3V23.21h0.3V22.33h0.88v0.88h0.54v0.71h-0.54Z" transform="translate(-62.3 -4.68)"/><path class="b" d="M189.06,21.48h0.88v2.05a1.12,1.12,0,0,1,.33-0.28,1,1,0,0,1,.53-0.12,1,1,0,0,1,.77.28,1.08,1.08,0,0,1,.27.79v1.73H191v-1.4a0.73,0.73,0,0,0-.15-0.54,0.5,0.5,0,0,0-.34-0.12,0.48,0.48,0,0,0-.35.13,0.78,0.78,0,0,0-.18.57v1.36h-0.88V21.48Z" transform="translate(-62.3 -4.68)"/><path class="b" d="M192.52,23.21h0.88v0.43a1,1,0,0,1,.34-0.38,0.84,0.84,0,0,1,.47-0.12,0.89,0.89,0,0,1,.29,0l0,0.82a0.84,0.84,0,0,0-.4-0.1,0.57,0.57,0,0,0-.44.18,1,1,0,0,0-.21.73v1.1h-0.88V23.21Z" transform="translate(-62.3 -4.68)"/><path class="b" d="M197.43,25.58a1.83,1.83,0,0,1-2.38,0,1.46,1.46,0,0,1,0-2,1.83,1.83,0,0,1,2.38,0A1.46,1.46,0,0,1,197.43,25.58Zm-1.68-1.53a0.75,0.75,0,0,0,0,1,0.67,0.67,0,0,0,.5.2,0.66,0.66,0,0,0,.49-0.2,0.75,0.75,0,0,0,0-1A0.72,0.72,0,0,0,195.74,24.06Z" transform="translate(-62.3 -4.68)"/><path class="b" d="M199.26,23.21v1.5a0.57,0.57,0,0,0,.15.44,0.52,0.52,0,0,0,.37.13,0.54,0.54,0,0,0,.37-0.13,0.59,0.59,0,0,0,.15-0.44v-1.5h0.88V24.8a1.09,1.09,0,0,1-.3.87,1.87,1.87,0,0,1-2.19,0,1,1,0,0,1-.3-0.82V23.21h0.88Z" transform="translate(-62.3 -4.68)"/><path class="b" d="M203.93,23.21h0.88v2.56a1.59,1.59,0,0,1-.34,1.16,1.56,1.56,0,0,1-1.15.4,1.69,1.69,0,0,1-1.13-.35,1.21,1.21,0,0,1-.41-0.72h1a0.45,0.45,0,0,0,.2.27,0.73,0.73,0,0,0,.38.09,0.62,0.62,0,0,0,.44-0.15,0.81,0.81,0,0,0,.18-0.57V25.6a0.86,0.86,0,0,1-.81.41,1.34,1.34,0,0,1-1-.38,1.42,1.42,0,0,1-.4-1,1.56,1.56,0,0,1,.4-1.09,1.34,1.34,0,0,1,1-.39,0.9,0.9,0,0,1,.81.41V23.21Zm-1.09.85a0.75,0.75,0,0,0-.21.51,0.72,0.72,0,0,0,.19.49,0.65,0.65,0,0,0,.5.2,0.68,0.68,0,0,0,.48-0.18,0.72,0.72,0,0,0,.21-0.52,0.69,0.69,0,0,0-.21-0.5,0.73,0.73,0,0,0-.48-0.17A0.72,0.72,0,0,0,202.84,24.06Z" transform="translate(-62.3 -4.68)"/><path class="b" d="M205.51,21.48h0.88v2.05a1.1,1.1,0,0,1,.33-0.28,1,1,0,0,1,.53-0.12,1,1,0,0,1,.77.28,1.08,1.08,0,0,1,.27.79v1.73h-0.88v-1.4a0.73,0.73,0,0,0-.15-0.54,0.5,0.5,0,0,0-.34-0.12,0.48,0.48,0,0,0-.35.13,0.77,0.77,0,0,0-.18.57v1.36h-0.88V21.48Z" transform="translate(-62.3 -4.68)"/><path class="b" d="M211.3,23.92v2h-0.88v-2h-0.3V23.21h0.3V22.33h0.88v0.88h0.54v0.71H211.3Z" transform="translate(-62.3 -4.68)"/><path class="b" d="M212.24,21.48h0.88v2.05a1.12,1.12,0,0,1,.33-0.28,1,1,0,0,1,.53-0.12,1,1,0,0,1,.77.28,1.08,1.08,0,0,1,.27.79v1.73h-0.88v-1.4A0.73,0.73,0,0,0,214,24a0.5,0.5,0,0,0-.34-0.12,0.48,0.48,0,0,0-.35.13,0.78,0.78,0,0,0-.18.57v1.36h-0.88V21.48Z" transform="translate(-62.3 -4.68)"/><path class="b" d="M218.36,24.72h-2a0.74,0.74,0,0,0,.17.46,0.59,0.59,0,0,0,.45.17,0.73,0.73,0,0,0,.35-0.08,0.53,0.53,0,0,0,.19-0.23l0.83,0.08a1.21,1.21,0,0,1-.52.68,1.61,1.61,0,0,1-.86.2,1.41,1.41,0,0,1-1.09-.39,1.47,1.47,0,0,1-.41-1,1.55,1.55,0,0,1,.42-1.07,1.61,1.61,0,0,1,2.12,0,1.55,1.55,0,0,1,.38,1.11v0.09Zm-0.81-.53a0.69,0.69,0,0,0-.18-0.32,0.65,0.65,0,0,0-.86,0,0.62,0.62,0,0,0-.15.29h1.19Z" transform="translate(-62.3 -4.68)"/><path class="b" d="M220.33,23.21h0.88v0.32a1,1,0,0,1,.84-0.4,1,1,0,0,1,1.06,1.07v1.72h-0.88v-1.4a0.75,0.75,0,0,0-.15-0.54,0.46,0.46,0,0,0-.34-0.12,0.48,0.48,0,0,0-.37.15,0.7,0.7,0,0,0-.17.52v1.4h-0.88V23.21Z" transform="translate(-62.3 -4.68)"/><path class="b" d="M226.44,25.58a1.83,1.83,0,0,1-2.38,0,1.46,1.46,0,0,1,0-2,1.83,1.83,0,0,1,2.38,0A1.46,1.46,0,0,1,226.44,25.58Zm-1.68-1.53a0.75,0.75,0,0,0,0,1,0.67,0.67,0,0,0,.5.2,0.66,0.66,0,0,0,.49-0.2,0.75,0.75,0,0,0,0-1A0.72,0.72,0,0,0,224.76,24.06Z" transform="translate(-62.3 -4.68)"/><path class="b" d="M227.9,21.54a0.51,0.51,0,1,1-.51.51A0.51,0.51,0,0,1,227.9,21.54Zm0.44,1.67v2.72h-0.88V23.21h0.88Z" transform="translate(-62.3 -4.68)"/><path class="b" d="M230.75,23.91a1,1,0,0,0-.48-0.15,0.38,0.38,0,0,0-.25.08A0.19,0.19,0,0,0,230,24a0.14,0.14,0,0,0,.08.12,1.71,1.71,0,0,0,.26.09l0.23,0.07a1.14,1.14,0,0,1,.45.24,0.65,0.65,0,0,1,.21.52,1,1,0,0,1-.28.71A1.17,1.17,0,0,1,230,26a1.62,1.62,0,0,1-1.12-.39L229.3,25a1.46,1.46,0,0,0,.3.2,0.83,0.83,0,0,0,.37.08,0.49,0.49,0,0,0,.27-0.06,0.23,0.23,0,0,0,.09-0.18,0.18,0.18,0,0,0-.1-0.16,1.15,1.15,0,0,0-.27-0.1l-0.22-.07a1.09,1.09,0,0,1-.44-0.25,0.67,0.67,0,0,1-.2-0.49,0.84,0.84,0,0,1,.26-0.63,1.2,1.2,0,0,1,.82-0.27,1.73,1.73,0,0,1,.9.23Z" transform="translate(-62.3 -4.68)"/><path class="b" d="M234.52,24.72h-2a0.74,0.74,0,0,0,.17.46,0.59,0.59,0,0,0,.45.17,0.73,0.73,0,0,0,.35-0.08,0.53,0.53,0,0,0,.19-0.23l0.83,0.08a1.21,1.21,0,0,1-.52.68,1.61,1.61,0,0,1-.86.2,1.41,1.41,0,0,1-1.09-.39,1.47,1.47,0,0,1-.41-1,1.55,1.55,0,0,1,.42-1.07,1.61,1.61,0,0,1,2.12,0,1.55,1.55,0,0,1,.38,1.11v0.09Zm-0.81-.53a0.69,0.69,0,0,0-.18-0.32,0.65,0.65,0,0,0-.86,0,0.62,0.62,0,0,0-.15.29h1.19Z" transform="translate(-62.3 -4.68)"/></svg>