<svg xmlns="http://www.w3.org/2000/svg" viewBox="0 0 399.96 26.64"><defs><style>.a{fill:#e9e9e9;}.b{fill:#536a6f;}</style></defs><title>header-credits</title><path class="a" d="M3.28,9.29H0.9V5.11H14.58c5.08,0,8.17,3.13,8.17,8.21,0,5.83-3.35,8.13-9,8.13H10v5.26h3.24v4.17H0.9V26.71H3.28V9.29Zm8.46,8c3.1,0,4.1-1.15,4.1-4.32,0-2.74-1.26-3.67-3.82-3.67H10v8h1.76Z" transform="translate(-0.9 -4.68)"/><path class="a" d="M35.89,13h4.18v9.43H35.89V19.73H33.44v7h8V22.43H46.8v8.46H24.59V26.71H27V9.29H24.59V5.11H46.8v8H41.47V9.29h-8v6.48h2.45V13Z" transform="translate(-0.9 -4.68)"/><path class="a" d="M62.6,23.11c-0.58-1.73-.94-2.7-3-2.7H58v6.3h2.52v4.17H48.92V26.71H51.3V9.29H48.92V5.11h14c5.08,0,7.85,2,7.85,6.77,0,4.07-2,5.87-5.87,6.48v0.14c2.88,0.25,3.85.86,4.64,3.67l1.26,4.54h2.12v4.17H65.12ZM60,16.45c0.72,0,4.1,0,4.1-3.82,0-2.41-1.26-3.35-3.49-3.35H58v7.16h2Z" transform="translate(-0.9 -4.68)"/><path class="a" d="M89.42,5.11h5.33v8.28H89.2c0-2.05-.72-4.54-3.85-4.54-2,0-3.42.79-3.42,2.38,0,1.84,1,2.23,6.7,4.46,4.36,1.69,6.7,3.1,6.7,7.7,0,5.54-3.46,7.92-8.89,7.92-2.48,0-4.43-.36-5.8-2.56H80.57v2.12H75V22h5.9a6,6,0,0,0,.9,3.71,4.06,4.06,0,0,0,3.49,1.48,2.8,2.8,0,0,0,3.1-2.81c0-1.94-1-2.59-6.59-4.5-3.28-1.12-6.59-2.7-6.59-6.91,0-5.58,2.84-8.24,8.39-8.24,1.91,0,4.75.5,5.72,2.41h0.07v-2Z" transform="translate(-0.9 -4.68)"/><path class="a" d="M99.57,9.29H97V5.11h12.09V9.29h-2.59V26.71h2.59v4.17H97V26.71h2.59V9.29Z" transform="translate(-0.9 -4.68)"/><path class="a" d="M125.46,5.11h5.33v8.28h-5.54c0-2.05-.72-4.54-3.85-4.54-2,0-3.42.79-3.42,2.38,0,1.84,1,2.23,6.7,4.46,4.36,1.69,6.7,3.1,6.7,7.7,0,5.54-3.46,7.92-8.89,7.92-2.48,0-4.43-.36-5.8-2.56H116.6v2.12h-5.54V22H117a6,6,0,0,0,.9,3.71,4.06,4.06,0,0,0,3.49,1.48,2.8,2.8,0,0,0,3.1-2.81c0-1.94-1-2.59-6.59-4.5-3.28-1.12-6.59-2.7-6.59-6.91,0-5.58,2.84-8.24,8.39-8.24,1.91,0,4.75.5,5.72,2.41h0.07v-2Z" transform="translate(-0.9 -4.68)"/><path class="a" d="M150.37,9.29h-2.88V26.71h2.88v4.17H137.7V26.71h2.88V9.29H137.7v5h-5.54V5.11h23.76v9.14h-5.54v-5Z" transform="translate(-0.9 -4.68)"/><path class="a" d="M171.07,23.51h-8.46l-1.08,3.2h2.77v4.17H153.93V26.71h1.55l8-21.6h8l7.88,21.6h1.48v4.17H169.45V26.71h2.66Zm-4.17-13.07h-0.07l-2.7,9.11h5.44Z" transform="translate(-0.9 -4.68)"/><path class="a" d="M201.38,9.29h-2.77V5.11H208.8V9.29h-2.09v21.6h-8.6l-8.39-19.94h-0.07V26.71h2.84v4.17H181.94V26.71h2.38V9.29h-2.37V5.11h11.48l7.88,19.4h0.07V9.29Z" transform="translate(-0.9 -4.68)"/><path class="a" d="M228.42,5.11H234v9.43h-6a6.82,6.82,0,0,0-1.19-4,4.34,4.34,0,0,0-3.67-1.69c-4.43,0-5.22,5.8-5.22,9.5,0,3.38.65,8.78,5.22,8.78,3.74,0,4.17-3.2,4.36-4.79h6.69c-0.25,6.23-5.15,9-10.62,9-9.58,0-12.85-6.26-12.85-13.5S214.16,4.68,221.9,4.68a7.64,7.64,0,0,1,6.52,3V5.11Z" transform="translate(-0.9 -4.68)"/><path class="a" d="M247.24,13h4.17v9.43h-4.17V19.73H244.8v7h8V22.43h5.33v8.46H235.94V26.71h2.38V9.29h-2.37V5.11h22.21v8h-5.33V9.29h-8v6.48h2.45V13Z" transform="translate(-0.9 -4.68)"/><path class="a" d="M287.38,15.41h8.67v3.67h-2.41a13,13,0,0,1-2.56,6.3l1.33,1.55h3.64v4h-7.63L287,29.38a12.57,12.57,0,0,1-7.38,1.94c-6.7,0-8.93-4-8.93-7.49s1.87-5.9,4.82-7.45c-1.4-1.55-2.66-3.35-2.66-5.44,0-4.36,3.74-6.26,7.67-6.26,5.08,0,7.24,2.84,7.24,6s-1.76,4.9-4.1,6.52l4.07,4.61a5.39,5.39,0,0,0,1.12-2.7h-1.48V15.41Zm-8.06,5A4.62,4.62,0,0,0,277.2,24c0,2.2,1.51,3.35,3.64,3.35A4.31,4.31,0,0,0,284,26.1Zm1-12.31A2,2,0,0,0,278.2,10c0,1,.83,1.91,2,3.42,1.22-1.08,2.27-1.87,2.27-3.17A1.93,1.93,0,0,0,280.36,8.14Z" transform="translate(-0.9 -4.68)"/><path class="a" d="M324.4,9.29h-2.88V26.71h2.88v4.17H311.73V26.71h2.88V9.29h-2.88v5h-5.54V5.11h23.76v9.14H324.4v-5Z" transform="translate(-0.9 -4.68)"/><path class="a" d="M333.61,9.29H331V5.11h12.09V9.29h-2.59V26.71h2.59v4.17H331V26.71h2.59V9.29Z" transform="translate(-0.9 -4.68)"/><path class="a" d="M365.4,5.11h12.13V9.29h-2.16V26.71h2.16v4.17H366.95V26.71h2.38V9.65h-0.07l-5.51,21.24h-6.26L352,9.29H351.9V26.71h2.38v4.17h-9.65V26.71h2.16V9.29h-2.16V5.11h12.31l4.14,18.57h0.07Z" transform="translate(-0.9 -4.68)"/><path class="a" d="M390,13h4.17v9.43H390V19.73H387.5v7h8V22.43h5.33v8.46H378.65V26.71H381V9.29h-2.37V5.11h22.21v8h-5.33V9.29h-8v6.48H390V13Z" transform="translate(-0.9 -4.68)"/><path d="M161.17,14.06h-0.65V13h3v1H162.9v4.36h0.65v1h-3v-1h0.65V14.06Z" transform="translate(-0.9 -4.68)"/><path d="M171.06,13h1.39v2.36h-1.51a1.71,1.71,0,0,0-.3-1,1.09,1.09,0,0,0-.92-0.42c-1.11,0-1.31,1.45-1.31,2.38s0.16,2.2,1.31,2.2a1.1,1.1,0,0,0,1.09-1.2h1.67a2.36,2.36,0,0,1-2.66,2.24c-2.4,0-3.21-1.57-3.21-3.38s0.88-3.29,2.82-3.29a1.91,1.91,0,0,1,1.63.74V13Z" transform="translate(-0.9 -4.68)"/><path d="M176.44,17.51a0.7,0.7,0,0,0-.74-0.68h-0.41v1.58h0.63v1H173v-1h0.59V14.06H173V13h3.5c1.27,0,2,.5,2,1.69A1.47,1.47,0,0,1,177,16.33v0a1,1,0,0,1,1.16.92l0.31,1.13H179v1h-2Zm-0.66-1.67a0.91,0.91,0,0,0,1-1,0.75,0.75,0,0,0-.87-0.84h-0.65v1.79h0.5Z" transform="translate(-0.9 -4.68)"/><path d="M182.26,15h1v2.36h-1V16.67h-0.61v1.75h2V17.34H185v2.12h-5.55v-1H180V14.06h-0.59V13H185v2h-1.33v-1h-2v1.62h0.61V15Z" transform="translate(-0.9 -4.68)"/><path d="M189.72,17.61h-2.12l-0.27.8H188v1h-2.59v-1h0.39l2-5.4h2l2,5.4h0.37v1h-2.84v-1H190Zm-1-3.27h0L188,16.62h1.36Z" transform="translate(-0.9 -4.68)"/><path d="M196.21,14.06h-0.72v4.36h0.72v1H193v-1h0.72V14.06H193V15.3h-1.39V13h5.94V15.3h-1.39V14.06Z" transform="translate(-0.9 -4.68)"/><path d="M200.59,15h1v2.36h-1V16.67H200v1.75h2V17.34h1.33v2.12h-5.56v-1h0.59V14.06h-0.59V13h5.56v2H202v-1h-2v1.62h0.61V15Z" transform="translate(-0.9 -4.68)"/><path d="M210.38,14.06h-0.72v4.36h0.72v1h-3.17v-1h0.72V14.06h-0.72V15.3h-1.39V13h5.94V15.3h-1.39V14.06Z" transform="translate(-0.9 -4.68)"/><path d="M216.33,14.06h-0.65V13h3v1h-0.59v4.36h0.59v1h-3v-1h0.65V16.72h-2.07v1.69h0.65v1h-3v-1h0.59V14.06h-0.59V13h3v1h-0.65v1.62h2.07V14.06Z" transform="translate(-0.9 -4.68)"/><path d="M219.68,14.06H219V13h3v1h-0.65v4.36h0.65v1h-3v-1h0.65V14.06Z" transform="translate(-0.9 -4.68)"/><path d="M227.31,14.06h-0.69V13h2.55v1h-0.52v5.4h-2.15l-2.1-5h0v3.94h0.71v1h-2.64v-1H223V14.06h-0.59V13h2.87l2,4.85h0V14.06Z" transform="translate(-0.9 -4.68)"/><path d="M234.27,13h1.39V15.3h-1.51a1.46,1.46,0,0,0-.23-0.77,1.15,1.15,0,0,0-1-.52c-1.22,0-1.47,1.42-1.47,2.37s0.29,2.1,1.47,2.1a1.23,1.23,0,0,0,1.31-1.26h-0.67v-1h2.65v1h-0.47v2.25h-1.39V18.8h0a1.82,1.82,0,0,1-1.76.77c-1.84,0-2.93-1.19-2.93-3.4,0-1.79.82-3.26,2.85-3.26a2.26,2.26,0,0,1,1.81.72V13Z" transform="translate(-0.9 -4.68)"/><path d="M240.16,13h1.33v2.07H240.1a1,1,0,0,0-1-1.13,0.7,0.7,0,0,0-.86.59c0,0.46.24,0.56,1.67,1.12,1.09,0.42,1.67.77,1.67,1.93,0,1.39-.86,2-2.22,2a1.48,1.48,0,0,1-1.45-.64h0v0.53h-1.39V17.23H238a1.5,1.5,0,0,0,.22.93,1,1,0,0,0,.87.37,0.7,0.7,0,0,0,.77-0.7c0-.49-0.25-0.65-1.65-1.12-0.82-.28-1.65-0.68-1.65-1.73a1.83,1.83,0,0,1,2.1-2.06,1.62,1.62,0,0,1,1.43.6h0V13Z" transform="translate(-0.9 -4.68)"/><path class="b" d="M161.68,21.86v4.07h-0.94V21.86h0.94Z" transform="translate(-0.9 -4.68)"/><path class="b" d="M163.39,23.92v2h-0.88v-2H162.2V23.21h0.31V22.33h0.88v0.88h0.54v0.71h-0.54Z" transform="translate(-0.9 -4.68)"/><path class="b" d="M165.75,21.48h0.88v2.05a1.12,1.12,0,0,1,.33-0.28,1,1,0,0,1,.53-0.12,1,1,0,0,1,.77.28,1.08,1.08,0,0,1,.27.79v1.73h-0.88v-1.4a0.73,0.73,0,0,0-.15-0.54,0.49,0.49,0,0,0-.34-0.12,0.48,0.48,0,0,0-.35.13,0.78,0.78,0,0,0-.18.57v1.36h-0.88V21.48Z" transform="translate(-0.9 -4.68)"/><path class="b" d="M171.18,23.21h0.88v2.72h-0.88V25.6a0.91,0.91,0,0,1-.8.42,1.29,1.29,0,0,1-1-.42,1.44,1.44,0,0,1-.4-1,1.55,1.55,0,0,1,.42-1.1,1.31,1.31,0,0,1,.95-0.37,1,1,0,0,1,.85.4v-0.3Zm-1.12.86a0.68,0.68,0,0,0-.2.49,0.7,0.7,0,0,0,.18.49,0.72,0.72,0,0,0,.52.21,0.65,0.65,0,0,0,.46-0.19,0.72,0.72,0,0,0,0-1,0.73,0.73,0,0,0-.49-0.19A0.69,0.69,0,0,0,170.06,24.07Z" transform="translate(-0.9 -4.68)"/><path class="b" d="M174.4,23.91a1,1,0,0,0-.48-0.15,0.37,0.37,0,0,0-.25.08,0.19,0.19,0,0,0-.05.12,0.14,0.14,0,0,0,.09.12,1.66,1.66,0,0,0,.26.09l0.23,0.07a1.15,1.15,0,0,1,.45.24,0.65,0.65,0,0,1,.21.52,1,1,0,0,1-.28.71,1.18,1.18,0,0,1-.89.31,1.61,1.61,0,0,1-1.12-.39L173,25a1.46,1.46,0,0,0,.3.2,0.83,0.83,0,0,0,.37.08,0.49,0.49,0,0,0,.27-0.06,0.23,0.23,0,0,0,.09-0.18,0.18,0.18,0,0,0-.1-0.16,1.17,1.17,0,0,0-.27-0.1l-0.22-.07a1.08,1.08,0,0,1-.44-0.25,0.67,0.67,0,0,1-.2-0.49,0.84,0.84,0,0,1,.26-0.63,1.2,1.2,0,0,1,.82-0.27,1.72,1.72,0,0,1,.9.23Z" transform="translate(-0.9 -4.68)"/><path class="b" d="M177.71,21.48v2a1,1,0,0,1,.85-0.4,1.37,1.37,0,0,1,.95.37,1.46,1.46,0,0,1,.43,1.07,1.53,1.53,0,0,1-.43,1.09,1.22,1.22,0,0,1-.93.37,1,1,0,0,1-.86-0.42v0.33h-0.88V21.48h0.88Zm0.14,2.59a0.7,0.7,0,0,0-.2.5,0.66,0.66,0,0,0,.2.49,0.75,0.75,0,0,0,.5.2,0.67,0.67,0,0,0,.46-0.19,0.69,0.69,0,0,0,.21-0.5,0.7,0.7,0,0,0-.21-0.52A0.7,0.7,0,0,0,177.85,24.08Z" transform="translate(-0.9 -4.68)"/><path class="b" d="M183.27,24.72h-2a0.74,0.74,0,0,0,.17.46,0.59,0.59,0,0,0,.45.17,0.73,0.73,0,0,0,.35-0.08,0.54,0.54,0,0,0,.19-0.23l0.83,0.08a1.22,1.22,0,0,1-.53.68,1.61,1.61,0,0,1-.86.2,1.41,1.41,0,0,1-1.09-.39,1.46,1.46,0,0,1-.41-1,1.55,1.55,0,0,1,.41-1.07,1.61,1.61,0,0,1,2.13,0,1.55,1.55,0,0,1,.38,1.11v0.09Zm-0.81-.53a0.69,0.69,0,0,0-.18-0.32,0.65,0.65,0,0,0-.86,0,0.61,0.61,0,0,0-.15.29h1.19Z" transform="translate(-0.9 -4.68)"/><path class="b" d="M186.61,24.72h-2a0.74,0.74,0,0,0,.17.46,0.59,0.59,0,0,0,.45.17,0.73,0.73,0,0,0,.35-0.08,0.53,0.53,0,0,0,.19-0.23l0.83,0.08a1.21,1.21,0,0,1-.52.68,1.61,1.61,0,0,1-.86.2,1.41,1.41,0,0,1-1.09-.39,1.47,1.47,0,0,1-.41-1,1.55,1.55,0,0,1,.42-1.07,1.61,1.61,0,0,1,2.12,0,1.55,1.55,0,0,1,.38,1.11v0.09Zm-0.81-.53a0.69,0.69,0,0,0-.18-0.32,0.65,0.65,0,0,0-.86,0,0.62,0.62,0,0,0-.15.29h1.19Z" transform="translate(-0.9 -4.68)"/><path class="b" d="M187.15,23.21H188v0.32a1,1,0,0,1,.84-0.4,1,1,0,0,1,1.06,1.07v1.72h-0.88v-1.4A0.75,0.75,0,0,0,188.9,24a0.46,0.46,0,0,0-.34-0.12,0.48,0.48,0,0,0-.37.15,0.7,0.7,0,0,0-.17.52v1.4h-0.88V23.21Z" transform="translate(-0.9 -4.68)"/><path class="b" d="M194.12,23.21H195v2.72h-0.88V25.6a0.91,0.91,0,0,1-.8.42,1.29,1.29,0,0,1-1-.42,1.44,1.44,0,0,1-.4-1,1.55,1.55,0,0,1,.42-1.1,1.31,1.31,0,0,1,.95-0.37,1,1,0,0,1,.85.4v-0.3Zm-1.12.86a0.68,0.68,0,0,0-.2.49,0.7,0.7,0,0,0,.18.49,0.72,0.72,0,0,0,.52.21,0.65,0.65,0,0,0,.46-0.19,0.72,0.72,0,0,0,0-1,0.73,0.73,0,0,0-.49-0.19A0.69,0.69,0,0,0,193,24.07Z" transform="translate(-0.9 -4.68)"/><path class="b" d="M195.68,23.21h0.88v0.32a1,1,0,0,1,.84-0.4,1,1,0,0,1,1.06,1.07v1.72h-0.88v-1.4a0.76,0.76,0,0,0-.15-0.54,0.46,0.46,0,0,0-.34-0.12,0.48,0.48,0,0,0-.37.15,0.7,0.7,0,0,0-.17.52v1.4h-0.88V23.21Z" transform="translate(-0.9 -4.68)"/><path class="b" d="M201.06,21.54a0.51,0.51,0,1,1-.51.51A0.51,0.51,0,0,1,201.06,21.54Zm0.44,1.67v2.72h-0.88V23.21h0.88Z" transform="translate(-0.9 -4.68)"/><path class="b" d="M202.24,23.21h0.88v0.32a1,1,0,0,1,.84-0.4A1,1,0,0,1,205,24.21v1.72h-0.88v-1.4A0.75,0.75,0,0,0,204,24a0.46,0.46,0,0,0-.34-0.12,0.48,0.48,0,0,0-.37.15,0.7,0.7,0,0,0-.17.52v1.4h-0.88V23.21Z" transform="translate(-0.9 -4.68)"/><path class="b" d="M206.61,23.92v2h-0.88v-2h-0.3V23.21h0.3V22.33h0.88v0.88h0.54v0.71h-0.54Z" transform="translate(-0.9 -4.68)"/><path class="b" d="M210.32,24.72h-2a0.74,0.74,0,0,0,.17.46,0.59,0.59,0,0,0,.45.17,0.73,0.73,0,0,0,.35-0.08,0.54,0.54,0,0,0,.19-0.23l0.83,0.08a1.22,1.22,0,0,1-.53.68,1.61,1.61,0,0,1-.86.2,1.41,1.41,0,0,1-1.09-.39,1.46,1.46,0,0,1-.41-1,1.55,1.55,0,0,1,.41-1.07,1.61,1.61,0,0,1,2.13,0,1.55,1.55,0,0,1,.38,1.11v0.09Zm-0.81-.53a0.69,0.69,0,0,0-.18-0.32,0.65,0.65,0,0,0-.86,0,0.61,0.61,0,0,0-.15.29h1.19Z" transform="translate(-0.9 -4.68)"/><path class="b" d="M210.86,23.21h0.88v0.43a1,1,0,0,1,.34-0.38,0.84,0.84,0,0,1,.47-0.12,0.89,0.89,0,0,1,.29,0l0,0.82a0.84,0.84,0,0,0-.4-0.1,0.57,0.57,0,0,0-.44.18,1,1,0,0,0-.21.73v1.1h-0.88V23.21Z" transform="translate(-0.9 -4.68)"/><path class="b" d="M215.9,24.72h-2a0.74,0.74,0,0,0,.17.46,0.59,0.59,0,0,0,.45.17,0.73,0.73,0,0,0,.35-0.08,0.53,0.53,0,0,0,.19-0.23l0.83,0.08a1.21,1.21,0,0,1-.52.68,1.61,1.61,0,0,1-.86.2,1.41,1.41,0,0,1-1.09-.39,1.47,1.47,0,0,1-.41-1,1.55,1.55,0,0,1,.42-1.07,1.61,1.61,0,0,1,2.12,0,1.55,1.55,0,0,1,.38,1.11v0.09Zm-0.81-.53a0.69,0.69,0,0,0-.18-0.32,0.65,0.65,0,0,0-.86,0,0.62,0.62,0,0,0-.15.29h1.19Z" transform="translate(-0.9 -4.68)"/><path class="b" d="M218.12,23.91a1,1,0,0,0-.48-0.15,0.38,0.38,0,0,0-.25.08,0.19,0.19,0,0,0-.05.12,0.14,0.14,0,0,0,.08.12,1.71,1.71,0,0,0,.26.09l0.23,0.07a1.14,1.14,0,0,1,.45.24,0.65,0.65,0,0,1,.21.52,1,1,0,0,1-.28.71,1.17,1.17,0,0,1-.88.31,1.62,1.62,0,0,1-1.12-.39l0.37-.59a1.46,1.46,0,0,0,.3.2,0.83,0.83,0,0,0,.37.08,0.49,0.49,0,0,0,.27-0.06,0.23,0.23,0,0,0,.09-0.18,0.18,0.18,0,0,0-.1-0.16,1.15,1.15,0,0,0-.27-0.1l-0.22-.07a1.09,1.09,0,0,1-.44-0.25,0.67,0.67,0,0,1-.2-0.49,0.84,0.84,0,0,1,.26-0.63,1.2,1.2,0,0,1,.82-0.27,1.73,1.73,0,0,1,.9.23Z" transform="translate(-0.9 -4.68)"/><path class="b" d="M220,23.92v2h-0.88v-2h-0.31V23.21h0.31V22.33H220v0.88h0.54v0.71H220Z" transform="translate(-0.9 -4.68)"/><path class="b" d="M221.42,21.54a0.51,0.51,0,1,1-.51.51A0.51,0.51,0,0,1,221.42,21.54Zm0.44,1.67v2.72H221V23.21h0.88Z" transform="translate(-0.9 -4.68)"/><path class="b" d="M222.61,23.21h0.88v0.32a1,1,0,0,1,.84-0.4,1,1,0,0,1,1.06,1.07v1.72H224.5v-1.4a0.75,0.75,0,0,0-.15-0.54,0.46,0.46,0,0,0-.34-0.12,0.48,0.48,0,0,0-.37.15,0.7,0.7,0,0,0-.17.52v1.4h-0.88V23.21Z" transform="translate(-0.9 -4.68)"/><path class="b" d="M228.13,23.21H229v2.56a1.59,1.59,0,0,1-.34,1.16,1.56,1.56,0,0,1-1.15.4,1.7,1.7,0,0,1-1.14-.35,1.22,1.22,0,0,1-.41-0.72h1a0.45,0.45,0,0,0,.2.27,0.73,0.73,0,0,0,.38.09,0.61,0.61,0,0,0,.44-0.15,0.81,0.81,0,0,0,.18-0.57V25.6a0.86,0.86,0,0,1-.81.41,1.34,1.34,0,0,1-1-.38,1.42,1.42,0,0,1-.4-1,1.55,1.55,0,0,1,.4-1.09,1.34,1.34,0,0,1,1-.39,0.9,0.9,0,0,1,.81.41V23.21Zm-1.09.85a0.75,0.75,0,0,0-.21.51,0.72,0.72,0,0,0,.19.49,0.65,0.65,0,0,0,.49.2,0.68,0.68,0,0,0,.48-0.18,0.72,0.72,0,0,0,.21-0.52,0.69,0.69,0,0,0-.21-0.5,0.73,0.73,0,0,0-.48-0.17A0.72,0.72,0,0,0,227,24.06Z" transform="translate(-0.9 -4.68)"/><path class="b" d="M231.11,23.21H232v0.43a1,1,0,0,1,.34-0.38,0.84,0.84,0,0,1,.47-0.12,0.89,0.89,0,0,1,.29,0L233,24a0.84,0.84,0,0,0-.4-0.1,0.57,0.57,0,0,0-.44.18,1,1,0,0,0-.21.73v1.1h-0.88V23.21Z" transform="translate(-0.9 -4.68)"/><path class="b" d="M234,21.54a0.51,0.51,0,1,1-.51.51A0.51,0.51,0,0,1,234,21.54Zm0.44,1.67v2.72h-0.88V23.21h0.88Z" transform="translate(-0.9 -4.68)"/><path class="b" d="M238.11,25.93h-0.88V25.6a1,1,0,0,1-.86.42,1.22,1.22,0,0,1-.93-0.37,1.53,1.53,0,0,1-.43-1.09,1.45,1.45,0,0,1,.43-1.07,1.37,1.37,0,0,1,.95-0.37,1,1,0,0,1,.85.4v-2h0.88v4.45Zm-2-1.87a0.7,0.7,0,0,0-.21.52,0.69,0.69,0,0,0,.21.5,0.68,0.68,0,0,0,.46.19,0.75,0.75,0,0,0,.5-0.2,0.66,0.66,0,0,0,.2-0.49,0.7,0.7,0,0,0-.2-0.5,0.65,0.65,0,0,0-.5-0.2A0.64,0.64,0,0,0,236.12,24.06Z" transform="translate(-0.9 -4.68)"/><path class="b" d="M241.6,24.72h-2a0.74,0.74,0,0,0,.17.46,0.59,0.59,0,0,0,.45.17,0.73,0.73,0,0,0,.35-0.08,0.53,0.53,0,0,0,.19-0.23l0.83,0.08a1.21,1.21,0,0,1-.52.68,1.61,1.61,0,0,1-.86.2,1.41,1.41,0,0,1-1.09-.39,1.47,1.47,0,0,1-.41-1,1.55,1.55,0,0,1,.42-1.07,1.61,1.61,0,0,1,2.12,0,1.55,1.55,0,0,1,.38,1.11v0.09Zm-0.81-.53a0.69,0.69,0,0,0-.18-0.32,0.65,0.65,0,0,0-.86,0,0.62,0.62,0,0,0-.15.29h1.19Z" transform="translate(-0.9 -4.68)"/></svg>