<svg xmlns="http://www.w3.org/2000/svg" width="217.438" height="13.812" viewBox="0 0 217.438 13.812">
  <metadata><?xpacket begin="﻿" id="W5M0MpCehiHzreSzNTczkc9d"?>
<x:xmpmeta xmlns:x="adobe:ns:meta/" x:xmptk="Adobe XMP Core 5.6-c138 79.159824, 2016/09/14-01:09:01        ">
   <rdf:RDF xmlns:rdf="http://www.w3.org/1999/02/22-rdf-syntax-ns#">
      <rdf:Description rdf:about=""/>
   </rdf:RDF>
</x:xmpmeta>
                                                                                                    
                                                                                                    
                                                                                                    
                                                                                                    
                                                                                                    
                                                                                                    
                                                                                                    
                                                                                                    
                                                                                                    
                                                                                                    
                                                                                                    
                                                                                                    
                                                                                                    
                                                                                                    
                                                                                                    
                                                                                                    
                                                                                                    
                                                                                                    
                                                                                                    
                                                                                                    
                           
<?xpacket end="w"?></metadata>
<defs>
    <style>
      .cls-1 {
        fill: #131416;
        fill-rule: evenodd;
      }
    </style>
  </defs>
  <path id="CREDITS_A-Z_" data-name="CREDITS (A-Z)" class="cls-1" d="M853.567,141.531H863.7l2.074-2.074v-1.776h-2.514v1.068l-1.006,1.022h-7.181l-1.21-1.21v-4.9l1.21-1.21h7.181l1.006,1.022v0.974h2.514v-1.681l-2.074-2.075H853.567l-2.262,2.263v6.317Zm19.31,0h2.561v-4.086h7.087l2.074,4.086h2.734l-2.341-4.573,1.98-1.98v-2.341l-1.949-1.949H872.877v10.843Zm2.561-5.83v-3.347h8.045l0.927,0.927v1.336l-1.068,1.084h-7.9Zm18.822,5.83h12.194v-1.713h-9.633v-2.86h8.894v-1.7h-8.894v-2.876h9.6v-1.7H894.26v10.843Zm19.452,0h11.974l2.278-2.263v-6.317l-2.278-2.263H913.712v10.843Zm2.562-1.76v-7.323h7.919l1.21,1.21v4.9l-1.21,1.21h-7.919Zm18.335,1.76h9.3v-1.65h-3.378v-7.558h3.378v-1.635h-9.3v1.635h3.362v7.558h-3.362v1.65Zm20.948,0h2.561v-9.02h5.7v-1.823H949.853v1.823h5.7v9.02Zm15.932,0h10.418l1.964-1.949v-2.75l-1.681-1.681h-9.334l-0.55-.534v-1.493l0.755-.754h7.526l0.66,0.66v0.707h2.546v-1.273l-1.776-1.776H971.709l-1.964,1.949v2.608l1.681,1.682h9.334l0.55,0.55v1.587l-0.754.754h-7.621l-0.66-.66v-0.739h-2.546v1.336Zm32.221,1.493h2.97v-1.713h-1.54l-1.21-1.21v-7.967l1.21-1.21h1.54v-1.713h-2.97l-2.28,2.279v9.255Zm8.19-1.493h2.65l1.51-2.64h7.86l1.51,2.64h2.87l-6.33-10.843h-3.74Zm8.09-9.507,2.91,5.091h-5.83Zm12.18,4.95h7.56v-1.823h-7.56v1.823Zm12.24,4.557h13.12v-1.807h-9.41l9.23-7.637v-1.4h-12.7V132.5h8.97l-9.21,7.637v1.4Zm24.34-.786V131.49l-2.28-2.279h-2.97v1.713h1.54l1.21,1.21V140.1l-1.21,1.21h-1.54v1.713h2.97Z" transform="translate(-851.312 -129.219)"/>
</svg>
