<svg xmlns="http://www.w3.org/2000/svg" viewBox="0 0 405.22 26.64"><defs><style>.a{fill:#e9e9e9;}.b{fill:#536a6f;}</style></defs><title>header-search</title><path class="a" d="M3.28,9.29H0.9V5.11H14.65c8.1,0,12.09,5.15,12.09,13,0,8.46-4.54,12.81-12.92,12.81H0.9V26.71H3.28V9.29Zm8.82,17.42c2.63,0,7.45,0,7.45-9.14,0-5.26-1.73-8.28-7.23-8.28H10.19V26.71h1.91Z" transform="translate(-0.9 -4.68)"/><path class="a" d="M31.57,9.29H29V5.11H41.07V9.29H38.48V26.71h2.59v4.17H29V26.71h2.59V9.29Z" transform="translate(-0.9 -4.68)"/><path class="a" d="M61.92,5.11h5.54v9.14h-6a5.82,5.82,0,0,0-.94-3.1,4.58,4.58,0,0,0-4.1-2.09c-4.86,0-5.87,5.69-5.87,9.47s1.15,8.39,5.87,8.39a4.91,4.91,0,0,0,5.26-5H59V17.71H69.55v4.17H67.68v9H62.13V28.26H62.06c-1.3,2.59-4.39,3.06-7.06,3.06-7.34,0-11.7-4.75-11.7-13.61,0-7.16,3.28-13,11.37-13a9.05,9.05,0,0,1,7.24,2.88V5.11Z" transform="translate(-0.9 -4.68)"/><path class="a" d="M89.93,5.11h5.54v9.14h-6a5.82,5.82,0,0,0-.94-3.1,4.58,4.58,0,0,0-4.1-2.09c-4.86,0-5.87,5.69-5.87,9.47s1.15,8.39,5.87,8.39a4.91,4.91,0,0,0,5.26-5H87V17.71H97.56v4.17H95.69v9H90.14V28.26H90.07c-1.3,2.59-4.39,3.06-7.06,3.06-7.34,0-11.7-4.75-11.7-13.61,0-7.16,3.28-13,11.37-13a9.05,9.05,0,0,1,7.24,2.88V5.11Z" transform="translate(-0.9 -4.68)"/><path class="a" d="M101.63,9.29H99V5.11h12.09V9.29h-2.59V26.71h2.59v4.17H99V26.71h2.59V9.29Z" transform="translate(-0.9 -4.68)"/><path class="a" d="M132.12,9.29h-2.77V5.11h10.19V9.29h-2.09v21.6h-8.6l-8.39-19.94h-0.07V26.71h2.84v4.17H112.68V26.71h2.38V9.29h-2.38V5.11h11.48L132,24.52h0.07V9.29Z" transform="translate(-0.9 -4.68)"/><path class="a" d="M160,5.11h5.54v9.14h-6a5.82,5.82,0,0,0-.94-3.1,4.58,4.58,0,0,0-4.1-2.09c-4.86,0-5.87,5.69-5.87,9.47s1.15,8.39,5.87,8.39a4.91,4.91,0,0,0,5.26-5H157V17.71h10.58v4.17h-1.87v9H160.2V28.26h-0.07c-1.3,2.59-4.39,3.06-7.05,3.06-7.34,0-11.7-4.75-11.7-13.61,0-7.16,3.28-13,11.37-13A9.05,9.05,0,0,1,160,7.56V5.11Z" transform="translate(-0.9 -4.68)"/><path class="a" d="M181.69,9.29H179.1V5.11h12.09V9.29H188.6V26.71h2.59v4.17H179.1V26.71h2.59V9.29Z" transform="translate(-0.9 -4.68)"/><path class="a" d="M212.18,9.29h-2.77V5.11H219.6V9.29h-2.09v21.6h-8.6l-8.39-19.94h-0.07V26.71h2.84v4.17H192.74V26.71h2.38V9.29h-2.37V5.11h11.48l7.88,19.4h0.07V9.29Z" transform="translate(-0.9 -4.68)"/><path class="a" d="M247.18,9.29H244.3V26.71h2.88v4.17H234.51V26.71h2.88V9.29h-2.88v5H229V5.11h23.76v9.14h-5.54v-5Z" transform="translate(-0.9 -4.68)"/><path class="a" d="M271,9.29h-2.59V5.11h11.88V9.29h-2.38V26.71h2.38v4.17H268.38V26.71H271V19.94h-8.28v6.77h2.59v4.17H253.41V26.71h2.38V9.29h-2.37V5.11h11.88V9.29h-2.59v6.48H271V9.29Z" transform="translate(-0.9 -4.68)"/><path class="a" d="M292.72,13h4.17v9.43h-4.17V19.73h-2.45v7h8V22.43h5.33v8.46H281.42V26.71h2.38V9.29h-2.37V5.11h22.21v8H298.3V9.29h-8v6.48h2.45V13Z" transform="translate(-0.9 -4.68)"/><path class="a" d="M318.14,9.29h-2.38V5.11h13.75c8.1,0,12.09,5.15,12.09,13,0,8.46-4.54,12.81-12.92,12.81H315.76V26.71h2.38V9.29ZM327,26.71c2.63,0,7.45,0,7.45-9.14,0-5.26-1.73-8.28-7.24-8.28H325V26.71H327Z" transform="translate(-0.9 -4.68)"/><path class="a" d="M346.43,9.29h-2.59V5.11h12.09V9.29h-2.59V26.71h2.59v4.17H343.84V26.71h2.59V9.29Z" transform="translate(-0.9 -4.68)"/><path class="a" d="M371.49,23.11c-0.58-1.73-.94-2.7-3-2.7h-1.66v6.3h2.52v4.17H357.81V26.71h2.38V9.29h-2.38V5.11h14c5.08,0,7.85,2,7.85,6.77,0,4.07-2,5.87-5.87,6.48v0.14c2.88,0.25,3.85.86,4.64,3.67l1.26,4.54h2.12v4.17H374Zm-2.63-6.66c0.72,0,4.1,0,4.1-3.82,0-2.41-1.26-3.35-3.49-3.35h-2.59v7.16h2Z" transform="translate(-0.9 -4.68)"/><path class="a" d="M400.58,9.29H397.7V26.71h2.88v4.17H387.91V26.71h2.88V9.29h-2.88v5h-5.54V5.11h23.76v9.14h-5.54v-5Z" transform="translate(-0.9 -4.68)"/><path d="M146.46,13h1.39v2.36h-1.51a1.71,1.71,0,0,0-.3-1,1.09,1.09,0,0,0-.92-0.42c-1.11,0-1.31,1.45-1.31,2.38s0.16,2.2,1.31,2.2a1.1,1.1,0,0,0,1.09-1.2h1.67a2.36,2.36,0,0,1-2.66,2.24c-2.4,0-3.21-1.57-3.21-3.38s0.88-3.29,2.82-3.29a1.91,1.91,0,0,1,1.63.74V13Z" transform="translate(-0.9 -4.68)"/><path d="M151.7,19.57a3,3,0,0,1-3.19-3.33,3.19,3.19,0,1,1,6.37,0A3,3,0,0,1,151.7,19.57Zm0-5.62c-1.21,0-1.39,1.42-1.39,2.29s0.18,2.29,1.39,2.29,1.39-1.42,1.39-2.29S152.91,13.95,151.7,13.95Z" transform="translate(-0.9 -4.68)"/><path d="M159,13h2.56v1h-0.5v3.18c0,1.68-1.06,2.33-2.65,2.33-2.05,0-2.6-1.25-2.6-2.2V14.06h-0.47V13h2.84v1h-0.64v3.12a1.09,1.09,0,0,0,1,1.34,1.14,1.14,0,0,0,1-1.34V14.06H159V13Z" transform="translate(-0.9 -4.68)"/><path d="M165.58,17H167v2.43h-5.18v-1h0.59V14.06h-0.59V13H165v1h-0.88v4.36h1.41V17Z" transform="translate(-0.9 -4.68)"/><path d="M168,14.06h-0.59V13h3.44c2,0,3,1.29,3,3.24a2.88,2.88,0,0,1-3.23,3.21h-3.23v-1H168V14.06Zm2.21,4.36c0.66,0,1.86,0,1.86-2.29,0-1.31-.43-2.07-1.81-2.07h-0.53v4.36h0.48Z" transform="translate(-0.9 -4.68)"/><path d="M179.21,14.06h-0.69V13h2.55v1h-0.52v5.4h-2.15l-2.1-5h0v3.94H177v1h-2.64v-1h0.59V14.06h-0.59V13h2.87l2,4.85h0V14.06Z" transform="translate(-0.9 -4.68)"/><path d="M181.67,14.53V13h1.57v1.51l-0.45,1.24h-1.12l0.53-1.24h-0.53Z" transform="translate(-0.9 -4.68)"/><path d="M188.29,14.06h-0.72v4.36h0.72v1h-3.17v-1h0.72V14.06h-0.72V15.3h-1.39V13h5.94V15.3h-1.39V14.06Z" transform="translate(-0.9 -4.68)"/><path d="M195.32,15.17h1V17.6h-1V16.84h-0.61v1.58h0.83v1h-3v-1h0.59V14.06H192.5V13H198v2.13h-1.28V14.06h-2v1.79h0.61V15.17Z" transform="translate(-0.9 -4.68)"/><path d="M199.09,14.06h-0.65V13h3v1h-0.65v4.36h0.65v1h-3v-1h0.65V14.06Z" transform="translate(-0.9 -4.68)"/><path d="M206.72,14.06H206V13h2.55v1h-0.52v5.4H205.9l-2.1-5h0v3.94h0.71v1h-2.64v-1h0.59V14.06h-0.59V13h2.87l2,4.85h0V14.06Z" transform="translate(-0.9 -4.68)"/><path d="M209.53,14.06h-0.59V13h3.44c2,0,3,1.29,3,3.24a2.88,2.88,0,0,1-3.23,3.21h-3.23v-1h0.59V14.06Zm2.21,4.36c0.66,0,1.86,0,1.86-2.29,0-1.31-.43-2.07-1.81-2.07h-0.53v4.36h0.48Z" transform="translate(-0.9 -4.68)"/><path d="M222.32,17.61H220.2l-0.27.8h0.69v1H218v-1h0.39l2-5.4h2l2,5.4h0.37v1h-2.84v-1h0.67Zm-1-3.27h0l-0.67,2.28h1.36Z" transform="translate(-0.9 -4.68)"/><path d="M232.72,13h3v1h-0.54v4.36h0.54v1h-2.65v-1h0.59V14.15h0l-1.38,5.31h-1.57l-1.38-5.4h0v4.36h0.59v1h-2.41v-1h0.54V14.06h-0.54V13h3.08l1,4.65h0Z" transform="translate(-0.9 -4.68)"/><path d="M238.86,15h1v2.36h-1V16.67h-0.61v1.75h2V17.34h1.33v2.12H236v-1h0.59V14.06H236V13h5.55v2h-1.33v-1h-2v1.62h0.61V15Z" transform="translate(-0.9 -4.68)"/><path d="M246.47,14.06h-0.72v4.36h0.72v1H243.3v-1H244V14.06H243.3V15.3h-1.39V13h5.94V15.3h-1.39V14.06Z" transform="translate(-0.9 -4.68)"/><path d="M250.85,15h1v2.36h-1V16.67h-0.61v1.75h2V17.34h1.33v2.12H248v-1h0.59V14.06H248V13h5.55v2h-1.33v-1h-2v1.62h0.61V15Z" transform="translate(-0.9 -4.68)"/><path d="M257.53,17.51a0.7,0.7,0,0,0-.74-0.68h-0.41v1.58H257v1h-2.9v-1h0.59V14.06h-0.59V13h3.5c1.27,0,2,.5,2,1.69a1.47,1.47,0,0,1-1.47,1.62v0a1,1,0,0,1,1.16.92l0.31,1.13h0.53v1h-2Zm-0.66-1.67a0.91,0.91,0,0,0,1-1,0.75,0.75,0,0,0-.87-0.84h-0.65v1.79h0.5Z" transform="translate(-0.9 -4.68)"/><path class="b" d="M170.52,25.93V21.74h2a1,1,0,0,1,1.2,1,1.06,1.06,0,0,1-.78,1,0.89,0.89,0,0,1,.83,1,1.13,1.13,0,0,1-1.31,1.24h-1.9Zm1.87-.67a0.46,0.46,0,0,0,.52-0.53,0.63,0.63,0,0,0-.77-0.65H171.9v-0.5a0.91,0.91,0,0,0,1-.81,0.35,0.35,0,0,0-.43-0.35h-1.14v2.84h1.09Z" transform="translate(-0.9 -4.68)"/><path class="b" d="M174.39,24.29V21.74h0.78v2.54a1,1,0,0,0,2.05,0V21.74H178v2.54A1.81,1.81,0,0,1,174.39,24.29Z" transform="translate(-0.9 -4.68)"/><path class="b" d="M181.61,21.74v0.67h-1.2v3.52h-0.78V22.42h-1.2V21.74h3.18Z" transform="translate(-0.9 -4.68)"/><path class="b" d="M183.37,25.93V21.74h0.78v1.73h2.07V21.74H187v4.19h-0.78V24.15h-2.07v1.79h-0.78Z" transform="translate(-0.9 -4.68)"/><path class="b" d="M190.73,21.74v0.67h-2.1v1.05h2v0.69h-2v1.1h2.15v0.67h-2.91V21.74h2.87Z" transform="translate(-0.9 -4.68)"/><path class="b" d="M191.49,25.93V21.74h1.9a1.07,1.07,0,0,1,1.28,1.12,1.46,1.46,0,0,1-1,1.26L195,25.93h-1l-1.27-1.83V23.75a1,1,0,0,0,1.11-.86,0.44,0.44,0,0,0-.52-0.46h-1.06v3.5h-0.79Z" transform="translate(-0.9 -4.68)"/><path class="b" d="M198.24,21.74v0.67h-2.1v1.05h2v0.69h-2v1.1h2.15v0.67h-2.91V21.74h2.87Z" transform="translate(-0.9 -4.68)"/><path class="b" d="M199.86,21.74L199.43,23h-0.72l0.44-1.27h0.72Z" transform="translate(-0.9 -4.68)"/><path class="b" d="M200.38,25.76v-0.7a4.06,4.06,0,0,0,1.42.23q1,0,1-.64a0.48,0.48,0,0,0-.59-0.47h-0.66A1.09,1.09,0,0,1,200.23,23q0-1.29,1.83-1.29a4.28,4.28,0,0,1,1.33.21v0.7a3.79,3.79,0,0,0-1.33-.23q-1.05,0-1.05.62a0.43,0.43,0,0,0,.51.47h0.66a1.13,1.13,0,0,1,1.37,1.17q0,1.32-1.74,1.32A4.59,4.59,0,0,1,200.38,25.76Z" transform="translate(-0.9 -4.68)"/><path class="b" d="M208.15,25.93h-0.78V25h-2.12V24.44l1.71-2.7h0.83l-1.66,2.67h1.23V23h0.78v1.4l0.43,0.4V25h-0.43v0.91Z" transform="translate(-0.9 -4.68)"/><path class="b" d="M210.41,25.93V21.74h2a1,1,0,0,1,1.2,1,1.06,1.06,0,0,1-.78,1,0.89,0.89,0,0,1,.83,1,1.13,1.13,0,0,1-1.31,1.24h-1.9Zm1.87-.67a0.46,0.46,0,0,0,.52-0.53,0.63,0.63,0,0,0-.77-0.65h-0.23v-0.5a0.91,0.91,0,0,0,1-.81,0.35,0.35,0,0,0-.43-0.35h-1.14v2.84h1.09Z" transform="translate(-0.9 -4.68)"/><path class="b" d="M214.28,24.29V21.74h0.78v2.54a1,1,0,0,0,2.05,0V21.74h0.78v2.54A1.81,1.81,0,0,1,214.28,24.29Z" transform="translate(-0.9 -4.68)"/><path class="b" d="M222.1,25.76a3.46,3.46,0,0,1-1.23.21,2,2,0,0,1-2.26-2.18q0-2.07,2.26-2.07a3.46,3.46,0,0,1,1.23.21v0.7a2.92,2.92,0,0,0-1.17-.23,1.28,1.28,0,0,0-1.51,1.39,1.33,1.33,0,0,0,1.51,1.51,2.92,2.92,0,0,0,1.17-.23v0.7Z" transform="translate(-0.9 -4.68)"/><path class="b" d="M223.61,21.74v4.19h-0.78V21.74h0.78Zm2.95,0-1.79,2,2,2.24h-1.08l-1.62-2v-0.5l1.56-1.73h0.95Z" transform="translate(-0.9 -4.68)"/><path class="b" d="M227,25.76v-0.7a4.06,4.06,0,0,0,1.42.23q1,0,1-.64a0.48,0.48,0,0,0-.59-0.47h-0.66A1.09,1.09,0,0,1,226.82,23q0-1.29,1.83-1.29a4.28,4.28,0,0,1,1.33.21v0.7a3.79,3.79,0,0,0-1.33-.23q-1.05,0-1.05.62a0.43,0.43,0,0,0,.51.47h0.66a1.13,1.13,0,0,1,1.37,1.17q0,1.32-1.74,1.32A4.59,4.59,0,0,1,227,25.76Z" transform="translate(-0.9 -4.68)"/><path class="b" d="M231.57,21.74v3.11h-0.78V21.74h0.78Zm0,3.47v0.72h-0.78V25.21h0.78Z" transform="translate(-0.9 -4.68)"/></svg>