<svg xmlns="http://www.w3.org/2000/svg" viewBox="0 0 346.72 26.64"><defs><style>.a{fill:#e9e9e9;}.b{fill:#536a6f;}</style></defs><title>header-music</title><path class="a" d="M44.76,23.51H36.3l-1.08,3.2H38v4.17H27.63V26.71h1.55l8-21.6h8L53,26.71h1.48v4.17H43.14V26.71H45.8ZM40.59,10.44H40.51l-2.7,9.11h5.44Z" transform="translate(-27.63 -4.68)"/><path class="a" d="M68.82,5.11H79V9.29h-2V22c0,6.73-4.25,9.32-10.58,9.32-8.21,0-10.4-5-10.4-8.78V9.29H54.2V5.11H65.54V9.29H63V21.78c0,2.77.83,5.36,4.14,5.36,3,0,4.18-2.59,4.18-5.36V9.29H68.82V5.11Z" transform="translate(-27.63 -4.68)"/><path class="a" d="M82.89,9.29H80.52V5.11H94.27c8.1,0,12.09,5.15,12.09,13,0,8.46-4.54,12.81-12.92,12.81H80.52V26.71h2.38V9.29Zm8.82,17.42c2.63,0,7.45,0,7.45-9.14,0-5.26-1.73-8.28-7.23-8.28H89.8V26.71h1.91Z" transform="translate(-27.63 -4.68)"/><path class="a" d="M111.19,9.29H108.6V5.11h12.09V9.29H118.1V26.71h2.59v4.17H108.6V26.71h2.59V9.29Z" transform="translate(-27.63 -4.68)"/><path class="a" d="M135.67,31.32c-8.39,0-12.74-5.58-12.74-13.32s4.36-13.32,12.74-13.32S148.41,10.26,148.41,18,144.06,31.32,135.67,31.32Zm0-22.46c-4.82,0-5.54,5.69-5.54,9.14s0.72,9.14,5.54,9.14,5.54-5.69,5.54-9.14S140.49,8.86,135.67,8.86Z" transform="translate(-27.63 -4.68)"/><path class="a" d="M178.72,5.11h5.54v9.43h-6a6.82,6.82,0,0,0-1.19-4,4.34,4.34,0,0,0-3.67-1.69c-4.43,0-5.22,5.8-5.22,9.5,0,3.38.65,8.78,5.22,8.78,3.74,0,4.18-3.2,4.36-4.79h6.7c-0.25,6.23-5.15,9-10.62,9-9.57,0-12.85-6.26-12.85-13.5s3.53-13.14,11.27-13.14a7.64,7.64,0,0,1,6.52,3V5.11Z" transform="translate(-27.63 -4.68)"/><path class="a" d="M203.38,23.51h-8.46l-1.08,3.2h2.77v4.17H186.25V26.71h1.55l8-21.6h8l7.88,21.6h1.48v4.17H201.76V26.71h2.66Zm-4.18-13.07h-0.07l-2.7,9.11h5.44Z" transform="translate(-27.63 -4.68)"/><path class="a" d="M229.34,9.29h-2.88V26.71h2.88v4.17H216.67V26.71h2.88V9.29h-2.88v5h-5.54V5.11h23.76v9.14h-5.54v-5Z" transform="translate(-27.63 -4.68)"/><path class="a" d="M253.14,9.29h-2.59V5.11h11.88V9.29H260V26.71h2.38v4.17H250.54V26.71h2.59V19.94h-8.28v6.77h2.59v4.17H235.57V26.71h2.38V9.29h-2.37V5.11h11.88V9.29h-2.59v6.48h8.28V9.29Z" transform="translate(-27.63 -4.68)"/><path class="a" d="M280.71,23.51h-8.46l-1.08,3.2h2.77v4.17H263.58V26.71h1.55l8-21.6h8L289,26.71h1.48v4.17H279.09V26.71h2.66Zm-4.18-13.07h-0.07l-2.7,9.11h5.44Z" transform="translate(-27.63 -4.68)"/><path class="a" d="M305.59,23.11c-0.58-1.73-.94-2.7-3-2.7H301v6.3h2.52v4.17H291.91V26.71h2.38V9.29h-2.38V5.11h14c5.08,0,7.85,2,7.85,6.77,0,4.07-2,5.87-5.87,6.48v0.14c2.88,0.25,3.85.86,4.64,3.67l1.26,4.54h2.12v4.17h-7.81ZM303,16.45c0.72,0,4.1,0,4.1-3.82,0-2.41-1.26-3.35-3.49-3.35H301v7.16h2Z" transform="translate(-27.63 -4.68)"/><path class="a" d="M332.41,5.11h5.33v8.28h-5.54c0-2.05-.72-4.54-3.85-4.54-2,0-3.42.79-3.42,2.38,0,1.84,1,2.23,6.7,4.46,4.36,1.69,6.7,3.1,6.7,7.7,0,5.54-3.46,7.92-8.89,7.92-2.48,0-4.43-.36-5.79-2.56h-0.07v2.12H318V22h5.9a6,6,0,0,0,.9,3.71,4.06,4.06,0,0,0,3.49,1.48,2.8,2.8,0,0,0,3.1-2.81c0-1.94-1-2.59-6.59-4.5-3.28-1.12-6.59-2.7-6.59-6.91,0-5.58,2.84-8.24,8.39-8.24,1.91,0,4.75.5,5.72,2.41h0.07v-2Z" transform="translate(-27.63 -4.68)"/><path class="a" d="M342.56,9.29H340V5.11h12.09V9.29h-2.59V26.71h2.59v4.17H340V26.71h2.59V9.29Z" transform="translate(-27.63 -4.68)"/><path class="a" d="M368.44,5.11h5.33v8.28h-5.54c0-2.05-.72-4.54-3.85-4.54-2,0-3.42.79-3.42,2.38,0,1.84,1,2.23,6.7,4.46,4.36,1.69,6.7,3.1,6.7,7.7,0,5.54-3.46,7.92-8.89,7.92-2.48,0-4.43-.36-5.79-2.56h-0.07v2.12H354V22h5.9a6,6,0,0,0,.9,3.71,4.06,4.06,0,0,0,3.49,1.48,2.8,2.8,0,0,0,3.1-2.81c0-1.94-1-2.59-6.59-4.5-3.28-1.12-6.59-2.7-6.59-6.91,0-5.58,2.84-8.24,8.39-8.24,1.91,0,4.75.5,5.72,2.41h0.07v-2Z" transform="translate(-27.63 -4.68)"/><path d="M111.15,14.06h-0.65V13h2.38v1h-0.34l-1.25,5.4h-2l-0.74-5h0l-0.86,5h-2l-1.22-5.4h-0.35V13h2.63v1h-0.66l0.66,4h0L107.77,13h1.8l0.86,5.06h0Z" transform="translate(-27.63 -4.68)"/><path d="M116,15h1v2.36h-1V16.67h-0.61v1.75h2V17.34h1.33v2.12h-5.55v-1h0.59V14.06h-0.59V13h5.55v2h-1.33v-1h-2v1.62H116V15Z" transform="translate(-27.63 -4.68)"/><path d="M125,19.57a3,3,0,0,1-3.19-3.33,3.19,3.19,0,1,1,6.37,0A3,3,0,0,1,125,19.57Zm0-5.62c-1.21,0-1.39,1.42-1.39,2.29s0.18,2.29,1.39,2.29,1.39-1.42,1.39-2.29S126.24,13.95,125,13.95Z" transform="translate(-27.63 -4.68)"/><path d="M133.54,14.06h-0.69V13h2.55v1h-0.52v5.4h-2.15l-2.1-5h0v3.94h0.71v1h-2.64v-1h0.59V14.06h-0.59V13h2.87l2,4.85h0V14.06Z" transform="translate(-27.63 -4.68)"/><path d="M139.41,17h1.44v2.43h-5.18v-1h0.59V14.06h-0.59V13h3.21v1H138v4.36h1.41V17Z" transform="translate(-27.63 -4.68)"/><path d="M144.56,14.06H144V13h2.57v1h-0.38l-1.86,3.07v1.29h0.76v1h-3.24v-1h0.76V17.13l-1.88-3.07h-0.36V13h2.88v1h-0.61l1,1.77Z" transform="translate(-27.63 -4.68)"/><path d="M153.74,14.06h-0.65V13h3v1h-0.59v4.36h0.59v1h-3v-1h0.65V16.72h-2.07v1.69h0.65v1h-3v-1h0.59V14.06h-0.59V13h3v1h-0.65v1.62h2.07V14.06Z" transform="translate(-27.63 -4.68)"/><path d="M159.18,15h1v2.36h-1V16.67h-0.61v1.75h2V17.34h1.33v2.12h-5.55v-1h0.59V14.06h-0.59V13h5.55v2h-1.33v-1h-2v1.62h0.61V15Z" transform="translate(-27.63 -4.68)"/><path d="M166.64,17.61h-2.12l-0.27.8h0.69v1h-2.59v-1h0.39l2-5.4h2l2,5.4h0.37v1h-2.84v-1h0.67Zm-1-3.27h0l-0.68,2.28h1.36Z" transform="translate(-27.63 -4.68)"/><path d="M172.86,17.51a0.7,0.7,0,0,0-.74-0.68h-0.41v1.58h0.63v1h-2.9v-1H170V14.06h-0.59V13h3.5c1.27,0,2,.5,2,1.69a1.47,1.47,0,0,1-1.47,1.62v0a1,1,0,0,1,1.16.92l0.31,1.13h0.53v1h-2Zm-0.66-1.67a0.91,0.91,0,0,0,1-1,0.75,0.75,0,0,0-.87-0.84h-0.65v1.79h0.5Z" transform="translate(-27.63 -4.68)"/><path d="M185,14.06h-0.65V13h2.38v1H186.4l-1.25,5.4h-2l-0.74-5h0l-0.86,5h-2l-1.22-5.4H178V13h2.63v1H180l0.66,4h0L181.63,13h1.8l0.86,5.06h0Z" transform="translate(-27.63 -4.68)"/><path d="M191.42,14.06h-0.65V13h3v1h-0.59v4.36h0.59v1h-3v-1h0.65V16.72h-2.07v1.69H190v1h-3v-1h0.59V14.06H187V13h3v1h-0.65v1.62h2.07V14.06Z" transform="translate(-27.63 -4.68)"/><path d="M198.31,17.61H196.2l-0.27.8h0.69v1H194v-1h0.39l2-5.4h2l2,5.4h0.37v1h-2.84v-1h0.67Zm-1-3.27h0l-0.68,2.28h1.36Z" transform="translate(-27.63 -4.68)"/><path d="M204.8,14.06h-0.72v4.36h0.72v1h-3.17v-1h0.72V14.06h-0.72V15.3h-1.39V13h5.94V15.3H204.8V14.06Z" transform="translate(-27.63 -4.68)"/><path d="M215.51,14.06h-0.65V13h2.38v1H216.9l-1.25,5.4h-2l-0.74-5h0l-0.86,5h-2l-1.22-5.4h-0.35V13h2.63v1H210.5l0.66,4h0L212.13,13h1.8l0.86,5.06h0Z" transform="translate(-27.63 -4.68)"/><path d="M220.35,15h1v2.36h-1V16.67h-0.61v1.75h2V17.34h1.33v2.12h-5.55v-1h0.59V14.06h-0.59V13h5.55v2h-1.33v-1h-2v1.62h0.61V15Z" transform="translate(-27.63 -4.68)"/><path d="M232.69,14.06H232V13h2.38v1h-0.34l-1.25,5.4h-2l-0.74-5h0l-0.86,5h-2l-1.21-5.4H225.7V13h2.63v1h-0.66l0.66,4h0L229.3,13h1.8L232,18.07h0Z" transform="translate(-27.63 -4.68)"/><path d="M238.32,17.61H236.2l-0.27.8h0.69v1H234v-1h0.39l2-5.4h2l2,5.4h0.37v1h-2.83v-1h0.67Zm-1-3.27h0l-0.68,2.28h1.36Z" transform="translate(-27.63 -4.68)"/><path d="M245.9,14.06H245.2V13h2.55v1h-0.52v5.4h-2.15l-2.1-5h0v3.94h0.71v1H241v-1h0.59V14.06H241V13h2.87l2,4.85h0V14.06Z" transform="translate(-27.63 -4.68)"/><path d="M252.48,14.06h-0.72v4.36h0.72v1h-3.17v-1H250V14.06h-0.72V15.3h-1.39V13h5.94V15.3h-1.39V14.06Z" transform="translate(-27.63 -4.68)"/><path d="M260.64,14.06h-0.72v4.36h0.72v1h-3.17v-1h0.72V14.06h-0.72V15.3h-1.39V13H262V15.3h-1.39V14.06Z" transform="translate(-27.63 -4.68)"/><path d="M265.55,19.57a3,3,0,0,1-3.19-3.33,3.19,3.19,0,1,1,6.37,0A3,3,0,0,1,265.55,19.57Zm0-5.62c-1.21,0-1.39,1.42-1.39,2.29s0.18,2.29,1.39,2.29,1.39-1.42,1.39-2.29S266.76,13.95,265.55,13.95Z" transform="translate(-27.63 -4.68)"/><path d="M276.09,14.06h-0.65V13h3v1h-0.59v4.36h0.59v1h-3v-1h0.65V16.72H274v1.69h0.65v1h-3v-1h0.59V14.06H271.7V13h3v1H274v1.62h2.07V14.06Z" transform="translate(-27.63 -4.68)"/><path d="M281.53,15h1v2.36h-1V16.67h-0.61v1.75h2V17.34h1.33v2.12H278.7v-1h0.59V14.06H278.7V13h5.55v2h-1.33v-1h-2v1.62h0.61V15Z" transform="translate(-27.63 -4.68)"/><path d="M289,17.61h-2.12l-0.27.8h0.69v1H284.7v-1h0.39l2-5.4h2l2,5.4h0.37v1h-2.83v-1h0.67Zm-1-3.27h0l-0.68,2.28h1.36Z" transform="translate(-27.63 -4.68)"/><path d="M295.21,17.51a0.7,0.7,0,0,0-.74-0.68h-0.41v1.58h0.63v1h-2.9v-1h0.59V14.06h-0.59V13h3.5c1.27,0,2,.5,2,1.69a1.47,1.47,0,0,1-1.47,1.62v0a1,1,0,0,1,1.16.92l0.31,1.13h0.53v1h-2Zm-0.66-1.67a0.91,0.91,0,0,0,1-1,0.75,0.75,0,0,0-.87-0.84h-0.65v1.79h0.5Z" transform="translate(-27.63 -4.68)"/><path class="b" d="M147.93,21.48v2a1,1,0,0,1,.85-0.4,1.37,1.37,0,0,1,.95.37,1.45,1.45,0,0,1,.43,1.07,1.53,1.53,0,0,1-.43,1.09,1.22,1.22,0,0,1-.93.37,1,1,0,0,1-.86-0.42v0.33H147V21.48h0.88Zm0.14,2.59a0.7,0.7,0,0,0-.2.5,0.66,0.66,0,0,0,.2.49,0.75,0.75,0,0,0,.5.2,0.68,0.68,0,0,0,.46-0.19,0.69,0.69,0,0,0,.21-0.5,0.7,0.7,0,0,0-.21-0.52A0.7,0.7,0,0,0,148.07,24.08Z" transform="translate(-27.63 -4.68)"/><path class="b" d="M151.58,23.21v1.5a0.57,0.57,0,0,0,.15.44,0.52,0.52,0,0,0,.37.13,0.55,0.55,0,0,0,.37-0.13,0.59,0.59,0,0,0,.15-0.44v-1.5h0.88V24.8a1.09,1.09,0,0,1-.31.87,1.87,1.87,0,0,1-2.19,0,1,1,0,0,1-.3-0.82V23.21h0.88Z" transform="translate(-27.63 -4.68)"/><path class="b" d="M155.08,23.92v2H154.2v-2h-0.31V23.21h0.31V22.33h0.88v0.88h0.54v0.71h-0.54Z" transform="translate(-27.63 -4.68)"/><path class="b" d="M157.42,23.21h0.88v0.32a0.86,0.86,0,0,1,.76-0.38,1,1,0,0,1,.51.12,0.8,0.8,0,0,1,.33.38,1,1,0,0,1,.35-0.35,1,1,0,0,1,.58-0.15,0.94,0.94,0,0,1,1,1.07v1.72H161V24.55a0.9,0.9,0,0,0-.12-0.53,0.4,0.4,0,0,0-.32-0.15,0.42,0.42,0,0,0-.34.17,0.87,0.87,0,0,0-.13.54v1.35h-0.88V24.52a0.73,0.73,0,0,0-.14-0.53,0.4,0.4,0,0,0-.29-0.11,0.43,0.43,0,0,0-.31.11,0.83,0.83,0,0,0-.17.56v1.39h-0.88V23.21Z" transform="translate(-27.63 -4.68)"/><path class="b" d="M163.44,23.21v1.5a0.57,0.57,0,0,0,.15.44,0.52,0.52,0,0,0,.37.13,0.54,0.54,0,0,0,.37-0.13,0.59,0.59,0,0,0,.15-0.44v-1.5h0.88V24.8a1.09,1.09,0,0,1-.31.87,1.87,1.87,0,0,1-2.19,0,1,1,0,0,1-.3-0.82V23.21h0.88Z" transform="translate(-27.63 -4.68)"/><path class="b" d="M167.7,23.91a1,1,0,0,0-.48-0.15,0.38,0.38,0,0,0-.25.08,0.19,0.19,0,0,0-.05.12,0.14,0.14,0,0,0,.09.12,1.69,1.69,0,0,0,.26.09l0.23,0.07a1.15,1.15,0,0,1,.45.24,0.65,0.65,0,0,1,.21.52,1,1,0,0,1-.28.71A1.18,1.18,0,0,1,167,26a1.62,1.62,0,0,1-1.12-.39l0.37-.59a1.46,1.46,0,0,0,.3.2,0.83,0.83,0,0,0,.37.08,0.49,0.49,0,0,0,.27-0.06,0.23,0.23,0,0,0,.09-0.18,0.18,0.18,0,0,0-.1-0.16,1.16,1.16,0,0,0-.27-0.1l-0.22-.07a1.09,1.09,0,0,1-.44-0.25,0.67,0.67,0,0,1-.2-0.49,0.84,0.84,0,0,1,.26-0.63,1.2,1.2,0,0,1,.82-0.27,1.72,1.72,0,0,1,.9.23Z" transform="translate(-27.63 -4.68)"/><path class="b" d="M169.19,21.54a0.51,0.51,0,1,1-.51.51A0.51,0.51,0,0,1,169.19,21.54Zm0.44,1.67v2.72h-0.88V23.21h0.88Z" transform="translate(-27.63 -4.68)"/><path class="b" d="M172.41,24.07a0.89,0.89,0,0,0-.57-0.21,0.7,0.7,0,0,0-.5.2,0.72,0.72,0,0,0-.2.51,0.7,0.7,0,0,0,.18.49,0.72,0.72,0,0,0,.53.22,0.86,0.86,0,0,0,.56-0.21v0.79a1.37,1.37,0,0,1-.7.17,1.46,1.46,0,0,1-1.06-.41,1.42,1.42,0,0,1-.43-1,1.43,1.43,0,0,1,1.49-1.46,1.56,1.56,0,0,1,.69.15v0.8Z" transform="translate(-27.63 -4.68)"/><path class="b" d="M174.42,23.21h0.88v0.43a1,1,0,0,1,.34-0.38,0.84,0.84,0,0,1,.47-0.12,0.89,0.89,0,0,1,.29,0l0,0.82a0.84,0.84,0,0,0-.4-0.1,0.57,0.57,0,0,0-.44.18,1,1,0,0,0-.21.73v1.1h-0.88V23.21Z" transform="translate(-27.63 -4.68)"/><path class="b" d="M179.46,24.72h-2a0.74,0.74,0,0,0,.17.46,0.59,0.59,0,0,0,.45.17,0.73,0.73,0,0,0,.35-0.08,0.53,0.53,0,0,0,.19-0.23l0.83,0.08a1.21,1.21,0,0,1-.52.68,1.61,1.61,0,0,1-.86.2,1.41,1.41,0,0,1-1.09-.39,1.47,1.47,0,0,1-.41-1,1.55,1.55,0,0,1,.42-1.07,1.61,1.61,0,0,1,2.12,0,1.55,1.55,0,0,1,.38,1.11v0.09Zm-0.81-.53a0.69,0.69,0,0,0-.18-0.32,0.65,0.65,0,0,0-.86,0,0.62,0.62,0,0,0-.15.29h1.19Z" transform="translate(-27.63 -4.68)"/><path class="b" d="M180.64,23.21l0.69,1.46L182,23.21h1l-1.38,2.72h-0.55l-1.38-2.72h1Z" transform="translate(-27.63 -4.68)"/><path class="b" d="M186,24.72h-2a0.74,0.74,0,0,0,.17.46,0.59,0.59,0,0,0,.45.17,0.73,0.73,0,0,0,.35-0.08,0.53,0.53,0,0,0,.19-0.23L186,25.14a1.21,1.21,0,0,1-.52.68,1.61,1.61,0,0,1-.86.2,1.41,1.41,0,0,1-1.09-.39,1.47,1.47,0,0,1-.41-1,1.55,1.55,0,0,1,.42-1.07,1.61,1.61,0,0,1,2.12,0,1.55,1.55,0,0,1,.38,1.11v0.09Zm-0.81-.53a0.69,0.69,0,0,0-.18-0.32,0.65,0.65,0,0,0-.86,0,0.62,0.62,0,0,0-.15.29h1.19Z" transform="translate(-27.63 -4.68)"/><path class="b" d="M186.58,23.21h0.88v0.43a1,1,0,0,1,.34-0.38,0.84,0.84,0,0,1,.47-0.12,0.89,0.89,0,0,1,.29,0l0,0.82a0.84,0.84,0,0,0-.4-0.1,0.57,0.57,0,0,0-.44.18,1,1,0,0,0-.21.73v1.1h-0.88V23.21Z" transform="translate(-27.63 -4.68)"/><path class="b" d="M189.83,21.48v2a1,1,0,0,1,.85-0.4,1.37,1.37,0,0,1,.95.37,1.46,1.46,0,0,1,.43,1.07,1.53,1.53,0,0,1-.43,1.09,1.22,1.22,0,0,1-.93.37,1,1,0,0,1-.86-0.42v0.33h-0.88V21.48h0.88ZM190,24.08a0.7,0.7,0,0,0-.2.5,0.66,0.66,0,0,0,.2.49,0.75,0.75,0,0,0,.5.2,0.67,0.67,0,0,0,.46-0.19,0.69,0.69,0,0,0,.21-0.5,0.7,0.7,0,0,0-.21-0.52A0.7,0.7,0,0,0,190,24.08Z" transform="translate(-27.63 -4.68)"/><path class="b" d="M195.39,24.72h-2a0.74,0.74,0,0,0,.17.46,0.59,0.59,0,0,0,.45.17,0.73,0.73,0,0,0,.35-0.08,0.54,0.54,0,0,0,.19-0.23l0.83,0.08a1.22,1.22,0,0,1-.53.68,1.61,1.61,0,0,1-.86.2,1.41,1.41,0,0,1-1.09-.39,1.46,1.46,0,0,1-.41-1,1.55,1.55,0,0,1,.41-1.07,1.61,1.61,0,0,1,2.13,0,1.55,1.55,0,0,1,.38,1.11v0.09Zm-0.81-.53a0.69,0.69,0,0,0-.18-0.32,0.65,0.65,0,0,0-.86,0,0.61,0.61,0,0,0-.15.29h1.19Z" transform="translate(-27.63 -4.68)"/><path class="b" d="M195.93,23.21h0.88v0.43a1,1,0,0,1,.34-0.38,0.84,0.84,0,0,1,.47-0.12,0.89,0.89,0,0,1,.29,0l0,0.82a0.84,0.84,0,0,0-.4-0.1,0.57,0.57,0,0,0-.44.18,1,1,0,0,0-.21.73v1.1h-0.88V23.21Z" transform="translate(-27.63 -4.68)"/><path class="b" d="M200.27,23.21h0.88v2.72h-0.88V25.6a0.91,0.91,0,0,1-.8.42,1.29,1.29,0,0,1-1-.42,1.44,1.44,0,0,1-.4-1,1.55,1.55,0,0,1,.42-1.1,1.31,1.31,0,0,1,.95-0.37,1,1,0,0,1,.85.4v-0.3Zm-1.12.86a0.68,0.68,0,0,0-.2.49,0.7,0.7,0,0,0,.18.49,0.72,0.72,0,0,0,.52.21,0.65,0.65,0,0,0,.46-0.19,0.72,0.72,0,0,0,0-1,0.73,0.73,0,0,0-.49-0.19A0.69,0.69,0,0,0,199.15,24.07Z" transform="translate(-27.63 -4.68)"/><path class="b" d="M202.73,23.92v2h-0.88v-2h-0.31V23.21h0.31V22.33h0.88v0.88h0.54v0.71h-0.54Z" transform="translate(-27.63 -4.68)"/><path class="b" d="M206.44,24.72h-2a0.74,0.74,0,0,0,.17.46,0.59,0.59,0,0,0,.45.17,0.73,0.73,0,0,0,.35-0.08,0.53,0.53,0,0,0,.19-0.23l0.83,0.08a1.21,1.21,0,0,1-.52.68,1.61,1.61,0,0,1-.86.2,1.41,1.41,0,0,1-1.09-.39,1.47,1.47,0,0,1-.41-1,1.55,1.55,0,0,1,.42-1.07,1.61,1.61,0,0,1,2.12,0,1.55,1.55,0,0,1,.38,1.11v0.09Zm-0.81-.53a0.69,0.69,0,0,0-.18-0.32,0.65,0.65,0,0,0-.86,0,0.62,0.62,0,0,0-.15.29h1.19Z" transform="translate(-27.63 -4.68)"/><path class="b" d="M208.66,23.91a1,1,0,0,0-.48-0.15,0.38,0.38,0,0,0-.25.08,0.19,0.19,0,0,0-.05.12,0.14,0.14,0,0,0,.08.12,1.71,1.71,0,0,0,.26.09l0.23,0.07a1.14,1.14,0,0,1,.45.24,0.65,0.65,0,0,1,.21.52,1,1,0,0,1-.28.71A1.17,1.17,0,0,1,208,26a1.62,1.62,0,0,1-1.12-.39l0.37-.59a1.46,1.46,0,0,0,.3.2,0.83,0.83,0,0,0,.37.08,0.49,0.49,0,0,0,.27-0.06,0.23,0.23,0,0,0,.09-0.18,0.18,0.18,0,0,0-.1-0.16,1.15,1.15,0,0,0-.27-0.1l-0.22-.07a1.09,1.09,0,0,1-.44-0.25A0.67,0.67,0,0,1,207,24a0.84,0.84,0,0,1,.26-0.63,1.2,1.2,0,0,1,.82-0.27,1.73,1.73,0,0,1,.9.23Z" transform="translate(-27.63 -4.68)"/><path class="b" d="M212,23.92v2h-0.88v-2h-0.3V23.21h0.3V22.33H212v0.88h0.54v0.71H212Z" transform="translate(-27.63 -4.68)"/><path class="b" d="M212.91,21.48h0.88v2.05a1.12,1.12,0,0,1,.33-0.28,1,1,0,0,1,.53-0.12,1,1,0,0,1,.77.28,1.08,1.08,0,0,1,.27.79v1.73h-0.88v-1.4a0.73,0.73,0,0,0-.15-0.54,0.5,0.5,0,0,0-.34-0.12A0.48,0.48,0,0,0,214,24a0.78,0.78,0,0,0-.18.57v1.36h-0.88V21.48Z" transform="translate(-27.63 -4.68)"/><path class="b" d="M216.37,23.21h0.88v0.43a1,1,0,0,1,.34-0.38,0.84,0.84,0,0,1,.47-0.12,0.89,0.89,0,0,1,.29,0l0,0.82a0.84,0.84,0,0,0-.4-0.1,0.57,0.57,0,0,0-.44.18,1,1,0,0,0-.21.73v1.1h-0.88V23.21Z" transform="translate(-27.63 -4.68)"/><path class="b" d="M221.27,25.58a1.83,1.83,0,0,1-2.38,0,1.46,1.46,0,0,1,0-2,1.83,1.83,0,0,1,2.38,0A1.46,1.46,0,0,1,221.27,25.58Zm-1.68-1.53a0.75,0.75,0,0,0,0,1,0.67,0.67,0,0,0,.5.2,0.66,0.66,0,0,0,.49-0.2,0.75,0.75,0,0,0,0-1A0.72,0.72,0,0,0,219.59,24.06Z" transform="translate(-27.63 -4.68)"/><path class="b" d="M223.11,23.21v1.5a0.57,0.57,0,0,0,.15.44,0.52,0.52,0,0,0,.37.13,0.54,0.54,0,0,0,.37-0.13,0.59,0.59,0,0,0,.15-0.44v-1.5H225V24.8a1.09,1.09,0,0,1-.3.87,1.87,1.87,0,0,1-2.19,0,1,1,0,0,1-.3-0.82V23.21h0.88Z" transform="translate(-27.63 -4.68)"/><path class="b" d="M227.78,23.21h0.88v2.56a1.59,1.59,0,0,1-.34,1.16,1.56,1.56,0,0,1-1.15.4A1.69,1.69,0,0,1,226,27a1.21,1.21,0,0,1-.41-0.72h1a0.45,0.45,0,0,0,.2.27,0.73,0.73,0,0,0,.38.09,0.62,0.62,0,0,0,.44-0.15,0.81,0.81,0,0,0,.18-0.57V25.6A0.86,0.86,0,0,1,227,26a1.34,1.34,0,0,1-1-.38,1.42,1.42,0,0,1-.4-1,1.56,1.56,0,0,1,.4-1.09,1.34,1.34,0,0,1,1-.39,0.9,0.9,0,0,1,.81.41V23.21Zm-1.09.85a0.75,0.75,0,0,0-.21.51,0.72,0.72,0,0,0,.19.49,0.65,0.65,0,0,0,.5.2,0.68,0.68,0,0,0,.48-0.18,0.72,0.72,0,0,0,.21-0.52,0.69,0.69,0,0,0-.21-0.5,0.73,0.73,0,0,0-.48-0.17A0.72,0.72,0,0,0,226.68,24.06Z" transform="translate(-27.63 -4.68)"/><path class="b" d="M229.36,21.48h0.88v2.05a1.1,1.1,0,0,1,.33-0.28,1,1,0,0,1,.53-0.12,1,1,0,0,1,.77.28,1.08,1.08,0,0,1,.27.79v1.73h-0.88v-1.4a0.73,0.73,0,0,0-.15-0.54,0.5,0.5,0,0,0-.34-0.12,0.48,0.48,0,0,0-.35.13,0.77,0.77,0,0,0-.18.57v1.36h-0.88V21.48Z" transform="translate(-27.63 -4.68)"/><path class="b" d="M237,24.72h-2a0.74,0.74,0,0,0,.17.46,0.59,0.59,0,0,0,.45.17,0.73,0.73,0,0,0,.35-0.08,0.54,0.54,0,0,0,.19-0.23L237,25.14a1.22,1.22,0,0,1-.53.68,1.61,1.61,0,0,1-.86.2,1.41,1.41,0,0,1-1.09-.39,1.46,1.46,0,0,1-.41-1,1.55,1.55,0,0,1,.41-1.07,1.61,1.61,0,0,1,2.13,0,1.55,1.55,0,0,1,.38,1.11v0.09Zm-0.81-.53a0.69,0.69,0,0,0-.18-0.32,0.65,0.65,0,0,0-.86,0,0.61,0.61,0,0,0-.15.29h1.19Z" transform="translate(-27.63 -4.68)"/><path class="b" d="M238.48,23.92v2H237.6v-2H237.3V23.21h0.31V22.33h0.88v0.88H239v0.71h-0.54Z" transform="translate(-27.63 -4.68)"/><path class="b" d="M242.19,24.72h-2a0.74,0.74,0,0,0,.17.46,0.59,0.59,0,0,0,.45.17,0.73,0.73,0,0,0,.35-0.08,0.54,0.54,0,0,0,.19-0.23l0.83,0.08a1.22,1.22,0,0,1-.53.68,1.61,1.61,0,0,1-.86.2,1.41,1.41,0,0,1-1.09-.39,1.46,1.46,0,0,1-.41-1,1.55,1.55,0,0,1,.41-1.07,1.61,1.61,0,0,1,2.13,0,1.55,1.55,0,0,1,.38,1.11v0.09Zm-0.81-.53a0.69,0.69,0,0,0-.18-0.32,0.65,0.65,0,0,0-.86,0,0.61,0.61,0,0,0-.15.29h1.19Z" transform="translate(-27.63 -4.68)"/><path class="b" d="M242.74,23.21h0.88v0.43a1,1,0,0,1,.34-0.38,0.84,0.84,0,0,1,.47-0.12,0.89,0.89,0,0,1,.29,0l0,0.82a0.84,0.84,0,0,0-.4-0.1,0.57,0.57,0,0,0-.44.18,1,1,0,0,0-.21.73v1.1h-0.88V23.21Z" transform="translate(-27.63 -4.68)"/><path class="b" d="M245.08,23.21H246v0.32a1,1,0,0,1,.84-0.4,1,1,0,0,1,1.06,1.07v1.72H247v-1.4a0.75,0.75,0,0,0-.15-0.54,0.46,0.46,0,0,0-.34-0.12,0.48,0.48,0,0,0-.37.15,0.7,0.7,0,0,0-.17.52v1.4h-0.88V23.21Z" transform="translate(-27.63 -4.68)"/><path class="b" d="M249,21.54a0.51,0.51,0,1,1-.51.51A0.51,0.51,0,0,1,249,21.54Zm0.44,1.67v2.72H248.6V23.21h0.88Z" transform="translate(-27.63 -4.68)"/><path class="b" d="M251.13,23.92v2h-0.88v-2h-0.31V23.21h0.31V22.33h0.88v0.88h0.54v0.71h-0.54Z" transform="translate(-27.63 -4.68)"/><path class="b" d="M253.15,25.58l-1.3-2.37h1l0.77,1.48,0.75-1.48h1l-2.19,4.12h-1Z" transform="translate(-27.63 -4.68)"/></svg>