<svg id="media-heading" xmlns="http://www.w3.org/2000/svg" width="264.66" height="10.093" viewBox="0 0 264.66 10.093">
  <metadata><?xpacket begin="﻿" id="W5M0MpCehiHzreSzNTczkc9d"?>
<x:xmpmeta xmlns:x="adobe:ns:meta/" x:xmptk="Adobe XMP Core 5.6-c138 79.159824, 2016/09/14-01:09:01        ">
   <rdf:RDF xmlns:rdf="http://www.w3.org/1999/02/22-rdf-syntax-ns#">
      <rdf:Description rdf:about=""/>
   </rdf:RDF>
</x:xmpmeta>
                                                                                                    
                                                                                                    
                                                                                                    
                                                                                                    
                                                                                                    
                                                                                                    
                                                                                                    
                                                                                                    
                                                                                                    
                                                                                                    
                                                                                                    
                                                                                                    
                                                                                                    
                                                                                                    
                                                                                                    
                                                                                                    
                                                                                                    
                                                                                                    
                                                                                                    
                                                                                                    
                           
<?xpacket end="w"?></metadata>
<defs>
    <style>
      .cls-1 {
        fill: #e7e7e7;
      }

      .cls-1, .cls-2 {
        fill-rule: evenodd;
      }

      .cls-2 {
        fill: none;
        stroke: #aec4ce;
        stroke-linecap: round;
        stroke-width: 1px;
        stroke-dasharray: 0.001 4;
      }
    </style>
  </defs>
  <path id="MEDIA" class="cls-1" d="M1255.9,942.534l2.08-3.627-0.04,1.6v5.027h2.25V935.449h-2.53l-2.56,4.411-2.56-4.411H1250v10.082h2.24V940.5l-0.05-1.625,2.1,3.655h1.61Zm23.95,1.106h-4.02v-2.31h3.11v-1.891h-3.11v-2.1h4.02v-1.89h-6.41v10.082h6.41V943.64Zm12.82,1.891h3.5c2.9,0,4.05-.994,4.05-3.3v-3.473c0-2.1-1.11-3.3-4.06-3.3h-3.49v10.082Zm3.49-8.178c1.15,0,1.81.476,1.81,1.526V942.1c0,1.05-.69,1.526-1.8,1.526h-1.1v-6.273h1.09Zm19.53,8.178V935.449h-2.4v10.082h2.4Zm14.61,0,0.51-1.9h3.07l0.51,1.9h2.4l-3.01-10.082h-2.85l-3.02,10.082h2.39Zm2.05-7.646,0.99,3.711h-1.99Z" transform="translate(-1202.84 -935.438)"/>
  <path class="cls-2" d="M1203,940v-1h264v1H1203Z" transform="translate(-1202.84 -935.438)"/>
</svg>
