<?xml version="1.0" ?><svg height="512" id="svg2" version="1.1" width="512" xmlns="http://www.w3.org/2000/svg" xmlns:cc="http://creativecommons.org/ns#" xmlns:dc="http://purl.org/dc/elements/1.1/" xmlns:inkscape="http://www.inkscape.org/namespaces/inkscape" xmlns:rdf="http://www.w3.org/1999/02/22-rdf-syntax-ns#" xmlns:sodipodi="http://sodipodi.sourceforge.net/DTD/sodipodi-0.dtd" xmlns:svg="http://www.w3.org/2000/svg"><defs id="defs4"/><g id="layer1" transform="translate(0,-540.36218)"><g id="g2986"><path d="m 256.00001,553.78976 -40.52062,90.55929 24.85719,0.0162 0,74.0689 c 10.44229,0 20.88457,0 31.32686,0 l 0,-74.0689 24.85719,-0.0162 z" id="path3037" style="fill:#000000;stroke:none"/><path d="m 333.92802,780.69875 c 0,10.44229 0,20.88458 0,31.32687 l 74.06891,0 0.0162,24.85718 90.55929,-40.52062 -90.55929,-40.52062 -0.0162,24.85719 z" id="path3035" style="fill:#000000;stroke:none"/><path d="m 271.66344,874.29019 c -10.44229,0 -20.88457,0 -31.32686,0 l 0,74.06891 -24.85719,0.0162 40.52061,90.5593 40.52063,-90.5593 -24.85719,-0.0162 z" id="path3033" style="fill:#000000;stroke:none"/><path d="m 178.072,812.02562 c 0,-10.44229 0,-20.88458 0,-31.32687 l -74.06891,0 -0.0162,-24.85719 -90.559301,40.52063 90.559301,40.52061 0.0162,-24.85718 z" id="path3003" style="fill:#000000;stroke:none"/></g></g></svg>