<svg id="projectMedia" xmlns="http://www.w3.org/2000/svg" width="137.938" height="11" viewBox="0 0 137.938 11">
  <metadata><?xpacket begin="﻿" id="W5M0MpCehiHzreSzNTczkc9d"?>
<x:xmpmeta xmlns:x="adobe:ns:meta/" x:xmptk="Adobe XMP Core 5.6-c138 79.159824, 2016/09/14-01:09:01        ">
   <rdf:RDF xmlns:rdf="http://www.w3.org/1999/02/22-rdf-syntax-ns#">
      <rdf:Description rdf:about=""/>
   </rdf:RDF>
</x:xmpmeta>
                                                                                                    
                                                                                                    
                                                                                                    
                                                                                                    
                                                                                                    
                                                                                                    
                                                                                                    
                                                                                                    
                                                                                                    
                                                                                                    
                                                                                                    
                                                                                                    
                                                                                                    
                                                                                                    
                                                                                                    
                                                                                                    
                                                                                                    
                                                                                                    
                                                                                                    
                                                                                                    
                           
<?xpacket end="w"?></metadata>
<defs>
    <style>
      .cls-1 {
        fill: #84959c;
      }

      .cls-1, .cls-3 {
        fill-rule: evenodd;
      }

      .cls-2 {
        fill: none;
        stroke: #84959c;
        stroke-width: 1px;
      }

      .cls-3 {
        fill: #323232;
      }
    </style>
  </defs>
  <path class="cls-1" d="M206,413v-1h50v1H206Z" transform="translate(-132.562 -407.5)"/>
  <circle class="cls-2" cx="132.438" cy="5.5" r="5"/>
  <path id="project_media" data-name="project media" class="cls-3" d="M132.572,417.016h1.187v-3.191h1.751l0.948-.947v-3.19l-0.948-.948h-2.938v8.276Zm1.187-4.138v-3.19h1.1l0.407,0.407v2.375l-0.407.408h-1.1Zm4.849,4.138h1.187V413.5h0.864l0.8,3.514h1.2l-0.863-3.658,0.8-.8v-2.866l-0.947-.948h-3.046v8.276Zm1.187-4.462v-2.866h1.211l0.408,0.407v2.051l-0.408.408h-1.211Zm5.988,4.462h2.075l0.947-.948v-6.38l-0.947-.948h-2.075l-0.947.948v6.38Zm0.636-.984-0.4-.408v-5.493l0.4-.407h0.8l0.4,0.407v5.493l-0.4.408h-0.8Zm4.345,0.984h1.727l0.935-.948V408.74h-1.187v6.86l-0.4.408h-1.079v1.008Zm5.111,0h3.335v-1.032h-2.147v-2.638h1.943V412.3h-1.943v-2.53h2.123V408.74h-3.311v8.276Zm6.372,0h1.919l0.947-.948v-1.607h-1.187v1.187l-0.408.4h-0.635l-0.4-.4v-5.517l0.4-.407h0.635l0.408,0.407v1.14h1.187v-1.583l-0.947-.948h-1.919l-0.948.948v6.38Zm6.072,0h1.187V409.8h1.415V408.74h-4.029V409.8h1.427v7.22Zm7.644,0h1v-7.268l1.235,7.268h1.319l1.236-7.268v7.268h1.127V408.74h-1.859l-1.1,7.04-1.116-7.04h-1.835v8.276Zm8.388,0h3.334v-1.032h-2.147v-2.638h1.943V412.3h-1.943v-2.53h2.123V408.74h-3.31v8.276Zm5.544,0h2.986l0.936-.948v-6.38l-0.936-.948H189.9v8.276Zm1.187-.984v-6.308h1.152l0.395,0.407v5.493l-0.395.408h-1.152Zm4.825,0.984H199V416.1h-0.947v-6.452H199V408.74h-3.094v0.912h0.96V416.1h-0.96v0.912Zm4.764,0h1.115l0.3-2.147h1.523l0.312,2.147h1.164l-1.356-8.276h-1.7Zm2.183-7.508,0.611,4.353H202.23Z" transform="translate(-132.562 -407.5)"/>
</svg>
