<svg xmlns="http://www.w3.org/2000/svg" viewBox="0 0 1224.36 1779.23"><title>restless-creative-logo</title><path d="M402.77,1290.59L207.54,994a8,8,0,0,1-.26-2c2.27-21.45,3.73-43.39,18.47-60.76,7.26-8.56,16.66-15.27,24.71-23.2,19-18.69,37.53-37.76,56.58-56.36,6.14-6,13.31-10.95,19.93-16.47,2.5-2.09,5.82-4,7-6.75,9-20.77,18-41.54,25.89-62.72,3.44-9.22,5.1-19.31,6.14-29.16,2-18.57,1.94-37.05-2.36-55.6-3-13.16-8.14-25.14-13.72-37.27-7.78-16.9-14.15-34.45-21.07-51.74-3.92-9.8-6.74-11.4-16.61-7.36-7.06,2.89-13.55,7.13-20.47,10.38-19.57,9.19-39,18.71-58.93,27.1-21.47,9-42.87,18-63.12,29.72-16.41,9.46-33.61,17.57-50.06,27-11,6.26-21,14.17-31.85,20.57-11.74,6.91-24,13-36.06,19.33a20.79,20.79,0,0,1-3.8,1.24c-18.17,5.42-22.4,3.15-29.72-14.07-3.87-9.08-8.81-17.72-13.47-26.45a37.11,37.11,0,0,1-4.16-25c1.63-9.13,2.17-18.49,2.67-27.78C5.22,590.3,33.4,568,58.08,562.21c13.28-3.12,26.78-5.37,40-8.85q38.11-10,76-21.09c24.93-7.27,49.83-14.68,74.46-22.9,11.62-3.88,22.54-9.83,33.81-14.77,4.91-2.15,6-5.86,4.64-10.63-0.75-2.55-1.87-5-2.71-7.52-8.39-25.27-16.83-50.53-25-75.86-1.21-3.74-1.3-7.85-1.92-11.79-3.18-20-5.94-40.13-9.73-60-1.79-9.42-5.4-18.52-8.47-27.67-4.57-13.63-6-27.54-1.41-41.2s3.83-27.48,5.45-41.24c1.28-10.9,2.42-21.87,4.63-32.59,4-19.54,7.75-39.24,13.57-58.27,5.93-19.38,14.15-38.06,21.53-57C288.05,57.69,297.77,48,308.08,39c8.75-7.68,17.8-15,26.8-22.41,2-1.68,4.22-3.58,6.66-4.37,18.59-6,36.88-13.13,57.12-12.06,11.81,0.62,20.59,7,29.84,12.78,8.19,5.09,16,10.79,23.9,16.32a21.66,21.66,0,0,1,5.25,4.59c10.56,14.49,26.16,24.44,35.2,40.47,5.42,9.62,13.74,17.57,19.62,27a311.5,311.5,0,0,1,17.17,32.32c2.79,5.91,5.94,10.18,11.89,13.8,7.72,4.7,14.41,11.43,16.63,21.32,2.67,11.88-1.79,20-13.4,24-10,3.43-19.88,7-30.32,9.44-14.3,3.29-24.85,12.36-29.68,27-2.28,6.87-6.7,13.12-5.49,21,0.22,1.41-1,3.11-1.69,4.57-4.19,8.39-4.56,17.32-3.48,26.34,1,8.58,2.85,17.07,3.82,25.66,1.66,14.87,7.76,28.34,14,41.48,6.09,12.83,14.25,24.73,22,36.73,4.79,7.44,6.74,7.74,15,4.15a94.16,94.16,0,0,0,12.33-6.58C570.42,364.23,602,350.67,633,336.2q38-17.7,75.56-36.39c11.8-5.86,11.58-7.23,10.13-20.57-1.51-13.89-1.87-27.9-3-41.83-1.62-20.21-3.49-40.41-5.23-60.61-1.17-13.58-1.54-27.28-3.65-40.71-2.37-15.06-6.22-29.89-9.59-44.78-2.35-10.39-5.48-20.63-7.23-31.1-0.89-5.35.58-11.07,0.86-16.63a67.1,67.1,0,0,0,0-8.65c-0.49-6.13,2.34-9.87,8.26-9.86,13.06,0,24.63-4.41,35-11.84,10.12-7.23,20.4-10,32.83-6,8.78,2.76,18.23,2.33,27.63,2.36,16.11,0,32.41-.16,48.11,6.22,8.41,3.42,18.12,3.77,27.29,5.12,13.46,2,27.12,2.88,40.41,5.65,6.6,1.38,12.75,5.55,18.72,9.1,5,3,6.73,8.13,6.62,13.79-0.15,7.66-.15,15.34-0.79,23-1.27,15.36,0,30.58,1.69,45.82,0.86,7.83,2.56,16-4.05,22.65a2.79,2.79,0,0,0-.71,1.83c0.22,12.27.22,24.55,0.92,36.79,0.21,3.7,3.61,4.46,6.92,2.85,6-2.91,11.92-6,17.89-8.9,8.36-4.12,16.79-8.1,25.1-12.32,15.71-8,31.31-16.18,47-24.12,12.18-6.15,24.61-11.82,36.73-18.09,14.16-7.32,28.08-15.12,42.17-22.59,9.09-4.82,18.29-9.43,27.44-14.12,10.64-5.45,20.9-11.93,32-16.08a160.4,160.4,0,0,0,39.54-20.94,19.18,19.18,0,0,1,5.24-2.83c7.14-2.34,12.39,2.65,11.36,10.13-1.71,12.44-6.08,24.2-9,36.22-3.39,14.19-7.95,29-4.53,44.25,2.11,9.42-.31,18.57-3.6,27.39a13.68,13.68,0,0,1-4.64,6.23c-3.52,2.41-7.43,5.28-11.45,5.76-19.59,2.37-36.81,11.39-54.72,18.47-2.78,1.1-5.41,2.55-8.12,3.82l-34.35,16.08c-2.71,1.26-5.66,2.06-8.29,3.46-31.75,16.87-63.53,33.7-95.15,50.82a174.53,174.53,0,0,0-21.76,14,81.11,81.11,0,0,1-24.8,12.57c-12.17,3.83-18,12.48-17.3,25.28,0.41,7.31.75,14.62,1.11,21.93a12,12,0,0,1,0,4c-6.26,20.09-4.72,40.8-4.31,61.28,0.52,25.61,2.27,51.2,3.52,76.79,0.7,14.3.82,28.67,2.39,42.87,1.46,13.13,4.26,26.14,7,39.1,1.46,7,1.7,13.59-.31,20.63-1.78,6.25-1.81,13-2.72,19.51-0.73,5.24-.82,10.76-2.61,15.64-3.59,9.8-3.18,19.36-1.38,29.41,2.16,12.06,3.23,24.32,4.74,36.5,1.75,14.19,3.42,28.39,5.22,42.58,1,7.65,1.8,14.68-4.63,21.27a16.27,16.27,0,0,0-3.71,15.93c1,3.14.7,6.26-2.45,7.86-6.16,3.13-5.17,8.43-5,13.82,0.33,12.58.34,25.16,0.47,37.74a2.54,2.54,0,0,1-.12,1c-7.58,17.84-11.29,37.09-22,53.88-8.73,13.66-14.82,29-22.38,43.42-4.43,8.45-10,16.32-14.1,24.94-6.22,13.21-11.56,26.85-17.49,40.82,1.41,1.28,2.86,2.51,4.21,3.84,3.08,3,2.95,6.42-.71,8.27-10.21,5.17-13,15.88-17.34,24.61-7.3,14.75-18.52,25.48-30.18,36.11-2.16,2-5.94,2.38-9.07,3-2.53.52-5.27,0-7.82,0.5-4.41.8-8.22-.23-10.47-4s-5.79-5.13-9.58-6.53c-11-4.07-14.16-9.67-10.68-20.83,2-6.29,5.52-12.07,7.95-18.24,1.41-3.59,2.8-7.48,2.83-11.25,0.06-6.4,1.62-11.41,6.67-15.84,7.56-6.63,7.24-15.87,6.51-25-0.47-5.89-2-12-1.15-17.65,2-12.87.08-25.37-2.63-37.64-3.48-15.76-4.31-31.61-4.88-47.61-1.06-29.62-2.1-59.26-4.05-88.83-1.73-26.22-4.89-52.34-7-78.54-1-12.26-1-24.61-1.66-36.91-1.57-29.7-8.91-58.53-13.38-87.8-2.72-17.76-4.57-35.66-6.75-53.5-2.62-21.48-5.26-43-7.73-64.46-1.41-12.23-2.39-24.52-3.77-36.76-0.52-4.55-1.65-9-2.89-15.63-8.91,3.74-16.21,6.7-23.43,9.85-18.31,8-37,15.29-54.78,24.25-21.69,10.9-42.68,23.2-63.93,35a20.17,20.17,0,0,0-4.62,3.79c-4.54,4.75-4.84,7.43-.12,11.82,16.12,15,25,34.18,32,54.5a54.19,54.19,0,0,0,3.55,8.24c3.8,7,4.79,14.38,4.11,22.22-0.63,7.28-.65,14.61-1.22,21.9-0.59,7.59-1.48,15.17-2.32,22.74-0.25,2.3-1.27,4.61-1.1,6.85,1.22,15.65-3.92,29.38-12,42.4-3.51,5.65-6.23,11.79-9.66,17.49-8.39,13.95-17.35,27.57-25.41,41.7-8.78,15.41-19.65,29.3-31.11,42.58-13.33,15.44-24,32.64-35.51,49.29-9.43,13.66-17.53,28.26-25.89,42.63a45.52,45.52,0,0,0-4.41,12.17c-2.9,12-9.06,23.39-5.69,36.63,0.94,3.69-1.45,8.34-2.67,12.44-1.36,4.6-3,8.88,2.72,12,1.4,0.76,2.1,3.15,2.7,4.94,0.84,2.51,1.81,5.15,1.81,7.74,0,13.78,7.06,23.43,16.76,32.45,8.22,7.63,14.75,17,22.45,25.27,12.71,13.59,27,25.88,38.33,40.51,14,18.11,31.72,33,43.67,52.93,8,13.3,18.68,24.95,28.05,37.42,1.77,2.36,2.89,5.21,4.56,7.66,2.05,3,4,6.3,6.66,8.6,5.65,4.79,10.77,9.51,12.6,17.26,0.68,2.87,3.68,5.52,6.2,7.56,12.53,10.14,19.81,24,26.76,37.94,5.59,11.23,11.15,22.58,15.36,34.36a89.22,89.22,0,0,1,4.77,25.42,345.94,345.94,0,0,1-.57,39.83c-0.36,5.44-3,10.8-5,16-4.59,11.74-9.72,23.27-14.16,35.05-7.63,20.24-15.46,40.34-26.1,59.27-5,9-9.64,18.23-13.83,27.62-13,29.11-25,58.73-41.13,86.24-16.73,28.48-30.13,58.5-44.36,88.2-14.07,29.37-29.58,58.14-46.06,86.24-11.74,20-26.28,38.3-44.92,52.94-5.09,4-8.56,10.08-12.68,15.29-3,3.76-7,5.05-11.49,4.88a9,9,0,0,1-5.42-1.81,85.73,85.73,0,0,0-26-16.25c-2.61-1.08-4.78-3.43-6.88-5.47-1.66-1.61-2.85-3.68-4.34-5.47-2.45-2.95-6.77-5.68-7.05-8.79-0.49-5.4,1-11.18,2.64-16.5a22.2,22.2,0,0,1,5.89-9.16c9-8.5,12.59-20.24,18.6-30.47,6.37-10.85,11-22.67,17-33.8,4.68-8.8,10.53-17,15.12-25.83,3.66-7,6.27-14.64,9.2-22.05,3.18-8,5.6-16.4,9.42-24.1,6.5-13.12,7.83-27.42,10.91-41.35,1.27-5.78,3.75-11.28,5.34-17a188.84,188.84,0,0,0,4.88-20.18c2.5-15.44,4.51-31,6.72-46.43a7.82,7.82,0,0,0,.27-2c-2.07-16.34-.68-33.31-9.61-48.37-2.68-4.52-3.91-9.89-6.41-14.53-8.55-15.86-19.51-30.06-30.85-44-6.28-7.72-11.95-15.93-17.93-23.89" transform="translate(0.02 -0.02)"/></svg>