<svg xmlns="http://www.w3.org/2000/svg" width="95.625" height="11.5" viewBox="0 0 95.625 11.5">
  <metadata><?xpacket begin="﻿" id="W5M0MpCehiHzreSzNTczkc9d"?>
<x:xmpmeta xmlns:x="adobe:ns:meta/" x:xmptk="Adobe XMP Core 5.6-c138 79.159824, 2016/09/14-01:09:01        ">
   <rdf:RDF xmlns:rdf="http://www.w3.org/1999/02/22-rdf-syntax-ns#">
      <rdf:Description rdf:about=""/>
   </rdf:RDF>
</x:xmpmeta>
                                                                                                    
                                                                                                    
                                                                                                    
                                                                                                    
                                                                                                    
                                                                                                    
                                                                                                    
                                                                                                    
                                                                                                    
                                                                                                    
                                                                                                    
                                                                                                    
                                                                                                    
                                                                                                    
                                                                                                    
                                                                                                    
                                                                                                    
                                                                                                    
                                                                                                    
                                                                                                    
                           
<?xpacket end="w"?></metadata>
<defs>
    <style>
      .cls-1 {
        fill: #3a4141;
      }

      .cls-1, .cls-2 {
        fill-rule: evenodd;
      }

      .cls-2 {
        fill: none;
        stroke: #d0d0d0;
        stroke-width: 1px;
      }
    </style>
  </defs>
  <path id="RESULTS_UPDATED" data-name="RESULTS UPDATED" class="cls-1" d="M5.506,11.238V8.156H6.058l1.523,3.082H9.416L7.629,7.88A1.838,1.838,0,0,0,8.684,6.021V4.954c0-1.475-.72-2.351-2.591-2.351H3.863v8.635H5.506ZM6.142,3.994A0.882,0.882,0,0,1,7.053,5.05v0.7A0.866,0.866,0,0,1,6.13,6.765H5.506V3.994H6.142Zm8.351,5.853h-2.83V7.508h2.183V6.117H11.662V3.994h2.83V2.6H10.019v8.635h4.474V9.847Zm5.676-1.271c0-1.5-.4-2.027-1.9-2.423l-0.684-.18c-0.516-.132-0.612-0.3-0.612-0.947V4.75c0-.7.156-0.888,0.6-0.888h0.18c0.444,0,.624.2,0.624,0.768V5.122h1.571V4.234c0-1.115-.864-1.751-2.219-1.751h-0.18a1.941,1.941,0,0,0-2.171,2.159V5.086c0,1.571.516,2.123,1.7,2.411l0.8,0.192a0.749,0.749,0,0,1,.672.816V9.079c0,0.8-.276.9-0.7,0.9h-0.4c-0.42,0-.624-0.12-0.624-0.864V8.492H15.275V9.607c0,1.259.768,1.751,2.135,1.751h0.5c1.451,0,2.255-.672,2.255-2.375V8.576ZM24.729,2.6V8.78a0.972,0.972,0,1,1-1.931,0V2.6H21.167V9.1c0,1.415,1.007,2.255,2.6,2.255S26.36,10.519,26.36,9.1V2.6H24.729Zm7.391,7.244H29.314V2.6H27.671v8.635h4.45V9.847Zm2.737,1.391V3.994h1.667V2.6H31.535V3.994h1.679v7.244h1.643Zm7.007-2.663c0-1.5-.4-2.027-1.895-2.423l-0.684-.18c-0.516-.132-0.612-0.3-0.612-0.947V4.75c0-.7.156-0.888,0.6-0.888h0.18c0.444,0,.624.2,0.624,0.768V5.122h1.571V4.234c0-1.115-.864-1.751-2.219-1.751H39.25a1.941,1.941,0,0,0-2.171,2.159V5.086c0,1.571.516,2.123,1.7,2.411l0.8,0.192a0.749,0.749,0,0,1,.672.816V9.079c0,0.8-.276.9-0.7,0.9h-0.4c-0.42,0-.624-0.12-0.624-0.864V8.492H36.971V9.607c0,1.259.768,1.751,2.135,1.751h0.5c1.451,0,2.255-.672,2.255-2.375V8.576ZM48.309,2.6V8.78a0.971,0.971,0,1,1-1.931,0V2.6H44.747V9.1c0,1.415,1.007,2.255,2.6,2.255S49.94,10.519,49.94,9.1V2.6H48.309Zm4.585,8.635V8.156h0.78c1.883,0,2.591-.8,2.591-2.135V4.954c0-1.475-.708-2.351-2.591-2.351H51.251v8.635h1.643Zm0.828-7.244a0.882,0.882,0,0,1,.912,1.055v0.7a0.866,0.866,0,0,1-.924,1.019H52.894V3.994h0.828Zm3.517,7.244h2.423c2.039,0,2.83-.864,2.83-2.806V5.409c0-1.8-.779-2.806-2.842-2.806H57.239v8.635ZM59.65,4.006a1.243,1.243,0,0,1,1.307,1.487V8.348a1.245,1.245,0,0,1-1.3,1.487h-0.78V4.006H59.65Zm4.933,7.232,0.372-1.751h2.159L67.5,11.238h1.631L67.018,2.6H65.075l-2.123,8.635h1.631Zm1.463-6.764L66.8,8H65.278Zm6.024,6.764V3.994h1.667V2.6H68.748V3.994h1.679v7.244H72.07Zm6.935-1.391h-2.83V7.508h2.183V6.117H76.175V3.994h2.83V2.6H74.532v8.635h4.474V9.847Zm1.047,1.391h2.423c2.039,0,2.83-.864,2.83-2.806V5.409c0-1.8-.78-2.806-2.842-2.806H80.052v8.635Zm2.411-7.232a1.243,1.243,0,0,1,1.307,1.487V8.348a1.245,1.245,0,0,1-1.3,1.487h-0.78V4.006h0.768Z" transform="translate(-3.875)"/>
  <g>
    <path class="cls-2" d="M98.358,9.368l-0.99.99-15.4-15.4,0.99-.99Z" transform="translate(-3.875)"/>
    <path class="cls-2" d="M98.513,10.5H97.487V-5.471h1.027V10.5Z" transform="translate(-3.875)"/>
    <path class="cls-2" d="M99,9.987v1.027H83V9.987H99Z" transform="translate(-3.875)"/>
  </g>
</svg>
