<svg xmlns="http://www.w3.org/2000/svg" width="47.472" height="7.313" viewBox="0 0 47.472 7.313">
  <metadata><?xpacket begin="﻿" id="W5M0MpCehiHzreSzNTczkc9d"?>
<x:xmpmeta xmlns:x="adobe:ns:meta/" x:xmptk="Adobe XMP Core 5.6-c138 79.159824, 2016/09/14-01:09:01        ">
   <rdf:RDF xmlns:rdf="http://www.w3.org/1999/02/22-rdf-syntax-ns#">
      <rdf:Description rdf:about=""/>
   </rdf:RDF>
</x:xmpmeta>
                                                                                                    
                                                                                                    
                                                                                                    
                                                                                                    
                                                                                                    
                                                                                                    
                                                                                                    
                                                                                                    
                                                                                                    
                                                                                                    
                                                                                                    
                                                                                                    
                                                                                                    
                                                                                                    
                                                                                                    
                                                                                                    
                                                                                                    
                                                                                                    
                                                                                                    
                                                                                                    
                           
<?xpacket end="w"?></metadata>
<defs>
    <style>
      .cls-1 {
        fill: #afbfd2;
        fill-rule: evenodd;
      }
    </style>
  </defs>
  <path id="ROLE" class="cls-1" d="M996.087,178.5h1.836v-0.073l-1.485-2.871a2.124,2.124,0,0,0,.94-0.79,2.3,2.3,0,0,0,.3-1.229,1.9,1.9,0,0,0-.713-1.585,3.124,3.124,0,0,0-1.978-.561h-2.8V178.5H993.9v-2.515h0.928Zm-2.183-5.791h1.084a0.963,0.963,0,0,1,.733.262,1.168,1.168,0,0,1,0,1.439,0.973,0.973,0,0,1-.735.257H993.9v-1.958Zm18.726,2.056a4.071,4.071,0,0,0-.39-1.819,2.955,2.955,0,0,0-1.1-1.223,3.25,3.25,0,0,0-3.24,0,2.789,2.789,0,0,0-1.1,1.232,4.154,4.154,0,0,0-.39,1.844v0.4a4.056,4.056,0,0,0,.42,1.782,2.808,2.808,0,0,0,1.09,1.194,3.111,3.111,0,0,0,1.61.418,3.038,3.038,0,0,0,1.62-.432,2.842,2.842,0,0,0,1.1-1.233,4.154,4.154,0,0,0,.38-1.841v-0.327Zm-1.74.356a2.909,2.909,0,0,1-.36,1.587,1.106,1.106,0,0,1-1,.552,1.137,1.137,0,0,1-1.03-.562,3.09,3.09,0,0,1-.34-1.606v-0.523c0.05-1.289.5-1.933,1.36-1.933a1.151,1.151,0,0,1,1.02.549,3.05,3.05,0,0,1,.35,1.609v0.327Zm12.24-3.73h-1.71V178.5h4.7v-1.318h-2.99v-5.791Zm16.02,2.822h-2.7v-1.5h3.2v-1.323h-4.91V178.5h4.9v-1.318h-3.19v-1.7h2.7v-1.269Z" transform="translate(-992.188 -171.281)"/>
</svg>
