<?xml version="1.0" encoding="utf-8"?>
<!-- Generator: Adobe Illustrator 19.2.0, SVG Export Plug-In . SVG Version: 6.00 Build 0)  -->
<!DOCTYPE svg PUBLIC "-//W3C//DTD SVG 1.1//EN" "http://www.w3.org/Graphics/SVG/1.1/DTD/svg11.dtd">
<svg version="1.1" id="Layer_1" xmlns="http://www.w3.org/2000/svg" xmlns:xlink="http://www.w3.org/1999/xlink" x="0px" y="0px"
	 viewBox="0 0 1224.2 1779.2" style="enable-background:new 0 0 1224.2 1779.2;" xml:space="preserve">
<title>root</title>
<path d="M402.8,1290.6L207.5,994c-0.2-0.7-0.3-1.3-0.3-2c2.3-21.4,3.7-43.4,18.5-60.8c7.3-8.6,16.7-15.3,24.7-23.2
	c19-18.7,37.5-37.8,56.6-56.4c6.1-6,13.3-10.9,19.9-16.5c2.5-2.1,5.8-4,7-6.8c9-20.8,18-41.5,25.9-62.7c3.4-9.2,5.1-19.3,6.1-29.2
	c2-18.6,1.9-37.1-2.4-55.6c-3-13.2-8.1-25.1-13.7-37.3c-7.8-16.9-14.2-34.4-21.1-51.7c-3.9-9.8-6.7-11.4-16.6-7.4
	c-7.1,2.9-13.6,7.1-20.5,10.4c-19.6,9.2-39,18.7-58.9,27.1c-21.5,9-42.9,18-63.1,29.7c-16.4,9.5-33.6,17.6-50.1,27
	c-11,6.3-21,14.2-31.8,20.6c-11.7,6.9-24,13-36.1,19.3c-1.2,0.5-2.5,0.9-3.8,1.2c-18.2,5.4-22.4,3.2-29.7-14.1
	c-3.9-9.1-8.8-17.7-13.5-26.4c-4.3-7.6-5.8-16.4-4.2-25c1.6-9.1,2.2-18.5,2.7-27.8c1.9-36.3,30.1-58.6,54.8-64.4
	c13.3-3.1,26.8-5.4,40-8.8c25.4-6.7,50.7-13.7,76-21.1c24.9-7.3,49.8-14.7,74.5-22.9c11.6-3.9,22.5-9.8,33.8-14.8
	c4.9-2.2,6-5.9,4.6-10.6c-0.8-2.6-1.9-5-2.7-7.5c-8.4-25.3-16.8-50.5-25-75.9c-1.2-3.7-1.3-7.8-1.9-11.8c-3.2-20-5.9-40.1-9.7-60
	c-1.8-9.4-5.4-18.5-8.5-27.7c-4.6-13.6-6-27.5-1.4-41.2s3.8-27.5,5.4-41.2c1.3-10.9,2.4-21.9,4.6-32.6c4-19.5,7.8-39.2,13.6-58.3
	c5.9-19.4,14.2-38.1,21.5-57c5.1-13.1,14.8-22.8,25.2-31.9c8.8-7.7,17.8-15,26.8-22.4c2-1.7,4.2-3.6,6.7-4.4
	c18.6-6,36.9-13.1,57.1-12.1c11.8,0.6,20.6,7,29.8,12.8c8.2,5.1,16,10.8,23.9,16.3c2,1.2,3.8,2.8,5.2,4.6
	c10.6,14.5,26.2,24.4,35.2,40.5c5.4,9.6,13.7,17.6,19.6,27c6.4,10.4,12.1,21.2,17.2,32.3c2.8,5.9,5.9,10.2,11.9,13.8
	c7.7,4.7,14.4,11.4,16.6,21.3c2.7,11.9-1.8,20-13.4,24c-10,3.4-19.9,7-30.3,9.4c-14.3,3.3-24.8,12.4-29.7,27
	c-2.3,6.9-6.7,13.1-5.5,21c0.2,1.4-1,3.1-1.7,4.6c-4.2,8.4-4.6,17.3-3.5,26.3c1,8.6,2.8,17.1,3.8,25.7c1.7,14.9,7.8,28.3,14,41.5
	c6.1,12.8,14.2,24.7,22,36.7c4.8,7.4,6.7,7.7,15,4.2c4.3-1.9,8.4-4.1,12.3-6.6c29.2-18.3,60.7-31.8,91.8-46.3
	c25.3-11.8,50.5-23.9,75.6-36.4c11.8-5.9,11.6-7.2,10.1-20.6c-1.5-13.9-1.9-27.9-3-41.8c-1.6-20.2-3.5-40.4-5.2-60.6
	c-1.2-13.6-1.5-27.3-3.6-40.7c-2.4-15.1-6.2-29.9-9.6-44.8c-2.4-10.4-5.5-20.6-7.2-31.1c-0.9-5.3,0.6-11.1,0.9-16.6
	c0.2-2.9,0.2-5.8,0-8.7c-0.5-6.1,2.3-9.9,8.3-9.9c13.1,0,24.6-4.4,35-11.8c10.1-7.2,20.4-10,32.8-6c8.8,2.8,18.2,2.3,27.6,2.4
	c16.1,0,32.4-0.2,48.1,6.2c8.4,3.4,18.1,3.8,27.3,5.1c13.5,2,27.1,2.9,40.4,5.7c6.6,1.4,12.8,5.5,18.7,9.1c5,3,6.7,8.1,6.6,13.8
	c-0.1,7.7-0.1,15.3-0.8,23c-1.3,15.4,0,30.6,1.7,45.8c0.9,7.8,2.6,16-4.1,22.7c-0.5,0.5-0.7,1.2-0.7,1.8c0.2,12.3,0.2,24.6,0.9,36.8
	c0.2,3.7,3.6,4.5,6.9,2.8c6-2.9,11.9-6,17.9-8.9c8.4-4.1,16.8-8.1,25.1-12.3c15.7-8,31.3-16.2,47-24.1c12.2-6.2,24.6-11.8,36.7-18.1
	c14.2-7.3,28.1-15.1,42.2-22.6c9.1-4.8,18.3-9.4,27.4-14.1c10.6-5.4,20.9-11.9,32-16.1c14.1-5.1,27.4-12.1,39.5-20.9
	c1.6-1.2,3.4-2.2,5.2-2.8c7.1-2.3,12.4,2.7,11.4,10.1c-1.7,12.4-6.1,24.2-9,36.2c-3.4,14.2-7.9,29-4.5,44.2
	c2.1,9.4-0.3,18.6-3.6,27.4c-0.9,2.5-2.5,4.6-4.6,6.2c-3.5,2.4-7.4,5.3-11.4,5.8c-19.6,2.4-36.8,11.4-54.7,18.5
	c-2.8,1.1-5.4,2.6-8.1,3.8c-11.4,5.4-22.9,10.7-34.4,16.1c-2.7,1.3-5.7,2.1-8.3,3.5c-31.8,16.9-63.5,33.7-95.1,50.8
	c-7.6,4.1-14.9,8.8-21.8,14c-7.5,5.6-15.9,9.8-24.8,12.6c-12.2,3.8-18,12.5-17.3,25.3c0.4,7.3,0.8,14.6,1.1,21.9
	c0.2,1.3,0.2,2.7,0,4c-6.3,20.1-4.7,40.8-4.3,61.3c0.5,25.6,2.3,51.2,3.5,76.8c0.7,14.3,0.8,28.7,2.4,42.9c1.5,13.1,4.3,26.1,7,39.1
	c1.5,7,1.7,13.6-0.3,20.6c-1.8,6.2-1.8,13-2.7,19.5c-0.7,5.2-0.8,10.8-2.6,15.6c-3.6,9.8-3.2,19.4-1.4,29.4
	c2.2,12.1,3.2,24.3,4.7,36.5c1.8,14.2,3.4,28.4,5.2,42.6c1,7.7,1.8,14.7-4.6,21.3c-4,4.3-5.4,10.3-3.7,15.9c1,3.1,0.7,6.3-2.4,7.9
	c-6.2,3.1-5.2,8.4-5,13.8c0.3,12.6,0.3,25.2,0.5,37.7c0,0.3,0,0.7-0.1,1c-7.6,17.8-11.3,37.1-22,53.9c-8.7,13.7-14.8,29-22.4,43.4
	c-4.4,8.4-10,16.3-14.1,24.9c-6.2,13.2-11.6,26.8-17.5,40.8c1.4,1.3,2.9,2.5,4.2,3.8c3.1,3,2.9,6.4-0.7,8.3
	c-10.2,5.2-13,15.9-17.3,24.6c-7.3,14.8-18.5,25.5-30.2,36.1c-2.2,2-5.9,2.4-9.1,3c-2.5,0.5-5.3,0-7.8,0.5c-4.4,0.8-8.2-0.2-10.5-4
	s-5.8-5.1-9.6-6.5c-11-4.1-14.2-9.7-10.7-20.8c2-6.3,5.5-12.1,7.9-18.2c1.4-3.6,2.8-7.5,2.8-11.2c0.1-6.4,1.6-11.4,6.7-15.8
	c7.6-6.6,7.2-15.9,6.5-25c-0.5-5.9-2-12-1.1-17.7c2-12.9,0.1-25.4-2.6-37.6c-3.5-15.8-4.3-31.6-4.9-47.6
	c-1.1-29.6-2.1-59.3-4.1-88.8c-1.7-26.2-4.9-52.3-7-78.5c-1-12.3-1-24.6-1.7-36.9c-1.6-29.7-8.9-58.5-13.4-87.8
	c-2.7-17.8-4.6-35.7-6.8-53.5c-2.6-21.5-5.3-43-7.7-64.5c-1.4-12.2-2.4-24.5-3.8-36.8c-0.5-4.6-1.6-9-2.9-15.6
	c-8.9,3.7-16.2,6.7-23.4,9.8c-18.3,8-37,15.3-54.8,24.2c-21.7,10.9-42.7,23.2-63.9,35c-1.7,1-3.3,2.3-4.6,3.8
	c-4.5,4.8-4.8,7.4-0.1,11.8c16.1,15,25,34.2,32,54.5c1,2.8,2.1,5.6,3.6,8.2c3.8,7,4.8,14.4,4.1,22.2c-0.6,7.3-0.7,14.6-1.2,21.9
	c-0.6,7.6-1.5,15.2-2.3,22.7c-0.2,2.3-1.3,4.6-1.1,6.8c1.2,15.7-3.9,29.4-12,42.4c-3.5,5.7-6.2,11.8-9.7,17.5
	c-8.4,13.9-17.3,27.6-25.4,41.7c-8.8,15.4-19.7,29.3-31.1,42.6c-13.3,15.4-24,32.6-35.5,49.3c-9.4,13.7-17.5,28.3-25.9,42.6
	c-2,3.8-3.5,7.9-4.4,12.2c-2.9,12-9.1,23.4-5.7,36.6c0.9,3.7-1.4,8.3-2.7,12.4c-1.4,4.6-3,8.9,2.7,12c1.4,0.8,2.1,3.2,2.7,4.9
	c0.8,2.5,1.8,5.2,1.8,7.7c0,13.8,7.1,23.4,16.8,32.4c8.2,7.6,14.8,17,22.4,25.3c12.7,13.6,27,25.9,38.3,40.5
	c14,18.1,31.7,33,43.7,52.9c8,13.3,18.7,24.9,28.1,37.4c1.8,2.4,2.9,5.2,4.6,7.7c2.1,3,4,6.3,6.7,8.6c5.7,4.8,10.8,9.5,12.6,17.3
	c0.7,2.9,3.7,5.5,6.2,7.6c12.5,10.1,19.8,24,26.8,37.9c5.6,11.2,11.1,22.6,15.4,34.4c2.8,8.2,4.4,16.8,4.8,25.4
	c0.6,13.3,0.4,26.6-0.6,39.8c-0.4,5.4-3,10.8-5,16c-4.6,11.7-9.7,23.3-14.2,35.1c-7.6,20.2-15.5,40.3-26.1,59.3
	c-5,9-9.6,18.2-13.8,27.6c-13,29.1-25,58.7-41.1,86.2c-16.7,28.5-30.1,58.5-44.4,88.2c-14.1,29.4-29.6,58.1-46.1,86.2
	c-11.7,20-26.3,38.3-44.9,52.9c-5.1,4-8.6,10.1-12.7,15.3c-3,3.8-7,5.1-11.5,4.9c-2,0-3.9-0.6-5.4-1.8c-7.6-6.9-16.4-12.4-26-16.2
	c-2.6-1.1-4.8-3.4-6.9-5.5c-1.7-1.6-2.8-3.7-4.3-5.5c-2.4-2.9-6.8-5.7-7.1-8.8c-0.5-5.4,1-11.2,2.6-16.5c1.2-3.5,3.2-6.6,5.9-9.2
	c9-8.5,12.6-20.2,18.6-30.5c6.4-10.9,11-22.7,17-33.8c4.7-8.8,10.5-17,15.1-25.8c3.7-7,6.3-14.6,9.2-22.1c3.2-8,5.6-16.4,9.4-24.1
	c6.5-13.1,7.8-27.4,10.9-41.4c1.3-5.8,3.8-11.3,5.3-17c2-6.6,3.6-13.4,4.9-20.2c2.5-15.4,4.5-31,6.7-46.4c0.2-0.7,0.3-1.3,0.3-2
	c-2.1-16.3-0.7-33.3-9.6-48.4c-2.7-4.5-3.9-9.9-6.4-14.5c-8.6-15.9-19.5-30.1-30.8-44c-6.3-7.7-11.9-15.9-17.9-23.9"/>
</svg>
