<svg xmlns="http://www.w3.org/2000/svg" viewBox="0 0 346.72 26.64"><defs><style>.a{fill:#e9e9e9}.b{fill:#536a6f}</style></defs><title>header-music</title><path class="a" d="M17.13 18.83H8.67l-1.08 3.2h2.78v4.17H0v-4.17h1.55l8-21.6h8l7.82 21.6h1.48v4.17H15.51v-4.17h2.66zM12.96 5.76h-.08l-2.7 9.11h5.44zM41.19.43h10.18v4.18h-2v12.71c0 6.73-4.25 9.32-10.58 9.32-8.21 0-10.4-5-10.4-8.78V4.61h-1.82V.43h11.34v4.18h-2.54V17.1c0 2.77.83 5.36 4.14 5.36 3 0 4.18-2.59 4.18-5.36V4.61h-2.5V.43zm14.07 4.18h-2.37V.43h13.75c8.1 0 12.09 5.15 12.09 13 0 8.46-4.54 12.81-12.92 12.81H52.89v-4.21h2.38V4.61zm8.82 17.42c2.63 0 7.45 0 7.45-9.14 0-5.26-1.73-8.28-7.23-8.28h-2.13v17.42h1.91zM83.56 4.61h-2.59V.43h12.09v4.18h-2.59v17.42h2.59v4.17H80.97v-4.17h2.59V4.61zm24.48 22.03c-8.39 0-12.74-5.58-12.74-13.32S99.66 0 108.04 0s12.74 5.58 12.74 13.32-4.35 13.32-12.74 13.32zm0-22.46c-4.82 0-5.54 5.69-5.54 9.14s.72 9.14 5.54 9.14 5.54-5.69 5.54-9.14-.72-9.14-5.54-9.14zM151.09.43h5.54v9.43h-6a6.82 6.82 0 0 0-1.19-4 4.34 4.34 0 0 0-3.67-1.69c-4.43 0-5.22 5.8-5.22 9.5 0 3.38.65 8.78 5.22 8.78 3.74 0 4.18-3.2 4.36-4.79h6.7c-.25 6.23-5.15 9-10.62 9-9.57 0-12.85-6.26-12.85-13.5S136.89.02 144.63.02a7.64 7.64 0 0 1 6.52 3V.43zm24.66 18.4h-8.46l-1.08 3.2h2.77v4.17h-10.36v-4.17h1.55l8-21.6h8l7.88 21.6h1.48v4.17h-11.4v-4.17h2.66zm-4.18-13.07h-.07l-2.7 9.11h5.44zm30.14-1.15h-2.88v17.42h2.88v4.17h-12.67v-4.17h2.88V4.61h-2.88v5h-5.54V.43h23.76v9.14h-5.54v-5zm23.8 0h-2.59V.43h11.88v4.18h-2.43v17.42h2.38v4.17h-11.84v-4.17h2.59v-6.77h-8.28v6.77h2.59v4.17h-11.87v-4.17h2.38V4.61h-2.37V.43h11.88v4.18h-2.59v6.48h8.28V4.61zm27.57 14.22h-8.46l-1.08 3.2h2.77v4.17h-10.36v-4.17h1.55l8-21.6h8l7.87 21.6h1.48v4.17h-11.39v-4.17h2.66zM248.9 5.76h-.07l-2.7 9.11h5.44zm29.06 12.67c-.58-1.73-.94-2.7-3-2.7h-1.59v6.3h2.52v4.17h-11.61v-4.17h2.38V4.61h-2.38V.43h14c5.08 0 7.85 2 7.85 6.77 0 4.07-2 5.87-5.87 6.48v.14c2.88.25 3.85.86 4.64 3.67l1.26 4.54h2.12v4.17h-7.81zm-2.59-6.66c.72 0 4.1 0 4.1-3.82 0-2.41-1.26-3.35-3.49-3.35h-2.61v7.16h2zM304.78.43h5.33v8.28h-5.54c0-2.05-.72-4.54-3.85-4.54-2 0-3.42.79-3.42 2.38 0 1.84 1 2.23 6.7 4.46 4.36 1.69 6.7 3.1 6.7 7.7 0 5.54-3.46 7.92-8.89 7.92-2.48 0-4.43-.36-5.79-2.56h-.07v2.12h-5.58v-8.87h5.9a6 6 0 0 0 .9 3.71 4.06 4.06 0 0 0 3.49 1.48 2.8 2.8 0 0 0 3.1-2.81c0-1.94-1-2.59-6.59-4.5-3.28-1.12-6.59-2.7-6.59-6.91 0-5.58 2.84-8.24 8.39-8.24 1.91 0 4.75.5 5.72 2.41h.07v-2zm10.15 4.18h-2.56V.43h12.09v4.18h-2.59v17.42h2.59v4.17h-12.09v-4.17h2.59V4.61zM340.81.43h5.33v8.28h-5.54c0-2.05-.72-4.54-3.85-4.54-2 0-3.42.79-3.42 2.38 0 1.84 1 2.23 6.7 4.46 4.36 1.69 6.7 3.1 6.7 7.7 0 5.54-3.46 7.92-8.89 7.92-2.48 0-4.43-.36-5.79-2.56h-.07v2.12h-5.61v-8.87h5.9a6 6 0 0 0 .9 3.71 4.06 4.06 0 0 0 3.49 1.48 2.8 2.8 0 0 0 3.1-2.81c0-1.94-1-2.59-6.59-4.5-3.28-1.12-6.59-2.7-6.59-6.91 0-5.58 2.84-8.24 8.39-8.24 1.91 0 4.75.5 5.72 2.41h.07v-2z"/><path d="M83.52 9.38h-.65V8.32h2.38v1h-.34l-1.25 5.4h-2l-.74-5-.86 5h-2l-1.22-5.4h-.35v-1h2.63v1h-.66l.66 4 1.02-5h1.8l.86 5.06zm4.85.94h1v2.36h-1v-.69h-.61v1.75h2v-1.08h1.33v2.12h-5.55v-1h.59v-4.4h-.59V8.32h5.55v2h-1.33v-1h-2v1.62h.61v-.62zm9 4.57a3 3 0 0 1-3.19-3.33 3.19 3.19 0 1 1 6.37 0 3 3 0 0 1-3.18 3.33zm0-5.62c-1.21 0-1.39 1.42-1.39 2.29s.18 2.29 1.39 2.29 1.39-1.42 1.39-2.29-.15-2.29-1.39-2.29zm8.54.11h-.69V8.32h2.55v1h-.52v5.4h-2.15l-2.1-5v3.94h.71v1h-2.64v-1h.59V9.38h-.59V8.32h2.87l2 4.85V9.38zm5.87 2.94h1.44v2.43h-5.18v-1h.59V9.38h-.59V8.32h3.21v1h-.88v4.36h1.41v-1.36zm5.15-2.94h-.56V8.32h2.57v1h-.38l-1.86 3.07v1.29h.76v1h-3.24v-1h.76v-1.23l-1.88-3.07h-.36V8.32h2.88v1h-.61l1 1.77zm9.18 0h-.65V8.32h3v1h-.59v4.36h.59v1h-3v-1h.65v-1.64h-2.07v1.69h.65v1h-3v-1h.59V9.38h-.59V8.32h3v1h-.65v1.62h2.07V9.38zm5.44.94h1v2.36h-1v-.69h-.61v1.75h2v-1.08h1.33v2.12h-5.55v-1h.59v-4.4h-.59V8.32h5.55v2h-1.33v-1h-2v1.62h.61v-.62zm7.46 2.61h-2.12l-.27.8h.69v1h-2.59v-1h.39l2-5.4h2l2 5.4h.37v1h-2.84v-1h.67zm-1-3.27l-.68 2.28h1.36zm7.22 3.17a.7.7 0 0 0-.74-.68h-.41v1.58h.63v1h-2.9v-1h.56V9.38h-.59V8.32h3.5c1.27 0 2 .5 2 1.69a1.47 1.47 0 0 1-1.47 1.62 1 1 0 0 1 1.16.92l.31 1.13h.53v1h-2zm-.66-1.67a.91.91 0 0 0 1-1 .75.75 0 0 0-.87-.84h-.65v1.79h.5zm12.8-1.78h-.65V8.32h2.38v1h-.33l-1.25 5.4h-2l-.74-5-.86 5h-2l-1.22-5.4h-.33v-1H153v1h-.63l.66 4 .97-5h1.8l.86 5.06zm6.42 0h-.65V8.32h3v1h-.59v4.36h.59v1h-3v-1h.65v-1.64h-2.07v1.69h.65v1h-3v-1h.59V9.38h-.59V8.32h3v1h-.65v1.62h2.07V9.38zm6.89 3.55h-2.11l-.27.8h.69v1h-2.62v-1h.39l2-5.4h2l2 5.4h.37v1h-2.84v-1h.67zm-1-3.27l-.68 2.28h1.36zm7.49-.28h-.72v4.36h.72v1H174v-1h.72V9.38H174v1.24h-1.39v-2.3h5.94v2.3h-1.38V9.38zm10.71 0h-.65V8.32h2.38v1h-.34l-1.25 5.4h-2l-.74-5-.86 5h-2l-1.22-5.4h-.35v-1h2.63v1h-.61l.66 4 .97-5h1.8l.86 5.06zm4.84.94h1v2.36h-1v-.69h-.61v1.75h2v-1.08h1.33v2.12h-5.55v-1h.59v-4.4h-.59V8.32h5.55v2h-1.33v-1h-2v1.62h.61v-.62zm12.34-.94h-.69V8.32h2.38v1h-.34l-1.25 5.4h-2l-.74-5-.86 5h-2l-1.21-5.4h-.28v-1h2.63v1h-.66l.66 4 .97-5h1.8l.9 5.07zm5.63 3.55h-2.12l-.27.8h.69v1h-2.62v-1h.39l2-5.4h2l2 5.4h.37v1h-2.83v-1h.67zm-1-3.27l-.68 2.28h1.36zm8.58-.28h-.7V8.32h2.55v1h-.52v5.4h-2.15l-2.1-5v3.94h.71v1h-2.69v-1h.59V9.38h-.59V8.32h2.87l2 4.85V9.38zm6.58 0h-.72v4.36h.72v1h-3.17v-1h.69V9.38h-.72v1.24h-1.39v-2.3h5.94v2.3h-1.39V9.38zm8.16 0h-.72v4.36h.72v1h-3.17v-1h.72V9.38h-.72v1.24h-1.39v-2.3h5.92v2.3h-1.39V9.38zm4.91 5.51a3 3 0 0 1-3.19-3.33 3.19 3.19 0 1 1 6.37 0 3 3 0 0 1-3.18 3.33zm0-5.62c-1.21 0-1.39 1.42-1.39 2.29s.18 2.29 1.39 2.29 1.39-1.42 1.39-2.29-.18-2.29-1.39-2.29zm10.54.11h-.65V8.32h3v1h-.59v4.36h.59v1h-3v-1h.65v-1.64h-2.09v1.69h.65v1h-3v-1h.59V9.38h-.54V8.32h3v1h-.7v1.62h2.07V9.38zm5.44.94h1v2.36h-1v-.69h-.61v1.75h2v-1.08h1.33v2.12h-5.55v-1h.59v-4.4h-.59V8.32h5.55v2h-1.33v-1h-2v1.62h.61v-.62zm7.47 2.61h-2.12l-.27.8h.69v1h-2.6v-1h.39l2-5.4h2l2 5.4h.37v1H261v-1h.67zm-1-3.27l-.68 2.28h1.36zm7.21 3.17a.7.7 0 0 0-.74-.68h-.41v1.58h.63v1h-2.9v-1h.59V9.38h-.59V8.32h3.5c1.27 0 2 .5 2 1.69a1.47 1.47 0 0 1-1.47 1.62 1 1 0 0 1 1.16.92l.31 1.13h.53v1h-2zm-.66-1.67a.91.91 0 0 0 1-1 .75.75 0 0 0-.87-.84h-.65v1.79h.5z"/><path class="b" d="M120.3 16.8v2a1 1 0 0 1 .85-.4 1.37 1.37 0 0 1 .95.37 1.45 1.45 0 0 1 .43 1.07 1.53 1.53 0 0 1-.43 1.09 1.22 1.22 0 0 1-.93.37 1 1 0 0 1-.86-.42v.33h-.94V16.8h.88zm.14 2.59a.7.7 0 0 0-.2.5.66.66 0 0 0 .2.49.75.75 0 0 0 .5.2.68.68 0 0 0 .46-.19.69.69 0 0 0 .21-.5.7.7 0 0 0-.21-.52.7.7 0 0 0-.96.03zm3.51-.86v1.5a.57.57 0 0 0 .15.44.52.52 0 0 0 .37.13.55.55 0 0 0 .37-.13.59.59 0 0 0 .15-.44v-1.5h.88v1.59a1.09 1.09 0 0 1-.31.87 1.87 1.87 0 0 1-2.19 0 1 1 0 0 1-.3-.82v-1.64h.88zm3.5.71v2h-.88v-2h-.31v-.71h.31v-.88h.88v.88h.54v.71h-.54zm2.34-.71h.88v.32a.86.86 0 0 1 .76-.38 1 1 0 0 1 .51.12.8.8 0 0 1 .33.38 1 1 0 0 1 .35-.35 1 1 0 0 1 .58-.15.94.94 0 0 1 1 1.07v1.72h-.83v-1.39a.9.9 0 0 0-.12-.53.4.4 0 0 0-.32-.15.42.42 0 0 0-.34.17.87.87 0 0 0-.13.54v1.35h-.88v-1.41a.73.73 0 0 0-.14-.53.4.4 0 0 0-.29-.11.43.43 0 0 0-.31.11.83.83 0 0 0-.17.56v1.39h-.88v-2.73zm6.02 0v1.5a.57.57 0 0 0 .15.44.52.52 0 0 0 .37.13.54.54 0 0 0 .37-.13.59.59 0 0 0 .15-.44v-1.5h.88v1.59a1.09 1.09 0 0 1-.31.87 1.87 1.87 0 0 1-2.19 0 1 1 0 0 1-.3-.82v-1.64h.88zm4.26.7a1 1 0 0 0-.48-.15.38.38 0 0 0-.25.08.19.19 0 0 0-.05.12.14.14 0 0 0 .09.12 1.69 1.69 0 0 0 .26.09l.23.07a1.15 1.15 0 0 1 .45.24.65.65 0 0 1 .21.52 1 1 0 0 1-.28.71 1.18 1.18 0 0 1-.88.29 1.62 1.62 0 0 1-1.12-.39l.37-.59a1.46 1.46 0 0 0 .3.2.83.83 0 0 0 .37.08.49.49 0 0 0 .27-.06.23.23 0 0 0 .09-.18.18.18 0 0 0-.1-.16 1.16 1.16 0 0 0-.27-.1l-.22-.07a1.09 1.09 0 0 1-.44-.25.67.67 0 0 1-.2-.49.84.84 0 0 1 .26-.63 1.2 1.2 0 0 1 .82-.27 1.72 1.72 0 0 1 .9.23zm1.49-2.37a.51.51 0 1 1-.51.51.51.51 0 0 1 .51-.51zm.44 1.67v2.72h-.88v-2.72h.88zm2.78.86a.89.89 0 0 0-.57-.21.7.7 0 0 0-.5.2.72.72 0 0 0-.2.51.7.7 0 0 0 .18.49.72.72 0 0 0 .53.22.86.86 0 0 0 .56-.21v.79a1.37 1.37 0 0 1-.7.17 1.46 1.46 0 0 1-1.06-.41 1.42 1.42 0 0 1-.43-1 1.43 1.43 0 0 1 1.49-1.46 1.56 1.56 0 0 1 .69.15v.8zm2.01-.86h.88v.43a1 1 0 0 1 .34-.38.84.84 0 0 1 .47-.12.89.89 0 0 1 .29 0v.82a.84.84 0 0 0-.4-.1.57.57 0 0 0-.44.18 1 1 0 0 0-.21.73v1.1h-.88v-2.66zm5.04 1.51h-2a.74.74 0 0 0 .17.46.59.59 0 0 0 .45.17.73.73 0 0 0 .35-.08.53.53 0 0 0 .19-.23l.83.08a1.21 1.21 0 0 1-.52.68 1.61 1.61 0 0 1-.86.2 1.41 1.41 0 0 1-1.09-.39 1.47 1.47 0 0 1-.41-1 1.55 1.55 0 0 1 .42-1.07 1.61 1.61 0 0 1 2.12 0 1.55 1.55 0 0 1 .38 1.11v.09zm-.81-.53a.69.69 0 0 0-.18-.32.65.65 0 0 0-.86 0 .62.62 0 0 0-.15.29h1.19zm1.99-.98l.69 1.46.67-1.46h1l-1.38 2.72h-.55l-1.38-2.72h1zm5.36 1.51h-2a.74.74 0 0 0 .17.46.59.59 0 0 0 .45.17.73.73 0 0 0 .35-.08.53.53 0 0 0 .19-.23l.84.1a1.21 1.21 0 0 1-.52.68 1.61 1.61 0 0 1-.86.2 1.41 1.41 0 0 1-1.09-.39 1.47 1.47 0 0 1-.41-1 1.55 1.55 0 0 1 .42-1.07 1.61 1.61 0 0 1 2.12 0 1.55 1.55 0 0 1 .38 1.11v.09zm-.81-.53a.69.69 0 0 0-.18-.32.65.65 0 0 0-.86 0 .62.62 0 0 0-.15.29h1.19zm1.39-.98h.88v.43a1 1 0 0 1 .34-.38.84.84 0 0 1 .47-.12.89.89 0 0 1 .29 0v.82a.84.84 0 0 0-.4-.1.57.57 0 0 0-.44.18 1 1 0 0 0-.21.73v1.1H159v-2.66zm3.25-1.73v2a1 1 0 0 1 .85-.4 1.37 1.37 0 0 1 .95.37 1.46 1.46 0 0 1 .43 1.07 1.53 1.53 0 0 1-.43 1.09 1.22 1.22 0 0 1-.93.37 1 1 0 0 1-.86-.42v.33h-.88V16.8h.88zm.17 2.6a.7.7 0 0 0-.2.5.66.66 0 0 0 .2.49.75.75 0 0 0 .5.2.67.67 0 0 0 .46-.19.69.69 0 0 0 .21-.5.7.7 0 0 0-.21-.52.7.7 0 0 0-.96.02zm5.39.64h-2a.74.74 0 0 0 .17.46.59.59 0 0 0 .45.17.73.73 0 0 0 .35-.08.54.54 0 0 0 .19-.23l.83.08a1.22 1.22 0 0 1-.53.68 1.61 1.61 0 0 1-.86.2 1.41 1.41 0 0 1-1.09-.39 1.46 1.46 0 0 1-.41-1 1.55 1.55 0 0 1 .41-1.07 1.61 1.61 0 0 1 2.13 0 1.55 1.55 0 0 1 .38 1.11v.09zm-.81-.53a.69.69 0 0 0-.18-.32.65.65 0 0 0-.86 0 .61.61 0 0 0-.15.29h1.19zm1.35-.98h.88v.43a1 1 0 0 1 .34-.38.84.84 0 0 1 .47-.12.89.89 0 0 1 .29 0v.82a.84.84 0 0 0-.4-.1.57.57 0 0 0-.44.18 1 1 0 0 0-.21.73v1.1h-.88v-2.66zm4.34 0h.88v2.72h-.88v-.33a.91.91 0 0 1-.8.42 1.29 1.29 0 0 1-1-.42 1.44 1.44 0 0 1-.4-1 1.55 1.55 0 0 1 .42-1.1 1.31 1.31 0 0 1 .95-.37 1 1 0 0 1 .85.4v-.3zm-1.12.86a.68.68 0 0 0-.2.49.7.7 0 0 0 .18.49.72.72 0 0 0 .52.21.65.65 0 0 0 .46-.19.72.72 0 0 0 0-1 .73.73 0 0 0-.49-.19.69.69 0 0 0-.47.19zm3.58-.15v2h-.88v-2h-.31v-.71h.31v-.88h.88v.88h.54v.71h-.54zm3.71.8h-2a.74.74 0 0 0 .17.46.59.59 0 0 0 .45.17.73.73 0 0 0 .35-.08.53.53 0 0 0 .19-.23l.83.08a1.21 1.21 0 0 1-.52.68 1.61 1.61 0 0 1-.86.2 1.41 1.41 0 0 1-1.09-.39 1.47 1.47 0 0 1-.41-1 1.55 1.55 0 0 1 .42-1.07 1.61 1.61 0 0 1 2.12 0 1.55 1.55 0 0 1 .38 1.11v.09zm-.81-.53a.69.69 0 0 0-.18-.32.65.65 0 0 0-.86 0 .62.62 0 0 0-.15.29H178zm3.03-.28a1 1 0 0 0-.48-.15.38.38 0 0 0-.25.08.19.19 0 0 0-.05.12.14.14 0 0 0 .08.12 1.71 1.71 0 0 0 .26.09l.23.07a1.14 1.14 0 0 1 .45.24.65.65 0 0 1 .21.52 1 1 0 0 1-.28.71 1.17 1.17 0 0 1-.83.29 1.62 1.62 0 0 1-1.12-.39l.37-.59a1.46 1.46 0 0 0 .3.2.83.83 0 0 0 .37.08.49.49 0 0 0 .27-.06.23.23 0 0 0 .09-.18.18.18 0 0 0-.1-.16 1.15 1.15 0 0 0-.27-.1l-.22-.07a1.09 1.09 0 0 1-.44-.25.67.67 0 0 1-.25-.48.84.84 0 0 1 .26-.63 1.2 1.2 0 0 1 .82-.27 1.73 1.73 0 0 1 .9.23zm3.34.01v2h-.88v-2h-.3v-.71h.3v-.88h.88v.88h.54v.71h-.54zm.91-2.44h.88v2.05a1.12 1.12 0 0 1 .33-.28 1 1 0 0 1 .53-.12 1 1 0 0 1 .77.28 1.08 1.08 0 0 1 .27.79v1.73h-.88v-1.4a.73.73 0 0 0-.15-.54.5.5 0 0 0-.34-.12.48.48 0 0 0-.32.13.78.78 0 0 0-.18.57v1.36h-.88V16.8zm3.46 1.73h.88v.43a1 1 0 0 1 .34-.38.84.84 0 0 1 .47-.12.89.89 0 0 1 .29 0v.82a.84.84 0 0 0-.4-.1.57.57 0 0 0-.44.18 1 1 0 0 0-.21.73v1.1h-.88v-2.66zm4.9 2.37a1.83 1.83 0 0 1-2.38 0 1.46 1.46 0 0 1 0-2 1.83 1.83 0 0 1 2.38 0 1.46 1.46 0 0 1 0 2zm-1.68-1.53a.75.75 0 0 0 0 1 .67.67 0 0 0 .5.2.66.66 0 0 0 .49-.2.75.75 0 0 0 0-1 .72.72 0 0 0-.99.01zm3.52-.84v1.5a.57.57 0 0 0 .15.44.52.52 0 0 0 .37.13.54.54 0 0 0 .37-.13.59.59 0 0 0 .15-.44v-1.5h.85v1.59a1.09 1.09 0 0 1-.3.87 1.87 1.87 0 0 1-2.19 0 1 1 0 0 1-.3-.82v-1.64h.88zm4.67 0h.88v2.56a1.59 1.59 0 0 1-.34 1.16 1.56 1.56 0 0 1-1.15.4 1.69 1.69 0 0 1-1.17-.33 1.21 1.21 0 0 1-.41-.72h1a.45.45 0 0 0 .2.27.73.73 0 0 0 .38.09.62.62 0 0 0 .44-.15.81.81 0 0 0 .18-.57v-.32a.86.86 0 0 1-.79.4 1.34 1.34 0 0 1-1-.38 1.42 1.42 0 0 1-.4-1 1.56 1.56 0 0 1 .4-1.09 1.34 1.34 0 0 1 1-.39.9.9 0 0 1 .81.41v-.34zm-1.09.85a.75.75 0 0 0-.21.51.72.72 0 0 0 .19.49.65.65 0 0 0 .5.2.68.68 0 0 0 .48-.18.72.72 0 0 0 .21-.52.69.69 0 0 0-.21-.5.73.73 0 0 0-.48-.17.72.72 0 0 0-.49.17zm2.67-2.58h.88v2.05a1.1 1.1 0 0 1 .33-.28 1 1 0 0 1 .53-.12 1 1 0 0 1 .77.28 1.08 1.08 0 0 1 .27.79v1.73h-.88v-1.4a.73.73 0 0 0-.15-.54.5.5 0 0 0-.34-.12.48.48 0 0 0-.35.13.77.77 0 0 0-.18.57v1.36h-.88V16.8zm7.64 3.24h-2a.74.74 0 0 0 .17.46.59.59 0 0 0 .45.17.73.73 0 0 0 .35-.08.54.54 0 0 0 .19-.23l.84.1a1.22 1.22 0 0 1-.53.68 1.61 1.61 0 0 1-.86.2 1.41 1.41 0 0 1-1.09-.39 1.46 1.46 0 0 1-.41-1 1.55 1.55 0 0 1 .41-1.07 1.61 1.61 0 0 1 2.13 0 1.55 1.55 0 0 1 .38 1.11v.09zm-.81-.53a.69.69 0 0 0-.18-.32.65.65 0 0 0-.86 0 .61.61 0 0 0-.15.29h1.19zm2.29-.27v2h-.88v-2h-.3v-.71h.31v-.88h.88v.88h.51v.71h-.54zm3.71.8h-2a.74.74 0 0 0 .17.46.59.59 0 0 0 .45.17.73.73 0 0 0 .35-.08.54.54 0 0 0 .19-.23l.83.08a1.22 1.22 0 0 1-.53.68 1.61 1.61 0 0 1-.86.2 1.41 1.41 0 0 1-1.09-.39 1.46 1.46 0 0 1-.41-1 1.55 1.55 0 0 1 .41-1.07 1.61 1.61 0 0 1 2.13 0 1.55 1.55 0 0 1 .38 1.11v.09zm-.81-.53a.69.69 0 0 0-.18-.32.65.65 0 0 0-.86 0 .61.61 0 0 0-.15.29h1.19zm1.36-.98h.88v.43a1 1 0 0 1 .34-.38.84.84 0 0 1 .47-.12.89.89 0 0 1 .29 0v.82a.84.84 0 0 0-.4-.1.57.57 0 0 0-.44.18 1 1 0 0 0-.21.73v1.1h-.88v-2.66zm2.34 0h.92v.32a1 1 0 0 1 .84-.4 1 1 0 0 1 1.06 1.07v1.72h-.9v-1.4a.75.75 0 0 0-.15-.54.46.46 0 0 0-.34-.12.48.48 0 0 0-.37.15.7.7 0 0 0-.17.52v1.4h-.88v-2.72zm3.92-1.67a.51.51 0 1 1-.51.51.51.51 0 0 1 .51-.51zm.44 1.67v2.72h-.84v-2.72h.88zm1.69.71v2h-.88v-2h-.31v-.71h.31v-.88h.88v.88h.54v.71h-.54zm2.02 1.66l-1.3-2.37h1l.77 1.48.75-1.48h1l-2.19 4.12h-1z"/></svg>