<svg xmlns="http://www.w3.org/2000/svg" viewBox="0 0 405.22 26.64"><defs><style>.a{fill:#e9e9e9}.b{fill:#536a6f}</style></defs><title>header-search</title><path class="a" d="M2.38 4.61H0V.43h13.75c8.1 0 12.09 5.15 12.09 13 0 8.46-4.54 12.81-12.92 12.81H0v-4.21h2.38V4.61zm8.82 17.42c2.63 0 7.45 0 7.45-9.14 0-5.26-1.73-8.28-7.23-8.28H9.29v17.42h1.91zM30.67 4.61H28.1V.43h12.07v4.18h-2.59v17.42h2.59v4.17H28.1v-4.17h2.59V4.61zM61.02.43h5.54v9.14h-6a5.82 5.82 0 0 0-.94-3.1 4.58 4.58 0 0 0-4.1-2.09c-4.86 0-5.87 5.69-5.87 9.47s1.15 8.39 5.87 8.39a4.91 4.91 0 0 0 5.26-5H58.1v-4.21h10.55v4.17h-1.87v9h-5.55v-2.62h-.07c-1.3 2.59-4.39 3.06-7.06 3.06-7.34 0-11.7-4.75-11.7-13.61 0-7.16 3.28-13 11.37-13a9.05 9.05 0 0 1 7.24 2.88V.43zm28.01 0h5.54v9.14h-6a5.82 5.82 0 0 0-.94-3.1 4.58 4.58 0 0 0-4.1-2.09c-4.86 0-5.87 5.69-5.87 9.47s1.15 8.39 5.87 8.39a4.91 4.91 0 0 0 5.26-5H86.1v-4.21h10.56v4.17h-1.87v9h-5.55v-2.62h-.07c-1.3 2.59-4.39 3.06-7.06 3.06-7.34 0-11.7-4.75-11.7-13.61 0-7.16 3.28-13 11.37-13a9.05 9.05 0 0 1 7.24 2.88V.43zm11.7 4.18H98.1V.43h12.09v4.18h-2.59v17.42h2.59v4.17H98.1v-4.17h2.59V4.61zm30.49 0h-2.77V.43h10.19v4.18h-2.09v21.6h-8.6l-8.39-19.94h-.07v15.76h2.84v4.17h-10.55v-4.17h2.38V4.61h-2.38V.43h11.48l7.84 19.41h.07V4.61zM159.1.43h5.54v9.14h-6a5.82 5.82 0 0 0-.94-3.1 4.58 4.58 0 0 0-4.1-2.09c-4.86 0-5.87 5.69-5.87 9.47s1.15 8.39 5.87 8.39a4.91 4.91 0 0 0 5.26-5h-2.76v-4.21h10.58v4.17h-1.87v9h-5.51v-2.62h-.07c-1.3 2.59-4.39 3.06-7.05 3.06-7.34 0-11.7-4.75-11.7-13.61 0-7.16 3.28-13 11.37-13a9.05 9.05 0 0 1 7.25 2.85V.43zm21.69 4.18h-2.59V.43h12.09v4.18h-2.59v17.42h2.59v4.17H178.2v-4.17h2.59V4.61zm30.49 0h-2.77V.43h10.19v4.18h-2.09v21.6h-8.6l-8.39-19.94h-.07v15.76h2.84v4.17h-10.55v-4.17h2.38V4.61h-2.37V.43h11.48l7.88 19.4h.07V4.61zm35 0h-2.88v17.42h2.88v4.17h-12.67v-4.17h2.88V4.61h-2.88v5h-5.51V.43h23.76v9.14h-5.54v-5zm23.82 0h-2.59V.43h11.88v4.18h-2.38v17.42h2.38v4.17h-11.91v-4.17h2.62v-6.77h-8.28v6.77h2.59v4.17h-11.9v-4.17h2.38V4.61h-2.37V.43h11.88v4.18h-2.59v6.48h8.29V4.61zm21.72 3.71h4.17v9.43h-4.17v-2.7h-2.45v7h8v-4.3h5.33v8.46h-22.18v-4.18h2.38V4.61h-2.37V.43h22.21v8h-5.34V4.61h-8v6.48h2.45V8.32zm25.42-3.71h-2.38V.43h13.75c8.1 0 12.09 5.15 12.09 13 0 8.46-4.54 12.81-12.92 12.81h-12.92v-4.21h2.38V4.61zm8.86 17.42c2.63 0 7.45 0 7.45-9.14 0-5.26-1.73-8.28-7.24-8.28h-2.21v17.42h2zm19.43-17.42h-2.59V.43h12.09v4.18h-2.59v17.42h2.59v4.17h-12.09v-4.17h2.59V4.61zm25.06 13.82c-.58-1.73-.94-2.7-3-2.7h-1.66v6.3h2.52v4.17h-11.54v-4.17h2.38V4.61h-2.38V.43h14c5.08 0 7.85 2 7.85 6.77 0 4.07-2 5.87-5.87 6.48v.14c2.88.25 3.85.86 4.64 3.67l1.26 4.54h2.12v4.17h-7.81zm-2.63-6.66c.72 0 4.1 0 4.1-3.82 0-2.41-1.26-3.35-3.49-3.35h-2.59v7.16h2zm31.72-7.16h-2.88v17.42h2.88v4.17h-12.67v-4.17h2.88V4.61h-2.88v5h-5.54V.43h23.76v9.14h-5.54v-5z"/><path d="M145.56 8.32h1.39v2.36h-1.51a1.71 1.71 0 0 0-.3-1 1.09 1.09 0 0 0-.92-.42c-1.11 0-1.31 1.45-1.31 2.38s.16 2.2 1.31 2.2a1.1 1.1 0 0 0 1.09-1.2h1.67a2.36 2.36 0 0 1-2.66 2.24c-2.4 0-3.21-1.57-3.21-3.38s.88-3.29 2.82-3.29a1.91 1.91 0 0 1 1.63.74v-.63zm5.24 6.57a3 3 0 0 1-3.19-3.33 3.19 3.19 0 1 1 6.37 0 3 3 0 0 1-3.18 3.33zm0-5.62c-1.21 0-1.39 1.42-1.39 2.29s.18 2.29 1.39 2.29 1.39-1.42 1.39-2.29-.18-2.29-1.39-2.29zm7.3-.95h2.56v1h-.5v3.18c0 1.68-1.06 2.33-2.65 2.33-2.05 0-2.6-1.25-2.6-2.2V9.38h-.47V8.32h2.84v1h-.64v3.12a1.09 1.09 0 0 0 1 1.34 1.14 1.14 0 0 0 1-1.34V9.38h-.54V8.32zm6.58 4h1.42v2.43h-5.18v-1h.59V9.38h-.59V8.32h3.18v1h-.88v4.36h1.41v-1.36zm2.42-2.94h-.59V8.32h3.44c2 0 3 1.29 3 3.24a2.88 2.88 0 0 1-3.23 3.21h-3.23v-1h.61V9.38zm2.21 4.36c.66 0 1.86 0 1.86-2.29 0-1.31-.43-2.07-1.81-2.07h-.53v4.36h.48zm9-4.36h-.69V8.32h2.55v1h-.52v5.4h-2.15l-2.1-5v3.94h.7v1h-2.64v-1h.59V9.38h-.59V8.32h2.87l2 4.85V9.38zm2.46.47V8.32h1.57v1.51l-.45 1.24h-1.12l.53-1.24h-.53zm6.62-.47h-.72v4.36h.72v1h-3.17v-1h.72V9.38h-.72v1.24h-1.39v-2.3h5.94v2.3h-1.39V9.38zm7.03 1.11h1v2.43h-1v-.76h-.61v1.58h.83v1h-3v-1h.59V9.38h-.63V8.32h5.5v2.13h-1.28V9.38h-2v1.79h.61v-.68zm3.77-1.11h-.65V8.32h3v1h-.65v4.36h.65v1h-3v-1h.65v-4.3zm7.63 0h-.72V8.32h2.55v1h-.52v5.4H205l-2.1-5v3.94h.71v1h-2.64v-1h.59V9.38h-.59V8.32h2.87l2 4.85V9.38zm2.81 0h-.59V8.32h3.44c2 0 3 1.29 3 3.24a2.88 2.88 0 0 1-3.23 3.21h-3.23v-1h.59V9.38zm2.21 4.36c.66 0 1.86 0 1.86-2.29 0-1.31-.43-2.07-1.81-2.07h-.53v4.36h.48zm10.58-.81h-2.12l-.27.8h.69v1h-2.62v-1h.39l2-5.4h2l2 5.4h.37v1h-2.84v-1h.67zm-1-3.27l-.67 2.28h1.36zm11.4-1.34h3v1h-.54v4.36h.54v1h-2.65v-1h.59V9.47l-1.38 5.31h-1.57l-1.38-5.4v4.36h.59v1h-2.41v-1h.54V9.38h-.54V8.32h3.08l1 4.65zm6.14 2h1v2.36h-1v-.69h-.61v1.75h2v-1.08h1.33v2.12h-5.58v-1h.59v-4.4h-.59V8.32h5.55v2h-1.33v-1h-2v1.62h.61v-.62zm7.61-.94h-.72v4.36h.72v1h-3.17v-1h.7V9.38h-.7v1.24h-1.39v-2.3h5.94v2.3h-1.39V9.38zm4.38.94h1v2.36h-1v-.69h-.61v1.75h2v-1.08h1.33v2.12h-5.57v-1h.59v-4.4h-.59V8.32h5.55v2h-1.33v-1h-2v1.62h.61v-.62zm6.68 2.51a.7.7 0 0 0-.74-.68h-.41v1.58h.62v1h-2.9v-1h.59V9.38h-.59V8.32h3.5c1.27 0 2 .5 2 1.69a1.47 1.47 0 0 1-1.47 1.62 1 1 0 0 1 1.16.92l.31 1.13h.53v1h-2zm-.66-1.67a.91.91 0 0 0 1-1 .75.75 0 0 0-.87-.84h-.65v1.79h.5z"/><path class="b" d="M169.62 21.25v-4.19h2a1 1 0 0 1 1.2 1 1.06 1.06 0 0 1-.78 1 .89.89 0 0 1 .83 1 1.13 1.13 0 0 1-1.31 1.24h-1.9zm1.87-.67a.46.46 0 0 0 .52-.53.63.63 0 0 0-.77-.65H171v-.5a.91.91 0 0 0 1-.81.35.35 0 0 0-.43-.35h-1.14v2.84h1.09zm2-.97v-2.55h.78v2.54a1.025 1.025 0 0 0 2.05 0v-2.54h.78v2.54a1.81 1.81 0 0 1-3.61.01zm7.22-2.55v.67h-1.2v3.52h-.78v-3.51h-1.2v-.68h3.18zm1.76 4.19v-4.19h.78v1.73h2.07v-1.73h.78v4.19h-.78v-1.78h-2.07v1.79h-.78zm7.36-4.19v.67h-2.1v1.05h2v.69h-2v1.1h2.15v.67h-2.91v-4.18h2.87zm.76 4.19v-4.19h1.9a1.07 1.07 0 0 1 1.28 1.12 1.46 1.46 0 0 1-1 1.26l1.33 1.81h-1l-1.27-1.83v-.35a1 1 0 0 0 1.11-.86.44.44 0 0 0-.52-.46h-1.06v3.5h-.79zm6.75-4.19v.67h-2.1v1.05h2v.69h-2v1.1h2.15v.67h-2.91v-4.18h2.87zm1.62 0l-.43 1.26h-.72l.44-1.27h.72zm.52 4.02v-.7a4.06 4.06 0 0 0 1.42.23q1 0 1-.64a.48.48 0 0 0-.59-.47h-.66a1.09 1.09 0 0 1-1.32-1.18q0-1.29 1.83-1.29a4.28 4.28 0 0 1 1.33.21v.7a3.79 3.79 0 0 0-1.33-.23q-1.05 0-1.05.62a.43.43 0 0 0 .51.47h.66a1.13 1.13 0 0 1 1.37 1.17q0 1.32-1.74 1.32a4.59 4.59 0 0 1-1.43-.21zm7.77.17h-.78v-.93h-2.12v-.56l1.71-2.7h.83l-1.66 2.67h1.23v-1.41h.78v1.4l.43.4v.2h-.43v.91zm2.26 0v-4.19h2a1 1 0 0 1 1.2 1 1.06 1.06 0 0 1-.78 1 .89.89 0 0 1 .83 1 1.13 1.13 0 0 1-1.31 1.24h-1.9zm1.87-.67a.46.46 0 0 0 .52-.53.63.63 0 0 0-.77-.65h-.23v-.5a.91.91 0 0 0 1-.81.35.35 0 0 0-.43-.35h-1.14v2.84h1.09zm2-.97v-2.55h.78v2.54a1.025 1.025 0 0 0 2.05 0v-2.54h.78v2.54a1.81 1.81 0 0 1-3.61.01zm7.82 1.47a3.46 3.46 0 0 1-1.23.21 2 2 0 0 1-2.26-2.18q0-2.07 2.26-2.07a3.46 3.46 0 0 1 1.23.21v.7a2.92 2.92 0 0 0-1.17-.23 1.28 1.28 0 0 0-1.51 1.39 1.33 1.33 0 0 0 1.51 1.51 2.92 2.92 0 0 0 1.17-.23v.7zm1.51-4.02v4.19h-.78v-4.19h.78zm2.95 0l-1.79 2 2 2.24h-1.08l-1.62-2v-.5l1.56-1.73h.95zm.44 4.02v-.7a4.06 4.06 0 0 0 1.42.23q1 0 1-.64a.48.48 0 0 0-.59-.47h-.66a1.09 1.09 0 0 1-1.35-1.18q0-1.29 1.83-1.29a4.28 4.28 0 0 1 1.33.21v.7a3.79 3.79 0 0 0-1.33-.23q-1.05 0-1.05.62a.43.43 0 0 0 .51.47h.66a1.13 1.13 0 0 1 1.37 1.17q0 1.32-1.74 1.32a4.59 4.59 0 0 1-1.4-.21zm4.57-4.02v3.11h-.78v-3.11h.78zm0 3.47v.72h-.78v-.72h.78z"/></svg>