<svg xmlns="http://www.w3.org/2000/svg" viewBox="0 0 399.96 26.64"><defs><style>.a{fill:#e9e9e9}.b{fill:#536a6f}</style></defs><title>header-credits</title><path class="a" d="M2.38 4.61H0V.43h13.68c5.08 0 8.17 3.13 8.17 8.21 0 5.83-3.35 8.13-9 8.13H9.1v5.26h3.24v4.17H0v-4.17h2.38V4.61zm8.46 8c3.1 0 4.1-1.15 4.1-4.32 0-2.74-1.26-3.67-3.82-3.67H9.1v8h1.76zm24.15-4.29h4.18v9.43h-4.18v-2.7h-2.45v7h8v-4.3h5.36v8.46H23.69v-4.18h2.41V4.61h-2.41V.43H45.9v8h-5.33V4.61h-8v6.48h2.45V8.32zM61.7 18.43c-.58-1.73-.94-2.7-3-2.7h-1.6v6.3h2.52v4.17h-11.6v-4.17h2.38V4.61h-2.38V.43h14c5.08 0 7.85 2 7.85 6.77 0 4.07-2 5.87-5.87 6.48v.14c2.88.25 3.85.86 4.64 3.67l1.26 4.54h2.12v4.17h-7.8zm-2.6-6.66c.72 0 4.1 0 4.1-3.82 0-2.41-1.26-3.35-3.49-3.35H57.1v7.16h2zM88.52.43h5.33v8.28H88.3c0-2.05-.72-4.54-3.85-4.54-2 0-3.42.79-3.42 2.38 0 1.84 1 2.23 6.7 4.46 4.36 1.69 6.7 3.1 6.7 7.7 0 5.54-3.46 7.92-8.89 7.92-2.48 0-4.43-.36-5.8-2.56h-.07v2.12H74.1v-8.87H80a6 6 0 0 0 .9 3.71 4.06 4.06 0 0 0 3.49 1.48 2.8 2.8 0 0 0 3.1-2.81c0-1.94-1-2.59-6.59-4.5-3.28-1.12-6.59-2.7-6.59-6.91 0-5.58 2.84-8.24 8.39-8.24 1.91 0 4.75.5 5.72 2.41h.07v-2zm10.15 4.18H96.1V.43h12.09v4.18h-2.59v17.42h2.59v4.17H96.1v-4.17h2.59V4.61zM124.56.43h5.33v8.28h-5.54c0-2.05-.72-4.54-3.85-4.54-2 0-3.42.79-3.42 2.38 0 1.84 1 2.23 6.7 4.46 4.36 1.69 6.7 3.1 6.7 7.7 0 5.54-3.46 7.92-8.89 7.92-2.48 0-4.43-.36-5.8-2.56h-.09v2.12h-5.54v-8.87h5.94a6 6 0 0 0 .9 3.71 4.06 4.06 0 0 0 3.49 1.48 2.8 2.8 0 0 0 3.1-2.81c0-1.94-1-2.59-6.59-4.5-3.28-1.12-6.59-2.7-6.59-6.91 0-5.58 2.84-8.24 8.39-8.24 1.91 0 4.75.5 5.72 2.41h.07v-2zm24.91 4.18h-2.88v17.42h2.88v4.17H136.8v-4.17h2.88V4.61h-2.88v5h-5.54V.43h23.76v9.14h-5.54v-5zm20.7 14.22h-8.46l-1.08 3.2h2.77v4.17h-10.37v-4.17h1.55l8-21.6h8l7.88 21.6h1.48v4.17h-11.39v-4.17h2.66zM166 5.76h-.07l-2.7 9.11h5.44zm34.48-1.15h-2.77V.43h10.19v4.18h-2.09v21.6h-8.6l-8.39-19.94h-.07v15.76h2.84v4.17h-10.55v-4.17h2.38V4.61h-2.37V.43h11.48l7.88 19.4h.07V4.61zM227.52.43h5.58v9.43h-6a6.82 6.82 0 0 0-1.19-4 4.34 4.34 0 0 0-3.67-1.69c-4.43 0-5.22 5.8-5.22 9.5 0 3.38.65 8.78 5.22 8.78 3.74 0 4.17-3.2 4.36-4.79h6.69c-.25 6.23-5.15 9-10.62 9-9.58 0-12.85-6.26-12.85-13.5S213.26 0 221 0a7.64 7.64 0 0 1 6.52 3V.43zm18.82 7.89h4.17v9.43h-4.17v-2.7h-2.44v7h8v-4.3h5.33v8.46h-22.19v-4.18h2.38V4.61h-2.37V.43h22.21v8h-5.33V4.61h-8v6.48h2.45V8.32zm40.14 2.41h8.67v3.67h-2.41a13 13 0 0 1-2.56 6.3l1.33 1.55h3.64v4h-7.63l-1.42-1.55a12.57 12.57 0 0 1-7.38 1.94c-6.7 0-8.93-4-8.93-7.49s1.87-5.9 4.82-7.45c-1.4-1.55-2.66-3.35-2.66-5.44 0-4.36 3.74-6.26 7.67-6.26 5.08 0 7.24 2.84 7.24 6s-1.76 4.9-4.1 6.52l4.07 4.61a5.39 5.39 0 0 0 1.12-2.7h-1.48v-3.7zm-8.06 5a4.62 4.62 0 0 0-2.12 3.59c0 2.2 1.51 3.35 3.64 3.35a4.31 4.31 0 0 0 3.16-1.25zm1-12.31a2 2 0 0 0-2.12 1.9c0 1 .83 1.91 2 3.42 1.22-1.08 2.27-1.87 2.27-3.17a1.93 1.93 0 0 0-2.11-2.11zm44.08 1.19h-2.88v17.42h2.88v4.17h-12.67v-4.17h2.88V4.61h-2.88v5h-5.54V.43h23.76v9.14h-5.55v-5zm9.21 0h-2.61V.43h12.09v4.18h-2.59v17.42h2.59v4.17H330.1v-4.17h2.59V4.61zM364.5.43h12.13v4.18h-2.16v17.42h2.16v4.17h-10.58v-4.17h2.38V4.97h-.07l-5.51 21.24h-6.26l-5.49-21.6h-.1v17.42h2.38v4.17h-9.65v-4.17h2.16V4.61h-2.16V.43h12.31L360.18 19h.07zm24.6 7.89h4.17v9.43h-4.17v-2.7h-2.5v7h8v-4.3h5.33v8.46h-22.18v-4.18h2.35V4.61h-2.37V.43h22.21v8h-5.33V4.61h-8v6.48h2.49V8.32z"/><path d="M160.27 9.38h-.65V8.32h3v1H162v4.36h.65v1h-3v-1h.65v-4.3zm9.89-1.06h1.39v2.36h-1.51a1.71 1.71 0 0 0-.3-1 1.09 1.09 0 0 0-.92-.42c-1.11 0-1.31 1.45-1.31 2.38s.16 2.2 1.31 2.2a1.1 1.1 0 0 0 1.09-1.2h1.67a2.36 2.36 0 0 1-2.66 2.24c-2.4 0-3.21-1.57-3.21-3.38s.88-3.29 2.82-3.29a1.91 1.91 0 0 1 1.63.74v-.63zm5.38 4.51a.7.7 0 0 0-.74-.68h-.41v1.58h.63v1h-2.92v-1h.59V9.38h-.59V8.32h3.5c1.27 0 2 .5 2 1.69a1.47 1.47 0 0 1-1.5 1.64 1 1 0 0 1 1.16.92l.31 1.13h.53v1h-2zm-.66-1.67a.91.91 0 0 0 1-1 .75.75 0 0 0-.87-.84h-.65v1.79h.5zm6.48-.84h1v2.36h-1v-.69h-.61v1.75h2v-1.08h1.35v2.12h-5.55v-1h.55v-4.4h-.59V8.32h5.59v2h-1.33v-1h-2v1.62h.61v-.62zm7.46 2.61h-2.12l-.27.8h.67v1h-2.59v-1h.39l2-5.4h2l2 5.4h.37v1h-2.84v-1h.67zm-1-3.27l-.72 2.28h1.36zm7.49-.28h-.72v4.36h.72v1h-3.21v-1h.72V9.38h-.72v1.24h-1.39v-2.3h5.94v2.3h-1.39V9.38zm4.38.94h1v2.36h-1v-.69h-.59v1.75h2v-1.08h1.33v2.12h-5.56v-1h.59v-4.4h-.59V8.32h5.56v2h-1.33v-1h-2v1.62h.61v-.62zm9.79-.94h-.72v4.36h.72v1h-3.17v-1h.72V9.38h-.72v1.24h-1.39v-2.3h5.94v2.3h-1.39V9.38zm5.95 0h-.65V8.32h3v1h-.59v4.36h.59v1h-3v-1h.65v-1.64h-2.07v1.69h.65v1h-3v-1h.59V9.38h-.59V8.32h3v1h-.65v1.62h2.07V9.38zm3.35 0h-.68V8.32h3v1h-.65v4.36h.65v1h-3v-1h.65v-4.3zm7.63 0h-.69V8.32h2.55v1h-.52v5.4h-2.15l-2.1-5v3.94h.71v1h-2.64v-1h.53V9.38h-.59V8.32h2.87l2 4.85V9.38zm6.96-1.06h1.39v2.3h-1.51a1.46 1.46 0 0 0-.23-.77 1.15 1.15 0 0 0-1-.52c-1.22 0-1.47 1.42-1.47 2.37s.29 2.1 1.47 2.1a1.23 1.23 0 0 0 1.31-1.26h-.67v-1h2.65v1h-.47v2.25h-1.39v-.67a1.82 1.82 0 0 1-1.76.77c-1.84 0-2.93-1.19-2.93-3.4 0-1.79.82-3.26 2.85-3.26a2.26 2.26 0 0 1 1.81.72v-.63zm5.89 0h1.33v2.07h-1.39a1 1 0 0 0-1-1.13.7.7 0 0 0-.86.59c0 .46.24.56 1.67 1.12 1.09.42 1.67.77 1.67 1.93 0 1.39-.86 2-2.22 2a1.48 1.48 0 0 1-1.45-.64v.53h-1.39v-2.24h1.48a1.5 1.5 0 0 0 .22.93 1 1 0 0 0 .87.37.7.7 0 0 0 .77-.7c0-.49-.25-.65-1.65-1.12-.82-.28-1.65-.68-1.65-1.73a1.83 1.83 0 0 1 2.1-2.06 1.62 1.62 0 0 1 1.43.6v-.52z"/><path class="b" d="M160.78 17.18v4.07h-.94v-4.07h.94zm1.71 2.06v2h-.88v-2h-.31v-.71h.31v-.88h.88v.88h.54v.71h-.54zm2.36-2.44h.88v2.05a1.12 1.12 0 0 1 .33-.28 1 1 0 0 1 .53-.12 1 1 0 0 1 .77.28 1.08 1.08 0 0 1 .27.79v1.73h-.88v-1.4a.73.73 0 0 0-.15-.54.49.49 0 0 0-.34-.12.48.48 0 0 0-.35.13.78.78 0 0 0-.18.57v1.36h-.88V16.8zm5.43 1.73h.88v2.72h-.88v-.33a.91.91 0 0 1-.8.42 1.29 1.29 0 0 1-1-.42 1.44 1.44 0 0 1-.4-1 1.55 1.55 0 0 1 .42-1.1 1.31 1.31 0 0 1 .95-.37 1 1 0 0 1 .85.4v-.3zm-1.12.86a.68.68 0 0 0-.2.49.7.7 0 0 0 .18.49.72.72 0 0 0 .52.21.65.65 0 0 0 .46-.19.72.72 0 0 0 0-1 .73.73 0 0 0-.49-.19.69.69 0 0 0-.47.19zm4.34-.16a1 1 0 0 0-.48-.15.37.37 0 0 0-.25.08.19.19 0 0 0-.05.12.14.14 0 0 0 .09.12 1.66 1.66 0 0 0 .26.09l.23.07a1.15 1.15 0 0 1 .45.24.65.65 0 0 1 .21.52 1 1 0 0 1-.28.71 1.18 1.18 0 0 1-.89.31 1.61 1.61 0 0 1-1.12-.39l.43-.63a1.46 1.46 0 0 0 .3.2.83.83 0 0 0 .37.08.49.49 0 0 0 .27-.06.23.23 0 0 0 .09-.18.18.18 0 0 0-.1-.16 1.17 1.17 0 0 0-.27-.1l-.22-.07a1.08 1.08 0 0 1-.44-.25.67.67 0 0 1-.2-.49.84.84 0 0 1 .26-.63 1.2 1.2 0 0 1 .82-.27 1.72 1.72 0 0 1 .9.23zm3.31-2.43v2a1 1 0 0 1 .85-.4 1.37 1.37 0 0 1 .95.37 1.46 1.46 0 0 1 .43 1.07 1.53 1.53 0 0 1-.43 1.09 1.22 1.22 0 0 1-.93.37 1 1 0 0 1-.86-.42v.33h-.88V16.8h.88zm.14 2.59a.7.7 0 0 0-.2.5.66.66 0 0 0 .2.49.75.75 0 0 0 .5.2.67.67 0 0 0 .46-.19.69.69 0 0 0 .21-.5.7.7 0 0 0-.21-.52.7.7 0 0 0-.96.03zm5.42.65h-2a.74.74 0 0 0 .17.46.59.59 0 0 0 .45.17.73.73 0 0 0 .35-.08.54.54 0 0 0 .19-.23l.83.08a1.22 1.22 0 0 1-.53.68 1.61 1.61 0 0 1-.86.2 1.41 1.41 0 0 1-1.09-.39 1.46 1.46 0 0 1-.41-1 1.55 1.55 0 0 1 .41-1.07 1.61 1.61 0 0 1 2.13 0 1.55 1.55 0 0 1 .38 1.11v.09zm-.81-.53a.69.69 0 0 0-.18-.32.65.65 0 0 0-.86 0 .61.61 0 0 0-.15.29h1.19zm4.15.53h-2a.74.74 0 0 0 .17.46.59.59 0 0 0 .45.17.73.73 0 0 0 .35-.08.53.53 0 0 0 .19-.23l.83.08a1.21 1.21 0 0 1-.52.68 1.61 1.61 0 0 1-.86.2 1.41 1.41 0 0 1-1.09-.39 1.47 1.47 0 0 1-.41-1 1.55 1.55 0 0 1 .42-1.07 1.61 1.61 0 0 1 2.12 0 1.55 1.55 0 0 1 .38 1.11v.09zm-.81-.53a.69.69 0 0 0-.18-.32.65.65 0 0 0-.86 0 .62.62 0 0 0-.15.29h1.19zm1.35-.98h.85v.32a1 1 0 0 1 .84-.4 1 1 0 0 1 1.06 1.07v1.72h-.88v-1.4a.75.75 0 0 0-.12-.52.46.46 0 0 0-.34-.12.48.48 0 0 0-.37.15.7.7 0 0 0-.17.52v1.4h-.88v-2.74zm6.97 0h.88v2.72h-.88v-.33a.91.91 0 0 1-.8.42 1.29 1.29 0 0 1-1-.42 1.44 1.44 0 0 1-.4-1 1.55 1.55 0 0 1 .42-1.1 1.31 1.31 0 0 1 .95-.37 1 1 0 0 1 .85.4v-.3zm-1.12.86a.68.68 0 0 0-.2.49.7.7 0 0 0 .18.49.72.72 0 0 0 .52.21.65.65 0 0 0 .46-.19.72.72 0 0 0 0-1 .73.73 0 0 0-.49-.19.69.69 0 0 0-.47.19zm2.68-.86h.88v.32a1 1 0 0 1 .84-.4 1 1 0 0 1 1.06 1.07v1.72h-.88v-1.4a.76.76 0 0 0-.15-.54.46.46 0 0 0-.34-.12.48.48 0 0 0-.37.15.7.7 0 0 0-.17.52v1.4h-.88v-2.72zm5.38-1.67a.51.51 0 1 1-.51.51.51.51 0 0 1 .51-.51zm.44 1.67v2.72h-.88v-2.72h.88zm.74 0h.88v.32a1 1 0 0 1 .84-.4 1 1 0 0 1 1.04 1.08v1.72h-.88v-1.4a.75.75 0 0 0-.12-.53.46.46 0 0 0-.34-.12.48.48 0 0 0-.37.15.7.7 0 0 0-.17.52v1.4h-.88v-2.74zm4.37.71v2h-.88v-2h-.3v-.71h.3v-.88h.88v.88h.54v.71h-.54zm3.71.8h-2a.74.74 0 0 0 .17.46.59.59 0 0 0 .45.17.73.73 0 0 0 .35-.08.54.54 0 0 0 .19-.23l.83.08a1.22 1.22 0 0 1-.53.68 1.61 1.61 0 0 1-.86.2 1.41 1.41 0 0 1-1.09-.39 1.46 1.46 0 0 1-.41-1 1.55 1.55 0 0 1 .41-1.07 1.61 1.61 0 0 1 2.13 0 1.55 1.55 0 0 1 .38 1.11v.09zm-.81-.53a.69.69 0 0 0-.18-.32.65.65 0 0 0-.86 0 .61.61 0 0 0-.15.29h1.19zm1.35-.98h.88v.43a1 1 0 0 1 .34-.38.84.84 0 0 1 .47-.12.89.89 0 0 1 .29 0v.82a.84.84 0 0 0-.4-.1.57.57 0 0 0-.44.18 1 1 0 0 0-.21.73v1.1h-.88v-2.66zm5.04 1.51h-2a.74.74 0 0 0 .17.46.59.59 0 0 0 .45.17.73.73 0 0 0 .35-.08.53.53 0 0 0 .19-.23l.83.08a1.21 1.21 0 0 1-.52.68 1.61 1.61 0 0 1-.86.2 1.41 1.41 0 0 1-1.09-.39 1.47 1.47 0 0 1-.41-1 1.55 1.55 0 0 1 .42-1.07 1.61 1.61 0 0 1 2.12 0 1.55 1.55 0 0 1 .38 1.11v.09zm-.81-.53a.69.69 0 0 0-.18-.32.65.65 0 0 0-.86 0 .62.62 0 0 0-.15.29h1.19zm3.03-.28a1 1 0 0 0-.48-.15.38.38 0 0 0-.25.08.19.19 0 0 0-.05.12.14.14 0 0 0 .08.12 1.71 1.71 0 0 0 .26.09l.23.07a1.14 1.14 0 0 1 .45.24.65.65 0 0 1 .21.52 1 1 0 0 1-.28.71 1.17 1.17 0 0 1-.88.31 1.62 1.62 0 0 1-1.12-.39l.37-.59a1.46 1.46 0 0 0 .3.2.83.83 0 0 0 .37.08.49.49 0 0 0 .27-.06.23.23 0 0 0 .09-.18.18.18 0 0 0-.1-.16 1.15 1.15 0 0 0-.27-.1l-.22-.07a1.09 1.09 0 0 1-.44-.25.67.67 0 0 1-.2-.49.84.84 0 0 1 .26-.63 1.2 1.2 0 0 1 .82-.27 1.73 1.73 0 0 1 .9.23zm1.88.01v2h-.88v-2h-.31v-.71h.31v-.88h.88v.88h.54v.71h-.54zm1.42-2.38a.51.51 0 1 1-.51.51.51.51 0 0 1 .51-.51zm.44 1.67v2.72h-.86v-2.72h.88zm.75 0h.88v.32a1 1 0 0 1 .84-.4 1 1 0 0 1 1.06 1.07v1.72h-.89v-1.4a.75.75 0 0 0-.15-.54.46.46 0 0 0-.34-.12.48.48 0 0 0-.37.15.7.7 0 0 0-.17.52v1.4h-.88v-2.72zm5.52 0h.87v2.56a1.59 1.59 0 0 1-.34 1.16 1.56 1.56 0 0 1-1.15.4 1.7 1.7 0 0 1-1.14-.35 1.22 1.22 0 0 1-.41-.72h1a.45.45 0 0 0 .2.27.73.73 0 0 0 .38.09.61.61 0 0 0 .44-.15.81.81 0 0 0 .18-.57v-.3a.86.86 0 0 1-.81.41 1.34 1.34 0 0 1-1-.38 1.42 1.42 0 0 1-.4-1 1.55 1.55 0 0 1 .4-1.09 1.34 1.34 0 0 1 1-.39.9.9 0 0 1 .81.41v-.35zm-1.09.85a.75.75 0 0 0-.21.51.72.72 0 0 0 .19.49.65.65 0 0 0 .49.2.68.68 0 0 0 .48-.18.72.72 0 0 0 .21-.52.69.69 0 0 0-.21-.5.73.73 0 0 0-.48-.17.72.72 0 0 0-.51.17zm4.07-.85h.89v.43a1 1 0 0 1 .34-.38.84.84 0 0 1 .47-.12.89.89 0 0 1 .29 0l-.1.86a.84.84 0 0 0-.4-.1.57.57 0 0 0-.44.18 1 1 0 0 0-.21.73v1.1h-.88v-2.7zm2.89-1.67a.51.51 0 1 1-.51.51.51.51 0 0 1 .51-.51zm.44 1.67v2.72h-.88v-2.72h.88zm3.67 2.72h-.88v-.33a1 1 0 0 1-.86.42 1.22 1.22 0 0 1-.93-.37 1.53 1.53 0 0 1-.43-1.09 1.45 1.45 0 0 1 .43-1.07 1.37 1.37 0 0 1 .95-.37 1 1 0 0 1 .85.4v-2h.88v4.45zm-2-1.87a.7.7 0 0 0-.21.52.69.69 0 0 0 .21.5.68.68 0 0 0 .46.19.75.75 0 0 0 .5-.2.66.66 0 0 0 .2-.49.7.7 0 0 0-.2-.5.65.65 0 0 0-.5-.2.64.64 0 0 0-.45.18zm5.49.66h-2a.74.74 0 0 0 .17.46.59.59 0 0 0 .45.17.73.73 0 0 0 .35-.08.53.53 0 0 0 .19-.23l.83.08a1.21 1.21 0 0 1-.52.68 1.61 1.61 0 0 1-.86.2 1.41 1.41 0 0 1-1.09-.39 1.47 1.47 0 0 1-.41-1 1.55 1.55 0 0 1 .42-1.07 1.61 1.61 0 0 1 2.12 0 1.55 1.55 0 0 1 .38 1.11v.09zm-.81-.53a.69.69 0 0 0-.18-.32.65.65 0 0 0-.86 0 .62.62 0 0 0-.15.29h1.19z"/></svg>