<svg xmlns="http://www.w3.org/2000/svg" viewBox="0 0 277.88 26.64"><defs><style>.a{fill:#e9e9e9}.b{fill:#536a6f}</style></defs><title>header-spotlight</title><path class="a" d="M2.59 4.61H0V.43h12.09v4.18H9.5v17.42h2.59v4.17H0v-4.17h2.59V4.61zm25.99 11.88h5.76v9.72h-20.7v-4.18h2.38V4.61h-2.38V.43h12.82v4.18h-3.53v17.42h5.65v-5.54zm22 0h5.76v9.72h-20.7v-4.18h2.38V4.61h-2.38V.43h12.81v4.18h-3.53v17.42h5.65v-5.54zM72.25.43h10.22v4.18h-2v12.71c0 6.73-4.25 9.32-10.58 9.32-8.21 0-10.4-5-10.4-8.78V4.61h-1.87V.43h11.34v4.18H66.4V17.1c0 2.77.83 5.36 4.14 5.36 3 0 4.18-2.59 4.18-5.36V4.61h-2.48V.43zm32.11 0h12.13v4.18h-2.16v17.42h2.16v4.17h-10.58v-4.17h2.38V4.97h-.07l-5.52 21.24h-6.26l-5.51-21.6h-.07v17.42h2.38v4.17h-9.65v-4.17h2.11V4.61h-2.16V.43H95.9L100.04 19h.07zm16.24 4.18H118V.43h12.1v4.18h-2.59v17.42h2.59v4.17H118v-4.17h2.59V4.61zm30.49 0h-2.77V.43h10.18v4.18h-2.09v21.6h-8.6l-8.39-19.94h-.07v15.76h2.84v4.17h-10.54v-4.17h2.38V4.61h-2.38V.43h11.48l7.88 19.4h.07V4.61zm25.7 14.22h-8.46l-1.08 3.2h2.77v4.17H159.7v-4.17h1.55l8-21.6h8l7.88 21.6h1.48v4.17h-11.44v-4.17h2.66zm-4.18-13.07h-.07l-2.7 9.11h5.43zm30.09-1.15h-2.88v17.42h2.88v4.17h-12.62v-4.17h2.88V4.61h-2.88v5h-5.54V.43h23.76v9.14h-5.6v-5zm9.27 0h-2.59V.43h12.09v4.18h-2.59v17.42h2.59v4.17h-12.1v-4.17h2.59V4.61zm24.47 22.03c-8.38 0-12.74-5.58-12.74-13.32S228.06 0 236.44 0s12.75 5.58 12.75 13.32-4.36 13.32-12.75 13.32zm0-22.46c-4.82 0-5.54 5.69-5.54 9.14s.72 9.14 5.54 9.14 5.54-5.69 5.54-9.14-.71-9.14-5.54-9.14zm34.02.43h-2.76V.43h10.19v4.18h-2.09v21.6h-8.6l-8.4-19.94h-.1v15.76h2.84v4.17h-10.51v-4.17h2.38V4.61h-2.38V.43h11.48l7.88 19.4h.07V4.61z"/><path d="M101.19 10.49h1v2.43h-1v-.76h-.61v1.58h.83v1h-3v-1H99V9.38h-.59V8.32h5.5v2.13h-1.28V9.38h-2v1.79h.61v-.68zm5.85-.17h1v2.36h-1v-.69h-.61v1.75h2v-1.08h1.33v2.12h-5.55v-1h.59v-4.4h-.59V8.32h5.55v2h-1.33v-1h-2v1.62h.61v-.62zm7.47 2.61h-2.12l-.27.8h.69v1h-2.59v-1h.39l2-5.4h2l2 5.4h.37v1h-2.88v-1h.67zm-1-3.27l-.68 2.28h1.36zm7.48-.28h-.72v4.36h.72v1h-3.17v-1h.72V9.38h-.72v1.24h-1.39v-2.3h5.94v2.3h-1.39V9.38zm5.22-1.06h2.56v1h-.5v3.18c0 1.68-1.06 2.33-2.65 2.33-2.05 0-2.6-1.25-2.6-2.2V9.38h-.47V8.32h2.84v1h-.69v3.12a1.09 1.09 0 0 0 1 1.34 1.14 1.14 0 0 0 1-1.34V9.38h-.62V8.32zm6.34 4.51a.7.7 0 0 0-.74-.68h-.41v1.58h.63v1h-2.9v-1h.57V9.38h-.59V8.32h3.5c1.27 0 2 .5 2 1.69a1.47 1.47 0 0 1-1.47 1.62 1 1 0 0 1 1.16.92l.31 1.13h.53v1h-2zm-.66-1.67a.91.91 0 0 0 1-1 .75.75 0 0 0-.87-.84h-.62v1.79h.5zm6.48-.84h1v2.36h-1v-.69h-.61v1.75h2v-1.08h1.33v2.12h-5.56v-1h.59v-4.4h-.59V8.32h5.56v2h-1.33v-1h-2v1.62h.61v-.62zm3.85-.94h-.59V8.32h3.44c2 0 3 1.29 3 3.24a2.88 2.88 0 0 1-3.23 3.21h-3.23v-1h.59V9.38zm2.21 4.36c.66 0 1.86 0 1.86-2.29 0-1.31-.43-2.07-1.81-2.07h-.53v4.36h.48zm13.27-4.36h-.65V8.32h2.38v1h-.34l-1.25 5.4h-2l-.74-5-.86 5h-2l-1.21-5.4h-.33v-1h2.63v1h-.63l.66 4 .96-5h1.8l.86 5.06zm5.22 5.51a3 3 0 0 1-3.22-3.33 3.19 3.19 0 1 1 6.37 0 3 3 0 0 1-3.15 3.33zm0-5.62c-1.21 0-1.39 1.42-1.39 2.29s.18 2.29 1.39 2.29 1.39-1.42 1.39-2.29-.18-2.29-1.39-2.29zm7.14 3.56a.7.7 0 0 0-.74-.68h-.41v1.58h.63v1h-2.9v-1h.59V9.38h-.59V8.32h3.5c1.27 0 2 .5 2 1.69a1.47 1.47 0 0 1-1.47 1.62 1 1 0 0 1 1.16.92l.31 1.13h.53v1h-2zm-.66-1.67a.91.91 0 0 0 1-1 .75.75 0 0 0-.87-.84h-.65v1.79h.5zm7.52-1.78h-.43V8.32h2.71v1h-.5l-1.73 2 2 2.42h.38v1h-2.82v-1h.49l-1.68-2.21v2.21h.59v1h-2.81v-1h.58V9.38h-.59V8.32h2.81v1h-.59v1.87z"/><path class="b" d="M107.07 19.23a1 1 0 0 0-.48-.15.38.38 0 0 0-.25.08.19.19 0 0 0-.05.12.14.14 0 0 0 .09.12 1.69 1.69 0 0 0 .26.09l.23.07a1.15 1.15 0 0 1 .45.24.65.65 0 0 1 .21.52 1 1 0 0 1-.28.71 1.18 1.18 0 0 1-.89.31 1.62 1.62 0 0 1-1.12-.39l.37-.59a1.46 1.46 0 0 0 .3.2.83.83 0 0 0 .37.08.49.49 0 0 0 .27-.06.23.23 0 0 0 .09-.18.18.18 0 0 0-.1-.16 1.16 1.16 0 0 0-.27-.1l-.22-.07a1.09 1.09 0 0 1-.44-.25.67.67 0 0 1-.2-.49.84.84 0 0 1 .26-.63 1.2 1.2 0 0 1 .82-.27 1.72 1.72 0 0 1 .9.23zm3.77.81h-2a.74.74 0 0 0 .17.46.59.59 0 0 0 .45.17.73.73 0 0 0 .35-.08.53.53 0 0 0 .19-.23l.83.08a1.21 1.21 0 0 1-.52.68 1.61 1.61 0 0 1-.86.2 1.41 1.41 0 0 1-1.09-.39 1.47 1.47 0 0 1-.41-1 1.55 1.55 0 0 1 .42-1.07 1.61 1.61 0 0 1 2.12 0 1.55 1.55 0 0 1 .38 1.11v.09zm-.81-.53a.69.69 0 0 0-.18-.32.65.65 0 0 0-.86 0 .62.62 0 0 0-.15.29h1.19zm4.14.53h-2a.74.74 0 0 0 .17.46.59.59 0 0 0 .45.17.73.73 0 0 0 .35-.08.54.54 0 0 0 .19-.23l.83.08a1.22 1.22 0 0 1-.53.68 1.61 1.61 0 0 1-.86.2 1.41 1.41 0 0 1-1.09-.39 1.46 1.46 0 0 1-.41-1 1.55 1.55 0 0 1 .41-1.07 1.61 1.61 0 0 1 2.13 0 1.55 1.55 0 0 1 .38 1.11v.09zm-.81-.53a.69.69 0 0 0-.18-.32.65.65 0 0 0-.86 0 .61.61 0 0 0-.15.29h1.19zm1.86-2.65a.51.51 0 1 1-.51.51.51.51 0 0 1 .51-.51zm.48 1.67v2.72h-.88v-2.72h.88zm.7 0h.88v.32a1 1 0 0 1 .84-.4 1 1 0 0 1 1.06 1.07v1.72h-.88v-1.4a.76.76 0 0 0-.15-.54.46.46 0 0 0-.34-.12.48.48 0 0 0-.37.15.7.7 0 0 0-.17.52v1.4h-.87v-2.72zm5.53 0h.88v2.56a1.59 1.59 0 0 1-.34 1.16 1.56 1.56 0 0 1-1.15.4 1.7 1.7 0 0 1-1.14-.35 1.22 1.22 0 0 1-.41-.72h1a.45.45 0 0 0 .2.27.73.73 0 0 0 .38.09.61.61 0 0 0 .44-.15.81.81 0 0 0 .18-.57v-.3a.86.86 0 0 1-.81.41 1.34 1.34 0 0 1-1-.38 1.42 1.42 0 0 1-.4-1 1.55 1.55 0 0 1 .4-1.09 1.34 1.34 0 0 1 1-.39.9.9 0 0 1 .81.41v-.35zm-1.09.85a.75.75 0 0 0-.21.51.72.72 0 0 0 .19.49.65.65 0 0 0 .49.2.68.68 0 0 0 .48-.18.72.72 0 0 0 .21-.52.69.69 0 0 0-.21-.5.73.73 0 0 0-.48-.17.72.72 0 0 0-.47.17zm4.98-.14v2h-.88v-2h-.3v-.71h.3v-.88h.88v.88h.54v.71h-.54zm.94-2.44h.88v2.05a1.12 1.12 0 0 1 .33-.28 1 1 0 0 1 .53-.12 1 1 0 0 1 .77.28 1.08 1.08 0 0 1 .27.79v1.73h-.84v-1.4a.73.73 0 0 0-.15-.54.5.5 0 0 0-.34-.12.48.48 0 0 0-.35.13.78.78 0 0 0-.18.57v1.36h-.88V16.8zm3.46 1.73h.88v.43a1 1 0 0 1 .34-.38.84.84 0 0 1 .47-.12.89.89 0 0 1 .29 0v.82a.84.84 0 0 0-.4-.1.57.57 0 0 0-.44.18 1 1 0 0 0-.21.73v1.1h-.88v-2.66zm4.91 2.37a1.83 1.83 0 0 1-2.38 0 1.46 1.46 0 0 1 0-2 1.83 1.83 0 0 1 2.38 0 1.46 1.46 0 0 1 0 2zm-1.68-1.53a.75.75 0 0 0 0 1 .67.67 0 0 0 .5.2.66.66 0 0 0 .49-.2.75.75 0 0 0 0-1 .72.72 0 0 0-1 .01zm3.51-.84v1.5a.57.57 0 0 0 .15.44.52.52 0 0 0 .37.13.54.54 0 0 0 .37-.13.59.59 0 0 0 .15-.44v-1.5h.88v1.59a1.09 1.09 0 0 1-.3.87 1.87 1.87 0 0 1-2.19 0 1 1 0 0 1-.3-.82v-1.64h.88zm4.67 0h.88v2.56a1.59 1.59 0 0 1-.34 1.16 1.56 1.56 0 0 1-1.15.4 1.69 1.69 0 0 1-1.13-.35 1.21 1.21 0 0 1-.41-.72h1a.45.45 0 0 0 .2.27.73.73 0 0 0 .38.09.62.62 0 0 0 .44-.15.81.81 0 0 0 .18-.57v-.3a.86.86 0 0 1-.81.41 1.34 1.34 0 0 1-1-.38 1.42 1.42 0 0 1-.4-1 1.56 1.56 0 0 1 .4-1.09 1.34 1.34 0 0 1 1-.39.9.9 0 0 1 .81.41v-.35zm-1.09.85a.75.75 0 0 0-.21.51.72.72 0 0 0 .19.49.65.65 0 0 0 .5.2.68.68 0 0 0 .48-.18.72.72 0 0 0 .21-.52.69.69 0 0 0-.21-.5.73.73 0 0 0-.48-.17.72.72 0 0 0-.48.17zm2.67-2.58h.88v2.05a1.1 1.1 0 0 1 .33-.28 1 1 0 0 1 .53-.12 1 1 0 0 1 .77.28 1.08 1.08 0 0 1 .27.79v1.73h-.88v-1.4a.73.73 0 0 0-.15-.54.5.5 0 0 0-.34-.12.48.48 0 0 0-.35.13.77.77 0 0 0-.18.57v1.36h-.88V16.8zm5.79 2.44v2h-.88v-2h-.3v-.71h.3v-.88h.88v.88h.54v.71H149zm.94-2.44h.88v2.05a1.12 1.12 0 0 1 .33-.28 1 1 0 0 1 .53-.12 1 1 0 0 1 .77.28 1.08 1.08 0 0 1 .27.79v1.73h-.88v-1.4a.73.73 0 0 0-.14-.53.5.5 0 0 0-.34-.12.48.48 0 0 0-.35.13.78.78 0 0 0-.18.57v1.36h-.88V16.8zm6.12 3.24h-2a.74.74 0 0 0 .17.46.59.59 0 0 0 .45.17.73.73 0 0 0 .35-.08.53.53 0 0 0 .19-.23l.83.08a1.21 1.21 0 0 1-.52.68 1.61 1.61 0 0 1-.86.2 1.41 1.41 0 0 1-1.09-.39 1.47 1.47 0 0 1-.41-1 1.55 1.55 0 0 1 .42-1.07 1.61 1.61 0 0 1 2.12 0 1.55 1.55 0 0 1 .38 1.11v.09zm-.81-.53a.69.69 0 0 0-.18-.32.65.65 0 0 0-.86 0 .62.62 0 0 0-.15.29h1.19zm2.78-.98h.88v.32a1 1 0 0 1 .84-.4 1 1 0 0 1 1.06 1.07v1.72h-.88v-1.4a.75.75 0 0 0-.15-.54.46.46 0 0 0-.34-.12.48.48 0 0 0-.37.15.7.7 0 0 0-.17.52v1.4h-.88v-2.72zm6.11 2.37a1.83 1.83 0 0 1-2.38 0 1.46 1.46 0 0 1 0-2 1.83 1.83 0 0 1 2.38 0 1.46 1.46 0 0 1 0 2zm-1.68-1.53a.75.75 0 0 0 0 1 .67.67 0 0 0 .5.2.66.66 0 0 0 .49-.2.75.75 0 0 0 0-1 .72.72 0 0 0-.99.01zm3.14-2.51a.51.51 0 1 1-.51.51.51.51 0 0 1 .51-.51zm.44 1.67v2.72h-.88v-2.72h.88zm2.41.7a1 1 0 0 0-.48-.15.38.38 0 0 0-.25.08.19.19 0 0 0-.02.16.14.14 0 0 0 .08.12 1.71 1.71 0 0 0 .26.09l.23.07a1.14 1.14 0 0 1 .45.24.65.65 0 0 1 .21.52 1 1 0 0 1-.28.71 1.17 1.17 0 0 1-.95.25 1.62 1.62 0 0 1-1.12-.39l.42-.61a1.46 1.46 0 0 0 .3.2.83.83 0 0 0 .37.08.49.49 0 0 0 .27-.06.23.23 0 0 0 .09-.18.18.18 0 0 0-.1-.16 1.15 1.15 0 0 0-.27-.1l-.22-.07a1.09 1.09 0 0 1-.44-.25.67.67 0 0 1-.2-.49.84.84 0 0 1 .26-.63 1.2 1.2 0 0 1 .82-.27 1.73 1.73 0 0 1 .9.23zm3.77.81h-2a.74.74 0 0 0 .17.46.59.59 0 0 0 .45.17.73.73 0 0 0 .35-.08.53.53 0 0 0 .19-.23l.83.08a1.21 1.21 0 0 1-.52.68 1.61 1.61 0 0 1-.86.2 1.41 1.41 0 0 1-1.09-.39 1.47 1.47 0 0 1-.41-1 1.55 1.55 0 0 1 .42-1.07 1.61 1.61 0 0 1 2.12 0 1.55 1.55 0 0 1 .38 1.11v.09zm-.81-.53a.69.69 0 0 0-.18-.32.65.65 0 0 0-.86 0 .62.62 0 0 0-.15.29h1.19z"/></svg>