<svg id="logo" xmlns="http://www.w3.org/2000/svg" viewBox="0 0 750.72 126.48"><defs><style>.cls-1{fill:#7ed4d4;}</style></defs><title>logo</title><g id="elijah"><path id="e" d="M75,63.48H.21V51.61h55.1V37.44H5V25.67H55.32V11.87H.3V0H75Z"/><path id="l" d="M142.53,0h19.69V50h48.94V63.48H142.53Z"/><path id="i" d="M271.61,51.52h19.5V12h-19.5V0h58.6V12h-19.5V51.52h19.5v12h-58.6Z"/><path id="j" d="M391.21,50.32h26l6.26-6.26V0h19.69V50L429.76,63.48H391.21Z"/><polyline id="a" points="528.93 50.05 521.57 63.48 501.52 63.48 537.58 0 566.65 0 602.71 63.48 580.54 63.48 573.18 50.05 566.1 37.26 551.1 9.84 536.01 37.26"/><path id="h" d="M663.53,0h19.69V25.11h47.19V0H750V63.48H730.41V38.91H683.22V63.48H663.53Z"/></g><g id="shepard"><path id="s" class="cls-1" d="M0,119.88v-5.16H6.24v3.36l3.3,3.3H40l4-4v-6.42L41,108H6.24L0,101.76v-9.3l7.38-7.38h36l6.6,6.6v4.74H43.74V93.36l-3.3-3.3H10.32l-4,4V100L9.24,103H44l6.24,6.24v9.9l-7.38,7.38H6.6Z"/><path id="h-2" data-name="h" class="cls-1" d="M119,85.08h6.3v17.76h37.14V85.08h6.3v41.4h-6.3V107.94H125.28v18.54H119Z"/><path id="e-2" data-name="e" class="cls-1" d="M283.44,126.48H239.52v-5.1h37.62v-13H241.92v-5h35.22V90.12H239.58v-5h43.86Z"/><path id="p" class="cls-1" d="M352.14,85.08H394.8l7.38,7.38V103l-7.38,7.38H358.44v16.08h-6.3Zm39.42,20.52,4.32-4.32V94.2l-4.32-4.32H358.44V105.6Z"/><polygon id="a-2" data-name="a" class="cls-1" points="491.4 85.08 482.64 85.08 457.68 126.48 464.4 126.48 471.3 114.84 474.3 109.86 486.9 88.62 499.5 109.86 509.4 126.48 516.36 126.48 491.4 85.08"/><path id="r" class="cls-1" d="M580.86,85.08h42.66l7.38,7.38V101l-7.44,7.44,8.76,18.06h-6.78l-8.1-16.92H587.16v16.92h-6.3Zm38.52,19.38,5.22-5.22v-5l-4.32-4.32H587.16v14.58Z"/><path id="d" class="cls-1" d="M700.32,85.08h41.82l8.58,8.58V117.9l-8.58,8.58H700.32Zm38.88,36.3,5.22-5.22V95.4l-5.22-5.22H706.62v31.2Z"/></g></svg>