<svg xmlns="http://www.w3.org/2000/svg" width="51.188" height="7.094" viewBox="0 0 51.188 7.094"><defs><style>.cls-1{fill:#afbfd2;fill-rule:evenodd}</style></defs><path id="NAME" class="cls-1" d="M882.582 171.391h-1.709v4.423l-2.515-4.423h-1.714v7.109h1.714v-4.424l2.519 4.424h1.705v-7.109zm13.437 7.109h1.84l-2.626-7.109h-1.612l-2.607 7.109h1.831l.41-1.328h2.345zm-1.592-5.117l.766 2.466h-1.528zm11.85-1.992v7.109h1.714v-1.66l-.166-3.4 1.724 5.063h1.132l1.719-5.059-.166 3.4v1.66h1.719v-7.109H911.7l-1.582 4.946-1.587-4.946h-2.251zm21.074 2.822h-2.7v-1.5h3.193v-1.323h-4.907v7.11h4.9v-1.318h-3.183v-1.7h2.7v-1.269z" transform="translate(-876.656 -171.406)"/></svg>