<svg id="projectMedia" xmlns="http://www.w3.org/2000/svg" width="137.938" height="11" viewBox="0 0 137.938 11"><defs><style>.cls-1{fill:#84959c}.cls-1,.cls-3{fill-rule:evenodd}.cls-2{fill:none;stroke:#84959c;stroke-width:1px}.cls-3{fill:#323232}</style></defs><path class="cls-1" d="M206 413v-1h50v1h-50z" transform="translate(-132.562 -407.5)"/><circle class="cls-2" cx="132.438" cy="5.5" r="5"/><path id="project_media" data-name="project media" class="cls-3" d="M132.572 417.016h1.187v-3.191h1.751l.948-.947v-3.19l-.948-.948h-2.938v8.276zm1.187-4.138v-3.19h1.1l.407.407v2.375l-.407.408h-1.1zm4.849 4.138h1.187V413.5h.864l.8 3.514h1.2l-.863-3.658.8-.8v-2.866l-.947-.948h-3.046v8.276zm1.187-4.462v-2.866h1.211l.408.407v2.051l-.408.408h-1.211zm5.988 4.462h2.075l.947-.948v-6.38l-.947-.948h-2.075l-.947.948v6.38zm.636-.984l-.4-.408v-5.493l.4-.407h.8l.4.407v5.493l-.4.408h-.8zm4.345.984h1.727l.935-.948v-7.328h-1.187v6.86l-.4.408h-1.079v1.008zm5.111 0h3.335v-1.032h-2.147v-2.638h1.943V412.3h-1.943v-2.53h2.123v-1.03h-3.311v8.276zm6.372 0h1.919l.947-.948v-1.607h-1.187v1.187l-.408.4h-.635l-.4-.4v-5.517l.4-.407h.635l.408.407v1.14h1.187v-1.583l-.947-.948h-1.919l-.948.948v6.38zm6.072 0h1.187V409.8h1.415v-1.06h-4.029v1.06h1.427v7.22zm7.644 0h1v-7.268l1.235 7.268h1.319l1.236-7.268v7.268h1.127v-8.276h-1.859l-1.1 7.04-1.116-7.04h-1.835v8.276zm8.388 0h3.334v-1.032h-2.147v-2.638h1.943V412.3h-1.943v-2.53h2.123v-1.03h-3.31v8.276zm5.544 0h2.986l.936-.948v-6.38l-.936-.948H189.9v8.276zm1.187-.984v-6.308h1.152l.395.407v5.493l-.395.408h-1.152zm4.825.984H199v-.916h-.947v-6.452H199v-.908h-3.094v.912h.96v6.448h-.96v.912zm4.764 0h1.115l.3-2.147h1.523l.312 2.147h1.164l-1.356-8.276h-1.7zm2.183-7.508l.611 4.353h-1.235z" transform="translate(-132.562 -407.5)"/></svg>